<?xml version="1.0" standalone="no"?>
<!DOCTYPE svg PUBLIC "-//W3C//DTD SVG 20010904//EN"
 "http://www.w3.org/TR/2001/REC-SVG-20010904/DTD/svg10.dtd">
<svg version="1.0" xmlns="http://www.w3.org/2000/svg"
 width="275.000000pt" height="183.000000pt" viewBox="0 0 275.000000 183.000000"
 preserveAspectRatio="xMidYMid meet">

<g transform="translate(0.000000,183.000000) scale(0.100000,-0.100000)"
fill="#000000" stroke="none">
<path d="M490 1807 c0 -27 28 -57 53 -57 11 0 17 -8 17 -22 0 -19 7 -15 53 29
l52 52 260 9 260 9 -347 1 -348 2 0 -23z"/>
<path d="M438 1730 c-10 -9 -15 -20 -11 -23 3 -4 13 2 21 14 18 26 12 32 -10
9z"/>
<path d="M510 1692 c-19 -2 -43 -11 -52 -19 -16 -14 -20 -14 -42 0 -49 32 -50
-20 -1 -57 19 -15 35 -35 34 -44 0 -15 -1 -16 -11 -1 -11 16 -23 15 -95 -12
-26 -10 -31 -29 -8 -29 8 0 15 -4 15 -9 0 -4 -12 -6 -27 -3 -16 2 -26 2 -23
-1 17 -18 117 -87 126 -87 7 0 20 30 30 66 10 37 28 79 41 95 21 25 58 99 51
103 -2 0 -19 0 -38 -2z"/>
<path d="M690 1653 c0 -10 -10 -27 -23 -38 -13 -11 -37 -45 -53 -75 -17 -30
-45 -81 -63 -113 -37 -66 -32 -85 15 -66 16 6 47 12 69 14 l40 2 7 104 c4 57
10 123 13 147 3 23 4 42 1 42 -3 0 -6 -8 -6 -17z"/>
<path d="M0 1255 l0 -380 62 -13 c35 -7 70 -13 78 -13 43 0 91 -24 110 -56 21
-36 40 -42 60 -18 20 24 44 19 35 -7 -12 -36 -10 -78 8 -143 17 -62 35 -187
42 -290 l4 -60 -14 75 c-8 41 -21 93 -29 115 -9 22 -19 58 -24 79 -12 61 -28
55 -36 -14 -4 -33 -16 -88 -27 -122 -11 -36 -19 -89 -19 -131 0 -75 -8 -86
-14 -21 -6 59 -17 105 -37 150 -23 55 -38 63 -45 25 -4 -16 -15 -38 -25 -47
-11 -9 -19 -24 -19 -32 0 -10 -7 -12 -27 -8 -21 5 -24 4 -13 -4 11 -7 11 -10
2 -10 -7 0 -10 -4 -7 -10 3 -5 2 -10 -4 -10 -5 0 -12 -12 -14 -28 -2 -15 -4
-1 -3 30 0 51 3 58 20 58 29 0 16 6 -26 13 l-38 6 0 -195 0 -194 129 0 c94 0
131 3 134 13 4 9 6 9 6 0 1 -10 115 -13 529 -13 l527 1 -60 27 c-149 68 -308
173 -324 215 -5 12 -18 31 -30 41 -11 11 -21 22 -21 26 0 13 71 -27 103 -57
l29 -28 -31 49 c-48 76 -64 138 -65 248 -1 54 1 98 4 99 64 13 192 -13 235
-47 23 -19 30 -20 -102 12 -90 21 -103 17 -103 -36 0 -62 28 -188 56 -249 13
-29 22 -57 19 -61 -3 -5 0 -12 6 -16 8 -5 9 -3 3 7 -4 8 6 2 24 -13 29 -24
146 -68 181 -68 8 0 7 -5 -3 -15 -13 -13 -22 -14 -58 -4 -61 16 -118 47 -118
64 0 7 -5 17 -12 21 -8 5 -9 2 -4 -11 5 -13 3 -15 -6 -8 -13 10 -58 24 -58 18
0 -17 335 -194 346 -182 3 2 -30 19 -72 38 -42 18 -71 35 -65 37 11 4 98 -30
221 -86 48 -22 305 -31 298 -11 -3 8 -11 14 -18 14 -7 0 -15 7 -17 15 -4 13
-3 13 7 0 10 -13 11 -12 6 3 -3 10 -6 21 -6 23 0 3 -5 2 -10 -1 -12 -8 -49 71
-79 170 -12 39 -28 80 -36 92 -14 20 -13 22 2 16 12 -5 14 -3 9 8 -4 8 -1 6 8
-4 8 -11 13 -28 11 -38 -2 -11 0 -17 5 -14 5 3 10 -3 13 -12 2 -10 2 3 -1 29
-5 57 6 65 63 43 l40 -15 -35 3 -35 2 1 -45 c0 -57 61 -248 89 -277 37 -41
167 -26 179 22 3 10 -1 26 -8 35 -7 8 -16 28 -19 45 -5 27 -4 28 9 10 8 -10
14 -14 14 -9 0 6 6 11 14 11 9 0 12 -6 8 -16 -5 -14 -3 -14 18 1 14 9 24 21
22 28 -2 8 3 8 17 1 23 -13 41 -61 41 -112 l0 -39 55 0 c37 0 55 4 55 13 0 9
2 9 9 -1 6 -10 10 -10 21 3 9 11 9 15 1 15 -7 0 -10 4 -6 9 3 6 -3 14 -12 20
-10 6 -13 11 -7 11 11 0 11 33 -1 88 -9 39 0 41 31 6 25 -26 31 -44 14 -44 -5
0 -10 -4 -10 -10 0 -5 7 -10 15 -10 18 0 20 -16 3 -23 -19 -8 11 -27 41 -27
19 0 23 -4 19 -25 -5 -24 -3 -25 39 -25 32 0 42 3 37 13 -6 9 -4 9 7 -1 7 -6
24 -12 36 -12 21 0 22 3 13 20 -6 11 -17 20 -25 20 -18 0 -103 77 -110 101 -4
11 -13 19 -21 19 -20 0 -17 20 4 20 9 1 -3 8 -28 17 -25 8 -52 21 -60 28 -8 8
-53 32 -99 55 -65 32 -86 39 -95 29 -8 -9 -8 -10 1 -5 13 7 53 -12 66 -31 4
-7 16 -13 25 -13 9 -1 28 -8 42 -16 14 -8 18 -13 10 -11 -9 3 -50 14 -92 26
-41 12 -108 33 -149 46 -40 14 -82 23 -93 20 -12 -3 -15 -2 -8 1 7 3 -63 44
-155 90 -93 46 -190 96 -218 111 -41 22 -373 143 -394 143 -3 0 0 4 8 9 7 5
15 28 18 52 4 36 9 44 27 45 11 1 41 4 66 6 45 5 79 0 278 -42 96 -21 104 -21
128 -5 30 20 26 41 -7 37 -16 -1 -20 1 -11 6 15 10 -90 36 -165 41 -7 1 -13 5
-13 9 0 5 21 5 48 1 137 -23 306 -34 336 -23 23 9 20 44 -3 44 -11 0 -22 4
-26 9 -3 6 6 6 25 1 44 -13 96 -2 97 20 1 11 -7 20 -20 24 -12 3 -31 12 -42
21 -20 17 -14 17 30 -1 19 -8 20 19 1 35 -8 7 -67 18 -133 26 -65 8 -134 17
-153 20 -30 3 -33 2 -18 -9 25 -18 12 -26 -24 -15 -17 4 -34 6 -39 4 -4 -3
-20 0 -36 6 -26 10 -27 11 -9 21 19 11 19 11 0 25 -18 15 -18 15 2 9 12 -4 52
-13 90 -21 56 -11 71 -12 82 -2 10 10 10 16 0 28 -11 13 -31 14 -133 7 -66 -4
-173 -10 -238 -13 -77 -2 -124 -9 -134 -17 -14 -11 -15 -11 -5 8 10 19 7 23
-28 40 -22 10 -40 22 -40 27 0 37 -93 -46 -123 -110 -7 -16 -19 -23 -39 -23
-17 0 -27 -4 -23 -10 13 -20 -12 -9 -33 15 -12 14 -36 28 -52 32 -16 3 -27 9
-24 14 10 17 -6 30 -25 19 -21 -11 -41 4 -41 31 0 18 -19 29 -51 29 -26 0 -24
14 4 28 l22 12 -25 -2 c-14 0 -41 7 -60 16 -20 10 -26 15 -13 12 13 -2 26 0
29 5 3 5 -4 9 -15 9 -12 0 -20 3 -20 8 1 4 1 15 0 25 -1 14 -4 15 -21 5 -10
-7 -23 -9 -27 -5 -4 5 -2 12 5 16 19 12 3 41 -21 38 -14 -1 -21 3 -19 11 1 8
-7 16 -18 19 -11 3 -20 12 -20 20 0 8 -4 11 -10 8 -5 -3 -10 1 -10 9 0 9 -5
16 -10 16 -6 0 -29 19 -53 43 -23 24 -50 46 -59 50 -10 3 -18 13 -18 22 0 8
-9 15 -19 15 -11 0 -26 9 -35 21 -8 12 -31 32 -51 46 -20 13 -45 39 -56 56
-19 32 -19 32 -19 -348z m275 55 c3 -5 1 -10 -4 -10 -6 0 -11 5 -11 10 0 6 2
10 4 10 3 0 8 -4 11 -10z m66 -31 c34 -24 37 -39 8 -39 -15 0 -19 5 -15 15 5
14 -5 19 -31 16 -8 -1 -10 5 -7 14 8 19 10 19 45 -6z m-75 -181 c4 -7 -5 -8
-25 -3 -35 7 -35 7 -21 -29 7 -21 6 -26 -5 -26 -16 0 -40 -38 -30 -48 3 -4 10
0 15 8 8 12 10 11 10 -6 0 -22 0 -22 -80 -30 -40 -4 -51 -2 -40 5 13 9 13 11
-1 11 -9 0 -20 11 -23 24 -15 59 38 107 96 87 17 -6 28 -6 29 0 1 8 4 21 8 33
2 8 61 -15 67 -26z m132 -88 c3 -33 3 -33 -19 -18 -13 8 -28 23 -33 33 -6 11
-17 25 -23 33 -21 22 -16 22 30 3 36 -15 42 -23 45 -51z m612 46 c0 -3 -4 -8
-10 -11 -5 -3 -10 -1 -10 4 0 6 5 11 10 11 6 0 10 -2 10 -4z m310 -42 c0 -2
-17 -4 -37 -4 -24 0 -33 3 -25 9 12 7 62 4 62 -5z m-620 -81 c52 -19 102 -42
110 -52 8 -11 25 -22 38 -26 12 -3 22 -11 22 -16 0 -13 -37 -2 -70 21 -48 33
-124 52 -230 57 -68 4 -113 11 -128 21 -21 14 -22 16 -6 33 10 11 25 19 35 19
10 0 21 4 24 10 3 6 27 1 58 -12 29 -12 95 -36 147 -55z m905 32 c35 -8 51
-17 54 -30 3 -17 2 -17 -12 -3 -9 8 -39 18 -66 22 -28 4 -58 9 -66 12 -23 9
-6 26 18 18 12 -4 45 -13 72 -19z m-200 -5 c3 -5 -3 -10 -14 -10 -12 0 -21 5
-21 10 0 6 6 10 14 10 8 0 18 -4 21 -10z m300 -41 c18 -34 17 -44 -3 -23 -7 8
-10 14 -6 14 4 0 -1 9 -11 20 -10 11 -13 20 -7 20 6 0 19 -14 27 -31z m-1288
-12 c-1 -32 -8 -36 -46 -28 -2 1 2 7 8 15 6 8 11 18 10 22 -3 17 1 24 15 24 9
0 13 -11 13 -33z m993 13 c0 -5 -2 -10 -4 -10 -3 0 -8 5 -11 10 -3 6 -1 10 4
10 6 0 11 -4 11 -10z m97 -19 c40 -10 74 -17 76 -15 2 2 4 -2 4 -10 0 -14 -7
-14 -44 1 -10 3 -31 8 -48 10 -29 5 -89 32 -70 32 6 1 42 -8 82 -18z m-199
-31 c8 -13 9 -20 1 -20 -14 0 -39 26 -32 34 10 10 18 7 31 -14z m349 -20 c2
-18 1 -21 -6 -10 -5 8 -8 17 -5 21 2 4 -6 10 -18 12 -22 5 -22 5 1 4 18 -2 25
-9 28 -27z m-1233 -81 c-28 -29 -54 -38 -54 -18 0 17 21 52 44 75 l21 21 9
-24 c7 -20 3 -30 -20 -54z m317 45 c14 -17 4 -34 -20 -34 -23 0 -45 25 -38 44
7 17 40 11 58 -10z m79 -11 c-8 -3 -26 -10 -39 -15 -13 -5 -22 -10 -20 -13 3
-2 23 2 44 10 22 8 58 14 80 13 39 0 38 -1 -10 -8 -79 -11 -136 -45 -154 -92
-10 -23 -10 -23 -10 4 -1 15 3 29 9 33 5 3 7 12 4 19 -5 14 69 57 96 55 13 0
13 -1 0 -6z m145 -13 c3 -6 -1 -7 -9 -4 -18 7 -21 14 -7 14 6 0 13 -4 16 -10z
m8 -49 c6 -6 -2 -15 -22 -26 -37 -18 -65 -10 -36 12 18 12 18 13 -1 13 -11 0
-24 -4 -29 -9 -6 -5 -22 -7 -38 -4 -21 4 -25 8 -16 19 12 15 125 12 142 -5z
m-192 -78 c-8 -15 -10 -15 -11 -2 0 17 10 32 18 25 2 -3 -1 -13 -7 -23z m587
-153 c17 -11 32 -23 32 -26 0 -4 -6 -2 -13 4 -7 7 -29 18 -48 26 -19 9 -27 15
-19 16 8 0 30 -9 48 -20z m-120 3 c-15 -4 -14 -7 7 -31 58 -65 79 -106 78
-149 -1 -24 3 -43 8 -43 6 0 8 -4 5 -9 -4 -5 0 -11 6 -14 9 -3 6 -11 -9 -26
-13 -12 -23 -17 -23 -11 0 6 -10 4 -23 -5 -22 -14 -26 -14 -52 7 l-27 21 7
-23 c4 -14 3 -20 -3 -16 -18 11 0 184 20 197 6 4 3 19 -6 37 -12 23 -13 32 -3
35 7 3 5 6 -5 6 -36 2 -14 30 22 29 11 0 10 -2 -2 -5z m-143 -73 c4 0 4 8 1
18 -9 28 8 44 38 36 l26 -6 -30 -34 c-16 -19 -33 -46 -36 -61 -7 -25 -8 -25
-20 18 -8 24 -14 55 -13 69 0 23 1 23 14 -7 8 -18 17 -33 20 -33z m240 20 c8
0 17 -4 20 -10 3 -5 0 -8 -7 -6 -7 3 -25 7 -41 10 -23 5 -25 9 -15 20 11 12
14 12 21 0 4 -8 14 -14 22 -14z m-5 -30 c0 -5 -2 -10 -4 -10 -3 0 -8 5 -11 10
-3 6 -1 10 4 10 6 0 11 -4 11 -10z m-933 -202 c-3 -8 -6 -5 -6 6 -1 11 2 17 5
13 3 -3 4 -12 1 -19z m1496 -2 c9 -7 17 -18 17 -24 0 -6 8 -9 18 -6 12 4 13 3
4 -3 -8 -6 -10 -17 -5 -29 6 -16 2 -15 -24 6 -16 14 -29 32 -28 40 1 8 -3 18
-9 22 -6 4 -7 8 -1 8 6 -1 18 -7 28 -14z m-583 -46 c-8 -5 -26 -9 -40 -9 -23
1 -23 2 5 9 43 11 52 11 35 0z m541 -63 c-10 -9 -11 -8 -5 6 3 10 9 15 12 12
3 -3 0 -11 -7 -18z m-431 -7 c0 -5 -4 -10 -10 -10 -5 0 -10 5 -10 10 0 6 5 10
10 10 6 0 10 -4 10 -10z m-594 -63 c14 -30 14 -31 -1 -12 -25 30 -39 59 -26
51 6 -4 18 -22 27 -39z"/>
<path d="M1300 300 c0 -5 5 -10 11 -10 5 0 7 5 4 10 -3 6 -8 10 -11 10 -2 0
-4 -4 -4 -10z"/>
<path d="M700 1331 c0 -6 5 -13 10 -16 6 -3 10 1 10 9 0 9 -4 16 -10 16 -5 0
-10 -4 -10 -9z"/>
<path d="M2573 1193 c37 -15 73 -12 62 7 -3 5 -27 10 -53 9 l-47 0 38 -16z"/>
<path d="M2118 1173 c6 -2 18 -2 25 0 6 3 1 5 -13 5 -14 0 -19 -2 -12 -5z"/>
<path d="M2205 1155 c27 -8 75 -16 105 -19 l55 -5 -55 14 c-30 8 -77 17 -105
20 l-50 5 50 -15z"/>
<path d="M1698 1143 c7 -3 16 -2 19 1 4 3 -2 6 -13 5 -11 0 -14 -3 -6 -6z"/>
<path d="M1770 1124 c25 -7 50 -13 55 -13 18 1 -59 27 -80 28 -11 0 0 -7 25
-15z"/>
<path d="M2505 1130 c-3 -5 -23 -10 -43 -11 l-37 -1 40 -9 c45 -11 144 -45
192 -65 17 -8 45 -17 62 -20 31 -6 31 -6 31 35 0 22 -1 41 -2 42 -8 2 -177 19
-196 19 -13 0 -20 5 -17 10 3 6 -1 10 -9 10 -8 0 -18 -4 -21 -10z"/>
<path d="M2383 1123 c9 -2 23 -2 30 0 6 3 -1 5 -18 5 -16 0 -22 -2 -12 -5z"/>
<path d="M1747 1106 c12 -9 54 -23 95 -31 40 -9 78 -21 83 -29 6 -7 26 -18 45
-25 49 -17 108 -50 90 -51 -8 0 2 -7 24 -15 70 -25 191 -54 214 -52 24 1 24 1
-5 24 -15 13 -32 23 -36 23 -4 0 -16 8 -27 18 -19 17 -159 76 -166 69 -2 -2
23 -16 57 -31 33 -16 58 -30 56 -32 -2 -2 -34 8 -73 22 -183 67 -213 78 -274
95 -36 10 -74 21 -85 25 -18 6 -18 5 2 -10z"/>
<path d="M1878 1093 c7 -3 16 -2 19 1 4 3 -2 6 -13 5 -11 0 -14 -3 -6 -6z"/>
<path d="M1999 1055 c18 -8 38 -15 45 -15 6 1 -4 7 -23 15 -18 8 -38 15 -45
15 -6 -1 4 -7 23 -15z"/>
<path d="M1937 1009 c7 -7 15 -10 18 -7 3 3 -2 9 -12 12 -14 6 -15 5 -6 -5z"/>
<path d="M1910 918 c-7 -29 -27 -76 -45 -104 -19 -28 -35 -67 -37 -85 l-3 -34
-105 -12 c-58 -7 -144 -13 -192 -14 -70 -2 -88 -5 -91 -18 -4 -13 -5 -12 -6 2
-1 17 -8 18 -73 14 -40 -3 -115 -5 -165 -6 -58 0 -93 -4 -93 -11 0 -5 14 -10
30 -10 17 0 30 -3 30 -7 0 -5 28 -8 63 -8 34 0 81 -2 105 -6 28 -4 48 -1 61 8
11 7 25 11 33 8 31 -12 184 -22 195 -13 8 7 29 5 60 -6 25 -9 71 -16 100 -16
46 0 53 3 53 19 0 11 -6 22 -12 25 -45 18 78 -9 177 -39 66 -21 143 -44 172
-52 30 -9 50 -20 47 -27 -4 -11 77 -43 186 -73 30 -8 59 -19 65 -24 5 -5 20
-9 33 -9 37 0 60 -17 67 -50 4 -16 11 -32 16 -35 5 -4 9 -16 9 -29 0 -12 25
-71 55 -131 30 -61 55 -111 55 -113 0 -18 -27 28 -75 125 -32 65 -61 120 -65
123 -4 3 -10 14 -14 26 -7 23 -52 48 -68 38 -6 -4 -14 -1 -18 7 -7 11 -13 10
-37 -1 -25 -12 -26 -14 -8 -18 11 -2 25 -7 30 -11 6 -4 29 -13 53 -21 29 -9
42 -19 42 -31 0 -56 140 -299 172 -299 11 0 15 5 12 15 -4 9 0 15 10 15 14 0
16 30 16 285 -1 323 6 300 -84 270 -73 -25 -183 -35 -286 -25 -113 10 -476
100 -457 113 7 5 4 6 -10 2 -13 -3 -32 -3 -44 0 -27 9 -23 33 31 166 40 101
47 129 31 129 -5 0 -14 -24 -21 -52z"/>
<path d="M2075 891 c24 -5 30 -11 30 -33 0 -14 10 -38 22 -52 14 -16 21 -35
19 -49 -3 -12 -5 -27 -5 -33 -2 -20 -78 -47 -113 -40 -23 4 -29 3 -18 -4 28
-18 132 -12 160 10 20 16 22 20 8 20 -12 0 -18 8 -18 23 1 20 2 20 11 4 5 -9
23 -24 39 -32 42 -22 37 -40 -12 -53 l-43 -11 50 6 c43 5 109 7 155 4 30 -2
-10 -25 -58 -33 -47 -7 -47 -7 9 -3 60 4 139 37 139 59 0 43 124 52 187 13 21
-13 44 -22 51 -20 25 9 11 -7 -20 -22 -29 -14 -31 -14 -14 0 11 8 15 15 9 15
-16 0 -36 -28 -28 -39 3 -6 20 -8 38 -5 56 10 61 13 48 28 -10 12 -9 14 6 10
15 -4 19 1 21 23 2 29 -1 31 -258 110 -13 4 -13 4 0 -7 13 -10 12 -11 -3 -6
-10 3 -21 6 -23 6 -3 0 -3 4 0 9 7 11 -49 26 -78 22 -12 -2 -16 1 -11 9 5 9 1
10 -15 5 -17 -5 -20 -4 -15 5 5 8 3 11 -4 9 -21 -7 -12 -24 17 -33 15 -5 33
-14 41 -20 7 -6 32 -18 54 -27 l41 -16 -47 -7 c-34 -5 -45 -11 -40 -22 4 -10
0 -12 -12 -8 -13 5 -16 16 -13 45 4 47 -13 52 -29 9 -13 -35 -44 -40 -82 -14
-17 12 -25 13 -30 5 -5 -7 -15 -3 -30 13 -13 14 -20 30 -16 36 4 7 -1 14 -13
17 -14 3 -19 10 -15 21 4 9 2 13 -4 9 -6 -4 -16 0 -23 8 -12 15 -4 21 23 16 5
-1 6 3 3 8 -3 5 -15 7 -25 4 -10 -3 -22 0 -25 6 -4 6 -22 10 -39 10 l-32 -1
30 -7z m496 -157 c8 -10 8 -14 0 -14 -6 0 -11 4 -11 10 0 5 -12 8 -27 6 -16
-2 -22 -1 -15 1 7 3 10 8 7 13 -8 13 33 -1 46 -16z m-140 -59 c0 -14 -39 -26
-47 -14 -12 20 4 39 26 31 12 -4 21 -12 21 -17z m289 5 c8 -5 11 -10 5 -10 -5
0 -17 5 -25 10 -8 5 -10 10 -5 10 6 0 17 -5 25 -10z m-7 -47 c-7 -2 -19 -2
-25 0 -7 3 -2 5 12 5 14 0 19 -2 13 -5z"/>
<path d="M2204 860 c16 -5 33 -7 38 -4 4 3 8 0 8 -5 0 -6 12 -11 28 -11 27 1
27 1 -7 15 -18 8 -47 15 -65 14 l-31 -1 29 -8z"/>
<path d="M2026 761 c-4 -5 -2 -12 3 -15 5 -4 12 -2 15 3 4 5 2 12 -3 15 -5 4
-12 2 -15 -3z"/>
<path d="M1010 676 c0 -2 9 -6 20 -9 11 -3 18 -1 14 4 -5 9 -34 13 -34 5z"/>
<path d="M2013 653 c9 -2 23 -2 30 0 6 3 -1 5 -18 5 -16 0 -22 -2 -12 -5z"/>
<path d="M2076 641 c-3 -4 6 -6 19 -3 14 2 25 6 25 8 0 8 -39 4 -44 -5z"/>
<path d="M170 583 c0 -10 4 -25 10 -33 8 -12 10 -12 16 3 7 20 -1 47 -16 47
-5 0 -10 -8 -10 -17z"/>
<path d="M2368 573 c6 -2 18 -2 25 0 6 3 1 5 -13 5 -14 0 -19 -2 -12 -5z"/>
<path d="M2160 466 c0 -2 7 -7 16 -10 8 -3 12 -2 9 4 -6 10 -25 14 -25 6z"/>
<path d="M2320 434 c-31 -13 -33 -17 -17 -25 22 -13 49 -5 65 21 15 25 3 26
-48 4z"/>
<path d="M1860 356 c0 -2 7 -7 16 -10 8 -3 12 -2 9 4 -6 10 -25 14 -25 6z"/>
<path d="M1626 217 c3 -10 9 -15 12 -12 3 3 0 11 -7 18 -10 9 -11 8 -5 -6z"/>
<path d="M2260 176 c0 -2 7 -7 16 -10 8 -3 12 -2 9 4 -6 10 -25 14 -25 6z"/>
<path d="M1930 91 c0 -5 5 -13 10 -16 6 -3 10 -2 10 4 0 5 -4 13 -10 16 -5 3
-10 2 -10 -4z"/>
<path d="M1964 66 c-7 -18 24 -66 42 -66 8 0 14 7 14 15 0 8 -7 15 -16 15 -10
0 -13 6 -9 19 7 22 -23 38 -31 17z"/>
<path d="M1370 15 c14 -8 32 -14 40 -14 8 0 0 6 -19 14 -42 19 -54 19 -21 0z"/>
</g>
</svg>
