<?xml version="1.0" standalone="no"?>
<!DOCTYPE svg PUBLIC "-//W3C//DTD SVG 20010904//EN"
 "http://www.w3.org/TR/2001/REC-SVG-20010904/DTD/svg10.dtd">
<svg version="1.0" xmlns="http://www.w3.org/2000/svg"
 width="960.000000pt" height="960.000000pt" viewBox="0 0 960.000000 960.000000"
 preserveAspectRatio="xMidYMid meet">

<g transform="translate(0.000000,960.000000) scale(0.100000,-0.100000)"
fill="#000000" stroke="none">
<path d="M3025 9552 c-186 -124 -315 -215 -311 -220 5 -4 47 23 286 183 134
90 128 85 110 84 -8 0 -47 -21 -85 -47z"/>
<path d="M3989 9596 c-8 -8 -447 -63 -654 -81 -99 -9 -135 -16 -135 -26 0 -6
3 -8 8 -5 4 2 41 7 82 11 41 4 107 11 145 16 39 5 183 20 320 34 138 13 275
27 307 31 l56 7 2 -34 c4 -107 5 -109 23 -109 21 0 22 28 2 93 -13 44 -12 51
8 48 4 0 7 4 7 9 0 10 -162 15 -171 6z"/>
<path d="M4675 9590 c-10 -16 19 -22 48 -11 15 6 27 13 27 16 0 10 -69 5 -75
-5z"/>
<path d="M4960 9578 c0 -19 2 -20 10 -8 13 19 13 30 0 30 -5 0 -10 -10 -10
-22z"/>
<path d="M2 9033 c3 -437 5 -510 18 -520 13 -11 13 -12 -2 -13 -16 0 -18 -13
-18 -124 0 -121 1 -125 23 -129 l22 -4 -22 -2 c-23 -1 -23 -3 -23 -141 0 -86
4 -140 10 -140 5 0 33 9 62 20 29 11 67 20 85 20 17 0 34 4 38 9 3 5 19 13 37
16 17 4 45 15 61 25 16 10 36 16 43 13 7 -2 18 -1 25 3 9 5 7 11 -6 21 -17 12
-16 13 16 14 26 0 29 2 15 8 -17 7 -18 8 -3 14 10 4 21 -1 27 -11 9 -14 10
-11 6 15 -5 27 -3 31 14 28 11 -2 20 1 20 8 0 7 3 7 9 2 10 -11 20 -77 20
-140 1 -35 4 -40 26 -41 l25 -2 0 105 c0 94 2 104 16 93 13 -11 16 -10 21 8 4
17 13 22 37 21 30 0 83 -17 60 -18 -17 -1 -37 -84 -29 -120 28 -126 204 -152
259 -37 19 40 16 92 -9 139 -11 22 -11 25 1 20 8 -3 14 0 14 5 0 6 -17 13 -37
15 -23 3 -17 4 17 3 l55 -1 3 -63 c2 -43 0 -62 -7 -57 -7 3 -11 -3 -11 -14 0
-12 5 -21 10 -21 6 0 10 -58 10 -155 l0 -155 -47 0 c-27 0 -113 5 -193 10
-120 8 -150 14 -172 30 -31 23 -38 10 -9 -19 21 -21 68 -27 279 -37 l142 -7 1
-138 c1 -77 2 -149 3 -161 1 -20 7 -23 54 -26 l53 -3 1 143 c0 79 0 160 0 181
l0 38 341 -5 c188 -3 455 -6 594 -7 l251 -1 -1 -182 -2 -181 40 -3 c22 -1 45
1 52 6 7 5 15 64 20 167 l8 159 145 3 c251 5 280 11 280 57 0 17 -2 18 -10 6
-5 -8 -13 -15 -17 -16 -4 0 -19 -3 -33 -7 -14 -3 -103 -8 -198 -11 l-173 -4 3
26 c3 25 8 27 58 33 52 5 41 11 -25 13 -28 1 -30 4 -33 46 -2 25 -1 79 3 120
7 71 8 73 20 45 44 -102 162 -122 234 -40 41 47 49 94 24 144 -24 48 -15 61
39 61 37 0 37 -1 31 -32 -7 -33 1 -33 40 1 20 17 20 20 3 -229 l-4 -55 11 48
c6 30 16 47 25 47 12 0 14 -15 9 -87 -4 -62 -3 -78 3 -53 5 19 13 88 16 152 5
74 11 115 17 111 12 -7 1 -353 -13 -428 -6 -27 -16 -91 -23 -140 -7 -50 -16
-95 -20 -101 -9 -15 -34 -20 -257 -45 -168 -20 -229 -22 -665 -19 -478 2 -903
13 -960 23 -16 3 -104 16 -195 28 -91 12 -173 25 -182 30 -11 6 -18 28 -23 74
-9 83 -21 77 -18 -9 1 -36 -3 -66 -8 -66 -5 0 -8 3 -7 8 2 4 1 8 -2 9 -3 1
-17 6 -32 12 -18 7 -28 7 -28 1 0 -6 -4 -10 -10 -10 -5 0 -10 13 -10 29 0 16
-7 34 -15 41 -12 10 -15 9 -15 -4 0 -9 -6 -16 -12 -15 -21 4 -88 -13 -88 -21
0 -4 7 -11 16 -14 14 -5 14 -9 3 -22 -10 -12 -24 -14 -65 -9 -29 3 -61 2 -71
-3 -12 -6 -28 -5 -48 4 l-30 14 40 -6 c36 -5 38 -4 22 9 -18 15 -17 16 4 22
12 4 24 3 28 -3 8 -13 61 -3 61 10 0 6 -12 8 -29 5 -19 -4 -31 -2 -34 6 -3 9
-11 9 -39 0 -19 -7 -49 -13 -66 -13 l-32 0 0 -540 0 -540 38 0 c458 0 1232
-14 1248 -22 12 -5 45 -7 73 -4 28 3 74 9 102 12 32 4 60 2 74 -6 24 -13 147
-10 178 4 10 5 17 5 16 0 -7 -42 27 -51 82 -23 41 20 44 20 71 4 32 -19 63
-13 54 10 -4 11 1 15 18 15 13 0 26 -7 30 -15 8 -21 109 -21 130 0 13 13 86
15 547 16 371 1 534 -2 538 -10 4 -6 6 -79 5 -163 l-2 -153 -53 -48 -52 -49
-431 8 c-237 4 -582 7 -766 6 -427 -3 -579 7 -680 44 -68 25 -91 28 -247 32
-148 4 -186 1 -283 -18 -61 -12 -120 -20 -130 -17 -11 3 -23 1 -26 -5 -3 -5
-23 -9 -43 -7 -20 1 -138 1 -263 0 l-228 -1 0 -50 c0 -38 4 -50 15 -50 8 0 15
-4 15 -9 0 -6 8 -10 18 -9 81 1 173 -5 177 -12 3 -5 11 -7 18 -5 29 8 167 14
167 6 0 -4 -71 -12 -157 -16 -101 -4 -161 -11 -165 -18 -6 -9 -8 -9 -8 1 0 13
-37 16 -64 6 -14 -5 -16 -40 -16 -286 0 -155 4 -277 9 -274 12 8 44 -31 36
-43 -3 -6 -15 -11 -25 -11 -19 0 -19 -14 -20 -499 0 -392 3 -500 12 -504 10
-4 10 -6 1 -6 -10 -1 -13 -102 -13 -470 l0 -468 68 -6 c37 -4 117 -7 177 -7
80 0 106 -3 95 -11 -11 -8 -2 -9 35 -4 36 4 46 3 35 -5 -8 -5 -37 -10 -65 -10
-27 0 -95 -2 -150 -4 -55 -3 -121 -5 -147 -5 -44 -1 -48 -3 -48 -26 0 -24 2
-25 69 -25 49 0 72 -4 81 -15 7 -8 20 -15 29 -15 13 1 13 3 -3 15 -19 14 -19
15 8 15 16 0 35 -8 43 -18 8 -9 12 -12 9 -5 -4 6 -1 15 5 19 9 5 3241 10 3337
5 8 -1 -21 -35 -62 -77 -42 -42 -76 -80 -76 -85 0 -6 -4 -8 -8 -5 -4 2 -28
-26 -52 -62 -25 -37 -47 -69 -50 -72 -27 -25 -59 -74 -54 -82 4 -6 3 -8 -2 -5
-6 3 -23 -15 -39 -41 -25 -39 -31 -61 -36 -132 -5 -55 -6 -20 -5 98 3 170 -3
222 -17 152 -4 -16 -9 -85 -12 -152 -7 -133 -19 -214 -36 -235 -9 -10 -15 -8
-30 11 -19 24 -59 41 -59 25 0 -5 -7 -9 -16 -9 -9 0 -22 -7 -28 -16 -6 -8 -20
-17 -31 -18 -11 -2 -19 -9 -17 -15 1 -6 -10 -11 -24 -11 -17 0 -23 4 -18 12 5
8 2 9 -9 5 -10 -3 -17 -2 -17 4 0 6 -4 7 -10 4 -12 -8 -13 7 -1 21 4 5 11 23
15 39 6 29 6 29 -9 10 -15 -19 -16 -17 -12 31 2 28 7 56 11 62 4 7 3 12 -2 12
-5 0 -14 -17 -20 -37 -17 -62 -41 -119 -43 -103 -2 22 -2 23 6 48 6 21 5 21
-19 11 -15 -7 -26 -21 -27 -33 0 -17 -3 -15 -16 12 -18 35 -38 44 -30 12 8
-30 -12 -35 -39 -9 -17 16 -24 18 -24 8 0 -48 65 -676 76 -729 2 -14 5 -62 4
-108 0 -46 4 -81 9 -77 5 3 7 15 5 28 -4 15 -1 13 9 -8 9 -19 11 -42 7 -62 -4
-17 -5 -44 -2 -59 3 -18 1 -25 -6 -20 -12 7 -29 -40 -18 -51 3 -4 6 2 7 13 1
15 3 13 9 -6 8 -25 8 -25 9 -2 1 21 2 22 17 8 19 -19 30 -20 41 -3 6 10 22 12
63 7 30 -4 48 -8 40 -9 -8 -2 -2 -7 14 -12 34 -10 48 -3 26 12 -12 8 -9 9 10
5 14 -3 37 -6 51 -6 18 0 28 -6 32 -20 3 -11 12 -20 21 -20 18 0 21 21 6 36
-7 7 2 11 30 10 31 0 42 -5 47 -21 6 -18 8 -17 14 10 6 27 7 25 8 -15 0 -29
-2 -40 -8 -31 -7 11 -10 11 -16 0 -6 -9 -10 -8 -16 7 -6 15 -8 16 -8 3 -1 -18
-5 -18 -251 -35 -47 -4 -88 -11 -92 -18 -5 -7 -8 -5 -8 6 0 11 -5 15 -15 12
-11 -5 -15 1 -16 22 -1 29 -1 29 -8 4 -4 -14 -12 -25 -18 -25 -6 0 -15 -4 -19
-8 -12 -11 16 -27 49 -27 15 0 27 -4 27 -8 0 -10 41 -9 58 1 7 5 10 13 7 18
-9 14 18 10 39 -6 11 -8 40 -15 65 -16 40 -1 42 -2 21 -10 -17 -6 -2 -7 45 -4
81 6 122 -9 56 -20 -27 -4 -41 -12 -41 -22 0 -13 -4 -13 -27 2 -41 27 -215 23
-234 -6 -6 -10 -11 -11 -16 -3 -10 14 -17 14 -234 20 l-187 6 4 36 c9 92 25
424 21 429 -8 7 -16 -79 -27 -282 -5 -99 -13 -208 -16 -243 l-6 -63 -178 2
c-98 1 -190 4 -204 6 l-25 5 40 42 c103 103 169 239 169 345 0 35 16 39 80 20
51 -15 107 -4 115 22 10 30 -8 42 -59 42 -28 0 -47 5 -50 14 -3 8 -21 13 -44
13 l-39 0 -17 61 c-9 33 -25 73 -35 87 -10 15 -33 51 -51 79 -150 243 -496
320 -747 166 -33 -21 -74 -50 -91 -64 -86 -74 -170 -229 -179 -329 -6 -69 -18
-94 -40 -86 -7 3 -13 1 -13 -5 0 -7 -7 -8 -17 -4 -10 4 -24 9 -32 13 -11 4
-12 -1 -8 -21 5 -16 2 -27 -6 -30 -6 -3 9 -6 36 -6 26 -1 50 -1 55 -2 19 -2
32 -25 38 -67 4 -26 13 -56 21 -68 7 -11 10 -24 6 -27 -3 -4 -2 -7 3 -7 5 0
10 -9 10 -20 0 -18 -6 -21 -41 -18 -38 3 -40 4 -43 41 -2 28 0 37 12 37 9 0
16 5 16 11 0 6 -10 9 -22 7 -21 -3 -23 -8 -23 -60 l0 -58 -150 -2 c-147 -3
-150 -3 -153 -25 -2 -13 -8 -23 -13 -23 -10 0 -10 132 0 225 5 46 10 59 21 57
12 -3 13 -1 3 9 -7 7 -13 26 -13 41 0 15 -4 28 -9 28 -13 0 -20 -37 -9 -48 6
-6 -3 -11 -27 -14 -20 -2 -38 0 -41 4 -3 4 -20 8 -37 8 -45 0 -14 19 33 21
l35 0 -45 15 c-25 8 -53 12 -62 10 -10 -2 -21 0 -24 5 -3 5 1 9 9 9 8 0 31 16
51 35 21 19 47 35 59 35 18 0 19 2 7 10 -11 7 -7 10 18 10 17 0 32 5 32 10 0
6 -3 9 -8 9 -4 -1 -22 -1 -39 0 -31 1 -33 3 -33 36 0 35 0 35 44 35 51 0 52 3
61 90 3 30 10 78 15 105 5 28 26 183 45 345 20 162 41 312 46 333 13 50 34 57
165 57 91 0 104 -2 104 -17 0 -16 1 -16 13 0 11 16 46 17 522 7 281 -5 574
-13 652 -16 l142 -6 4 -142 3 -141 2 144 2 144 116 -6 c125 -7 154 -18 154
-61 0 -17 2 -18 10 -6 15 23 12 66 -5 80 -27 23 -198 30 -1035 47 -195 4 -358
8 -362 9 -5 1 -97 2 -205 4 -189 2 -195 2 -138 15 33 7 65 10 71 8 18 -7 4 47
-17 68 -11 11 -19 33 -19 49 0 17 -4 30 -10 30 -5 0 -6 -8 -3 -17 5 -13 3 -15
-13 -8 -43 18 -64 18 -64 0 0 -14 3 -15 15 -5 22 18 19 -5 -3 -27 -10 -10 -23
-31 -30 -47 -12 -27 -15 -28 -55 -22 -23 3 -37 3 -32 -1 14 -11 17 -33 5 -33
-6 0 -9 -3 -9 -7 3 -19 -2 -27 -10 -14 -6 9 -11 -1 -15 -31 -4 -25 -15 -51
-26 -61 -11 -9 -20 -25 -20 -34 0 -10 -7 -27 -15 -37 -17 -22 -20 -76 -5 -76
6 0 10 -17 9 -37 -1 -34 -2 -35 -9 -13 -6 22 -8 23 -15 7 -4 -9 -14 -17 -22
-17 -13 0 -13 -3 -2 -16 11 -13 9 -14 -16 -8 -24 6 -27 4 -22 -10 7 -18 0 -20
-83 -16 -30 1 -56 6 -58 11 -2 5 -13 4 -24 -2 -16 -9 -19 -8 -13 2 6 9 3 11
-8 6 -18 -7 -24 8 -7 18 17 11 11 25 -11 25 -18 0 -20 4 -15 26 5 18 3 25 -5
22 -16 -5 -24 -64 -10 -72 12 -8 2 -46 -13 -46 -27 1 -39 18 -33 50 5 21 1 39
-9 56 -9 13 -12 24 -8 24 5 0 4 4 -3 8 -8 5 -10 25 -6 65 6 59 6 60 63 59 14
0 4 5 -22 11 l-48 10 0 43 c0 24 -5 90 -10 146 -6 57 -12 124 -15 151 l-4 47
205 0 c116 0 203 4 200 9 -3 5 -17 11 -31 13 -14 3 -22 1 -19 -4 4 -6 -68 -8
-184 -6 -134 2 -188 0 -185 -8 2 -6 -3 -17 -12 -24 -19 -16 -20 -30 -1 -30 9
0 15 -19 20 -57 6 -53 18 -270 21 -368 0 -22 3 -45 7 -50 10 -18 9 -145 -2
-145 -5 0 -10 5 -10 10 0 7 -7 7 -21 0 -19 -11 -20 -17 -14 -72 l7 -61 -48 7
c-27 4 -70 9 -96 13 l-48 6 0 51 c0 28 5 71 12 96 6 25 10 55 9 68 0 12 4 22
11 22 7 0 9 25 6 83 -3 45 -2 71 2 57 5 -18 8 -5 11 44 l4 69 -40 17 -40 17
-3 -590 c-2 -466 0 -592 10 -599 10 -6 10 -8 1 -8 -10 0 -13 -176 -13 -845 l0
-845 2954 0 2954 0 29 58 c16 31 46 82 66 112 167 253 263 340 417 378 47 11
121 30 165 41 136 34 196 40 281 30 92 -11 175 -36 171 -51 -1 -6 4 -13 12
-16 10 -3 12 0 8 11 -4 11 0 13 14 10 17 -5 17 -7 -7 -25 -24 -19 -28 -20 -87
-5 -34 9 -98 18 -142 21 -71 5 -76 4 -45 -6 l35 -12 -33 -4 c-19 -2 -50 -13
-70 -24 -21 -12 -53 -30 -74 -41 -20 -11 -34 -25 -32 -32 3 -7 -5 -15 -16 -18
-12 -3 -19 -10 -15 -16 3 -6 -1 -11 -9 -11 -12 0 -16 -11 -16 -48 0 -26 -5
-53 -12 -60 -9 -9 -9 -15 0 -24 17 -17 15 -28 -4 -28 -12 0 -14 -5 -9 -18 4
-9 13 -30 19 -47 6 -16 20 -43 30 -58 10 -15 15 -31 12 -35 -4 -4 -39 -7 -77
-7 -38 0 -69 -3 -69 -7 0 -14 26 -22 67 -19 26 1 43 -2 43 -8 0 -6 -18 -11
-40 -11 -22 0 -40 -4 -40 -9 0 -13 145 -23 280 -19 l115 3 20 60 c26 78 31 84
58 79 52 -11 96 -28 92 -35 -3 -4 3 -10 14 -14 11 -3 29 -26 41 -50 l22 -45
1239 0 1239 0 0 700 c0 385 -3 700 -6 700 -9 0 -89 -57 -103 -74 -15 -18 -31
-21 -31 -6 0 6 7 10 15 10 8 0 15 4 15 8 0 4 25 23 55 42 30 19 54 41 55 48 0
16 0 16 -120 -67 -86 -59 -308 -226 -320 -241 -3 -3 -22 -19 -43 -35 -26 -19
-41 -25 -46 -17 -3 6 -15 9 -26 7 -11 -2 -24 -4 -28 -4 -5 -1 -5 -7 -1 -13 4
-7 4 -10 -1 -6 -4 4 -14 3 -22 -3 -7 -6 -13 -7 -13 -2 0 29 220 204 509 406
l111 77 0 1570 c0 864 -2 1570 -5 1570 -3 0 -22 -11 -43 -23 -51 -32 -383
-199 -572 -287 -85 -40 -186 -87 -225 -105 -127 -59 -219 -101 -255 -115 -19
-7 -39 -17 -45 -21 -17 -12 -85 -29 -190 -49 -312 -57 -410 -73 -599 -100
-309 -44 -344 -42 -517 36 -104 47 -105 47 -145 110 -28 44 -38 52 -72 56 -68
10 -112 38 -159 102 -68 93 -115 193 -219 474 -184 495 -217 578 -280 702 -38
76 -83 147 -113 182 -89 98 -231 180 -561 321 -280 119 -307 125 -359 82 -48
-41 -100 -169 -130 -325 -19 -95 -41 -292 -41 -367 0 -73 -7 -86 -30 -58 -9
11 -11 44 -6 127 l7 113 -28 16 c-38 21 -593 360 -738 450 -71 44 -313 191
-481 293 l-91 55 -38 83 c-67 147 -145 369 -145 415 0 39 -88 274 -112 300
-29 31 -122 79 -171 88 -23 5 -37 13 -37 22 0 8 6 13 13 10 6 -3 41 -18 77
-32 36 -15 101 -42 146 -61 45 -19 86 -34 92 -34 11 0 102 -36 337 -134 61
-25 116 -46 123 -46 7 0 12 12 12 29 0 39 -9 61 -25 61 -8 0 -98 32 -202 71
-103 39 -208 74 -232 78 -24 5 -48 15 -52 24 -5 8 -28 18 -52 22 -23 4 -46 11
-52 15 -5 4 -46 20 -90 35 -44 15 -83 30 -87 34 -13 11 -20 401 -8 401 5 0 43
-9 82 -20 40 -11 81 -20 91 -20 33 0 38 31 82 540 3 36 10 107 16 159 12 107
6 156 -19 170 -10 5 -69 7 -135 4 l-117 -6 0 36 0 35 123 6 c67 3 262 11 433
17 171 5 356 12 410 14 446 17 550 17 560 4 6 -8 19 -54 28 -104 9 -49 21
-110 26 -135 5 -25 30 -162 55 -305 25 -143 54 -307 65 -365 23 -129 60 -362
60 -379 0 -18 -49 -5 -68 17 -7 9 -11 12 -7 5 14 -29 -36 -36 -224 -29 -211 8
-405 22 -438 32 -21 6 -23 3 -23 -39 0 -35 4 -47 18 -51 10 -4 128 -13 263
-21 134 -8 256 -18 272 -21 26 -6 27 -9 27 -71 0 -80 10 -99 60 -114 52 -16
64 -5 79 70 7 34 22 70 35 86 l24 28 7 -34 c3 -19 12 -69 19 -111 18 -107 54
-154 108 -140 22 5 22 13 3 122 -9 47 -29 164 -46 260 -38 222 -140 782 -175
965 -36 189 -42 270 -19 295 37 41 64 44 278 31 502 -30 979 -65 1247 -91 463
-45 821 -89 866 -105 80 -30 75 -19 334 -673 l184 -462 41 -11 c55 -15 636
-209 760 -254 239 -87 434 -162 708 -275 128 -53 128 -53 143 -32 35 50 45 55
106 49 l58 -5 0 703 0 703 -152 5 c-84 2 -173 4 -198 3 -25 0 -130 3 -235 7
-104 4 -414 10 -688 13 -273 4 -586 9 -694 13 l-196 6 -29 70 c-16 39 -38 98
-49 133 -24 72 -37 82 -117 88 -56 4 -191 19 -592 68 -215 27 -586 62 -1005
95 -752 61 -841 65 -950 44 -33 -7 -276 -24 -540 -38 -264 -14 -586 -32 -715
-40 -158 -9 -237 -10 -241 -3 -4 6 -50 7 -133 2 -112 -6 -126 -9 -126 -25 0
-18 -36 -36 -48 -24 -3 3 -1 15 6 25 7 11 12 22 12 25 0 11 -32 4 -46 -10 -9
-8 -26 -15 -40 -15 -21 0 -24 4 -24 38 0 37 -1 38 -30 34 -16 -2 -30 -8 -30
-13 0 -5 -27 -6 -59 -3 -75 8 -118 -1 -101 -21 6 -7 10 -29 8 -47 l-3 -33 -70
0 -70 0 -9 45 c-5 25 -13 47 -16 50 -4 3 -15 49 -25 103 l-18 98 22 15 c12 9
21 26 21 40 0 28 -12 31 -34 9 -16 -17 -18 -11 -43 100 l-9 40 -129 8 c-72 4
-384 9 -695 10 l-565 2 -46 -230 c-25 -126 -49 -240 -53 -253 -7 -22 -11 -23
-109 -20 l-102 3 -6 67 c-3 38 -9 71 -13 75 -5 5 -6 -13 -4 -39 5 -48 5 -48
-26 -48 -24 0 -27 3 -16 10 12 8 11 10 -7 10 -21 0 -23 4 -23 62 0 83 -11 68
-14 -21 -3 -80 -16 -110 -16 -37 0 26 -4 45 -8 42 -5 -3 -8 -20 -7 -39 2 -30
-1 -34 -22 -34 -12 0 -23 5 -23 12 0 7 -7 16 -16 19 -23 9 -31 7 -14 -4 26
-16 2 -22 -47 -11 -26 6 -69 13 -95 15 -51 4 -68 11 -69 29 0 7 -14 23 -32 37
l-32 25 29 -35 c35 -42 28 -45 -69 -28 l-70 13 -5 279 c-4 215 -2 282 7 292 9
8 9 14 2 16 -6 2 -13 42 -16 90 l-6 87 47 -1 c26 0 50 2 53 6 4 3 -15 6 -41 6
-32 0 -48 5 -52 15 -20 52 -24 -30 -22 -492z m1024 42 c-21 -7 -42 -19 -47
-26 -9 -15 -69 -324 -69 -355 0 -47 22 -52 220 -56 179 -3 188 -4 260 -33 70
-28 73 -30 45 -36 -25 -6 -22 -7 18 -8 41 -1 47 2 47 19 0 12 -10 25 -25 32
-14 6 -25 14 -25 17 0 3 91 5 202 3 190 -2 207 -4 268 -28 36 -14 73 -30 83
-35 10 -5 22 -7 27 -4 19 12 10 36 -17 48 -24 10 0 13 155 17 197 5 208 9 198
60 -3 14 -17 92 -32 175 -14 82 -30 158 -35 167 -11 20 -33 27 -109 31 -46 3
-42 4 21 5 116 3 110 15 169 -301 27 -147 50 -276 50 -286 0 -29 95 -83 155
-88 49 -4 63 -13 87 -56 9 -18 5 -19 -76 -12 -56 5 -86 4 -86 -3 0 -13 31 -21
118 -29 56 -5 77 -10 85 -25 8 -11 24 -18 44 -18 17 0 34 -4 37 -9 11 -16 -77
-22 -259 -15 -167 6 -184 9 -188 26 -4 14 -15 18 -46 18 -35 0 -41 -3 -41 -22
l0 -21 -532 6 c-293 4 -568 7 -610 7 -71 0 -78 2 -78 20 0 16 -7 20 -35 20
-19 0 -38 1 -42 3 -5 1 -9 -8 -11 -20 -3 -23 -4 -23 -204 -23 -201 0 -278 10
-278 36 0 7 5 16 12 20 7 4 8 3 4 -4 -12 -20 67 -11 82 10 11 15 27 18 90 18
67 1 112 13 112 31 0 2 -36 3 -80 1 -85 -4 -88 -1 -68 43 10 23 17 25 70 25
57 0 63 4 59 38 -1 7 10 12 26 13 15 1 34 2 42 3 11 1 30 75 72 283 31 155 59
289 63 298 7 19 41 34 81 34 29 0 29 0 -9 -14z m412 8 c-64 -2 -172 -2 -240 0
-68 1 -15 3 117 3 132 0 187 -2 123 -3z m625 -10 c-40 -2 -107 -2 -150 0 -43
1 -10 3 72 3 83 0 118 -2 78 -3z m-1030 -233 c-6 -118 -6 -120 15 -120 12 0
22 -4 22 -9 0 -8 -99 -26 -106 -18 -2 2 4 14 15 26 10 12 22 43 25 69 13 92
28 172 32 172 2 0 1 -54 -3 -120z m1226 5 c7 -49 14 -98 17 -107 4 -13 0 -18
-14 -18 -17 0 -20 10 -26 92 -3 50 -6 105 -6 122 1 56 17 6 29 -89z m-2124
-141 c70 -10 75 -13 75 -45 0 -22 -5 -29 -19 -29 -11 0 -22 4 -25 8 -3 5 -32
8 -66 7 l-60 -2 0 39 c0 38 1 39 28 34 15 -3 45 -8 67 -12z m2153 -16 c3 -15
-4 -18 -41 -18 -45 0 -47 2 -38 38 1 2 18 2 38 0 27 -2 39 -8 41 -20z m-1912
-31 c9 -9 -16 -26 -46 -31 -24 -3 -40 0 -52 11 -14 13 -20 13 -33 3 -10 -9
-15 -9 -16 -1 -1 6 -2 17 -3 24 -1 6 -1 15 1 18 2 6 142 -16 149 -24z m2414
-19 c0 -39 -1 -41 -14 -23 -7 11 -16 30 -20 43 -6 18 -4 22 13 22 18 0 21 -6
21 -42z m-2210 12 c0 -5 -7 -10 -15 -10 -8 0 -15 5 -15 10 0 6 7 10 15 10 8 0
15 -4 15 -10z m40 -16 c0 -22 -2 -25 -15 -14 -8 7 -15 19 -15 26 0 8 7 14 15
14 10 0 15 -10 15 -26z m-180 6 c0 -5 -7 -10 -15 -10 -8 0 -15 5 -15 10 0 6 7
10 15 10 8 0 15 -4 15 -10z m-285 -67 c20 -15 19 -15 -5 -9 -14 3 -47 6 -75 7
l-50 2 50 7 c28 4 52 7 55 8 3 1 14 -6 25 -15z m502 -23 c2 -11 -2 -20 -7 -20
-6 0 -10 12 -10 27 0 29 12 24 17 -7z m38 -8 c-22 -5 -29 3 -21 25 7 17 8 17
22 -2 13 -18 13 -20 -1 -23z m-85 19 c0 -12 -29 -23 -41 -15 -16 10 -9 20 16
22 14 1 25 -2 25 -7z m220 -11 c0 -5 -2 -10 -4 -10 -3 0 -8 5 -11 10 -3 6 -1
10 4 10 6 0 11 -4 11 -10z m-388 -64 c11 -16 10 -36 -2 -36 -6 0 -10 8 -8 18
3 14 -5 17 -46 16 -39 0 -45 2 -33 11 19 13 79 7 89 -9z m87 -5 c3 -1 -4 -8
-15 -16 -24 -18 -54 -19 -54 -1 0 20 23 26 69 17z m196 -1 c3 -5 -1 -10 -9
-10 -8 0 -18 5 -21 10 -3 6 1 10 9 10 8 0 18 -4 21 -10z m-605 -94 c0 -11 -19
-15 -25 -6 -3 5 1 10 9 10 9 0 16 -2 16 -4z m3094 -91 c3 -8 1 -15 -4 -15 -6
0 -10 7 -10 15 0 8 2 15 4 15 2 0 6 -7 10 -15z m-2876 -41 c42 -12 22 -19 -40
-15 -56 4 -59 5 -28 12 19 3 37 7 40 8 3 0 15 -2 28 -5z m2892 -14 c0 -5 -4
-10 -9 -10 -6 0 -13 5 -16 10 -3 6 1 10 9 10 9 0 16 -4 16 -10z m-2443 -26
c-3 -3 -12 -4 -19 -1 -8 3 -5 6 6 6 11 1 17 -2 13 -5z m-270 -26 c-3 -8 -6 -5
-6 6 -1 11 2 17 5 13 3 -3 4 -12 1 -19z m245 1 c-18 -6 -35 -16 -39 -24 -7
-21 -18 -19 -20 4 -2 21 14 29 62 29 l30 0 -33 -9z m1193 -28 c138 -5 251 -10
253 -10 1 -1 2 -8 2 -16 0 -13 -32 -15 -222 -13 -214 1 -223 0 -220 -18 3 -15
-1 -13 -17 8 -26 32 -73 49 -124 44 -38 -4 -87 -29 -87 -46 0 -4 -7 -16 -16
-25 -21 -20 -20 -79 1 -111 47 -72 155 -85 205 -25 31 36 44 40 35 10 l-7 -22
217 4 c216 4 218 4 226 -18 8 -21 6 -22 -69 -21 -42 0 -162 -3 -267 -7 -176
-7 -680 7 -748 21 -19 4 -27 11 -25 22 3 15 24 17 211 13 198 -4 207 -3 207
15 0 41 -10 43 -195 49 -212 7 -225 9 -225 34 0 18 10 18 199 13 l199 -5 16
31 c9 17 16 35 16 39 0 4 -95 8 -210 9 -116 1 -213 4 -217 7 -17 18 27 22 243
23 129 1 238 4 242 8 4 4 34 5 67 2 33 -3 173 -10 310 -15z m-1258 -26 c8 -9
13 -19 9 -22 -7 -7 -36 16 -36 28 0 13 10 11 27 -6z m187 -35 c7 -39 -6 -72
-40 -99 -35 -28 -124 -28 -124 0 0 6 8 5 19 -1 24 -12 81 -13 81 -1 0 13 -22
27 -52 35 -16 3 -28 13 -28 22 0 13 -5 12 -29 -5 -15 -11 -31 -18 -35 -14 -12
12 -6 22 17 25 16 2 21 9 19 22 -3 16 -1 18 10 9 16 -13 90 -34 84 -24 -3 4 4
16 16 25 17 15 20 15 15 3 -6 -17 19 -32 28 -16 4 5 3 18 0 29 -4 11 -2 20 3
20 5 0 12 -14 16 -30z m8571 -22 c-8 -50 -29 -77 -57 -75 -18 1 -19 6 -13 51
8 63 10 66 46 66 31 0 31 0 24 -42z m-8788 10 c-3 -8 -6 -5 -6 6 -1 11 2 17 5
13 3 -3 4 -12 1 -19z m1700 -10 c-3 -7 -5 -2 -5 12 0 14 2 19 5 13 2 -7 2 -19
0 -25z m238 22 c-3 -5 -11 -10 -16 -10 -6 0 -7 5 -4 10 3 6 11 10 16 10 6 0 7
-4 4 -10z m-48 -34 c-3 -8 -1 -17 6 -19 8 -3 5 -10 -8 -20 -11 -8 -22 -13 -25
-10 -3 3 1 8 8 10 6 3 12 9 12 15 0 6 -6 6 -15 -2 -8 -7 -24 -10 -36 -7 -15 4
-19 2 -15 -9 3 -8 -5 -21 -21 -31 -25 -16 -26 -16 -44 6 -11 13 -19 35 -19 50
l1 26 25 -28 c20 -24 27 -27 39 -17 8 7 13 15 10 19 -2 4 9 6 24 3 18 -2 34 2
42 12 18 19 23 20 16 2z m-355 -29 c4 -7 8 -15 8 -19 0 -5 -96 -8 -214 -8
l-213 0 -1 23 0 22 207 -3 c145 -2 208 -7 213 -15z m-505 -30 c42 -28 34 -34
-17 -13 -39 16 -44 15 -87 -4 -25 -11 -48 -18 -50 -16 -2 2 15 18 39 34 47 34
63 33 115 -1z m906 9 c-14 -26 -37 -46 -52 -46 -11 0 -8 6 10 18 14 9 24 22
22 28 -2 6 3 11 11 11 8 0 12 -5 9 -11z m-353 -94 c0 -15 -2 -15 -10 -2 -13
20 -13 33 0 25 6 -3 10 -14 10 -23z m-13 -56 l-1 -35 -588 3 c-324 2 -592 6
-596 10 -22 23 61 25 586 19 545 -6 563 -6 576 13 8 10 12 23 9 28 -4 5 -1 6
4 3 6 -4 11 -22 10 -41z m-33 -65 c16 -4 32 -13 34 -21 4 -11 -81 -12 -539 -7
-570 7 -663 12 -636 31 17 13 1090 10 1141 -3z m5535 -145 c14 -17 23 -168 9
-164 -12 4 -98 200 -92 210 5 8 67 -26 83 -46z m-7389 -184 c0 -13 -12 -22
-22 -16 -10 6 -1 24 13 24 5 0 9 -4 9 -8z m-162 -70 c2 -7 -3 -12 -12 -12 -9
0 -16 7 -16 16 0 17 22 14 28 -4z m-38 -22 c12 -8 9 -10 -12 -10 -16 0 -28 5
-28 10 0 13 20 13 40 0z m334 -70 c0 -26 4 -44 7 -38 4 5 9 -1 11 -14 3 -12
13 -40 22 -61 9 -22 12 -36 7 -32 -17 10 -13 -17 6 -37 14 -16 15 -20 2 -33
-16 -16 -159 -48 -197 -43 -46 5 -33 32 21 42 26 5 47 12 47 15 0 3 -26 7 -57
9 -52 3 -111 31 -112 55 -1 6 -14 23 -48 58 -4 5 -19 18 -33 28 -39 31 -18 51
81 75 58 15 75 22 57 24 -16 2 -28 7 -28 12 0 5 15 4 32 -1 47 -13 115 -11
121 4 4 9 8 9 15 -1 7 -11 11 -10 16 5 7 17 8 17 18 0 5 -11 11 -41 12 -67z
m2825 -136 c48 -24 79 -47 92 -68 21 -34 89 -238 89 -268 0 -49 111 -353 190
-521 23 -49 39 -91 36 -94 -15 -15 -169 44 -188 72 -15 21 -278 646 -278 661
0 4 -12 25 -26 45 -22 32 -26 51 -29 116 -1 43 0 81 2 86 8 15 42 6 112 -29z
m-2724 -52 c-7 -8 -35 7 -35 18 0 6 7 6 20 -2 10 -7 17 -14 15 -16z m2755
-771 c0 -12 -26 -32 -33 -25 -9 10 4 34 19 34 8 0 14 -4 14 -9z m-23 -48 c4
-9 1 -19 -5 -21 -7 -2 -10 -8 -6 -13 3 -5 0 -9 -6 -9 -14 0 -24 26 -16 45 7
20 25 19 33 -2z m266 -148 c19 -8 64 -36 99 -63 34 -27 83 -62 108 -78 25 -16
47 -31 50 -34 3 -3 41 -29 85 -59 44 -30 107 -73 140 -96 133 -93 234 -162
305 -210 94 -64 310 -214 458 -318 106 -74 131 -103 86 -101 -10 0 -118 70
-239 155 -121 85 -265 185 -320 222 -55 38 -163 113 -240 168 -126 90 -362
255 -519 364 -83 57 -89 82 -13 50z m-283 -105 l-7 -105 -2 92 c-1 79 5 131
14 121 2 -2 0 -50 -5 -108z m405 89 c4 -6 5 -13 2 -16 -8 -7 -47 7 -47 18 0
13 37 11 45 -2z m-481 -109 c19 0 50 -60 37 -73 -8 -8 -5 -17 11 -34 12 -13
18 -26 15 -30 -11 -10 -45 27 -57 62 -10 32 -11 32 -63 27 l-52 -4 35 31 c19
16 41 28 48 26 8 -3 19 -5 26 -5z m-2371 -27 c-7 -2 -21 -2 -30 0 -10 3 -4 5
12 5 17 0 24 -2 18 -5z m2498 -86 c-13 -13 -26 -3 -16 12 3 6 11 8 17 5 6 -4
6 -10 -1 -17z m-503 -4 l172 -6 0 -32 c0 -26 12 -43 69 -98 38 -37 75 -67 83
-67 7 0 -3 14 -22 31 -110 96 -121 109 -118 137 3 24 8 28 53 34 28 3 65 4 83
1 31 -5 32 -7 34 -57 2 -64 -3 -200 -8 -205 -6 -6 -144 31 -144 39 0 4 -28 10
-62 14 -35 4 -74 9 -88 10 -14 2 -35 4 -48 5 -13 1 -21 5 -18 9 3 5 -16 8 -42
8 -26 0 -60 3 -77 8 -26 6 -27 9 -12 17 20 11 23 64 5 75 -6 4 -14 2 -16 -4
-5 -15 -52 -16 -52 -2 0 6 10 11 23 11 l22 2 -22 4 c-30 6 -63 -14 -63 -37 0
-18 -9 -24 -27 -17 -4 1 -6 10 -5 19 5 27 -64 88 -98 88 -29 0 -30 -2 -30 -45
0 -33 -4 -45 -15 -45 -9 0 -15 10 -16 28 -1 15 -3 20 -6 11 -3 -13 -13 -15
-51 -11 -26 2 -52 9 -59 14 -7 5 -17 7 -24 3 -6 -4 -26 -9 -44 -12 l-33 -4 8
35 c7 34 6 36 -16 36 -22 0 -24 -3 -18 -27 7 -26 6 -27 -12 -13 -10 8 -21 16
-23 17 -2 1 2 9 9 18 11 13 52 15 274 15 143 0 339 -3 434 -7z m-735 -20 c-7
-2 -19 -2 -25 0 -7 3 -2 5 12 5 14 0 19 -2 13 -5z m-1755 -156 c-9 -8 -26 -24
-38 -38 -19 -22 -20 -22 -11 -2 16 31 14 35 -9 16 -23 -20 -60 -24 -60 -7 0
13 77 41 115 43 18 0 19 -1 3 -12z m-138 -24 c0 -3 -11 -21 -25 -39 -28 -37
-32 -56 -10 -48 8 4 15 1 15 -4 0 -6 -17 -11 -38 -10 -21 0 -54 -3 -72 -7 -23
-5 -30 -4 -26 4 4 6 16 11 27 11 10 0 19 7 19 15 0 8 5 15 12 15 6 0 9 3 6 6
-11 10 37 50 55 46 9 -3 17 1 17 7 0 6 5 11 10 11 6 0 10 -3 10 -7z m132 -15
c-7 -7 -12 -8 -12 -2 0 14 12 26 19 19 2 -3 -1 -11 -7 -17z m878 -23 c0 -2 -5
-15 -12 -29 -10 -24 -12 -24 -24 -8 -21 26 -16 42 11 42 14 0 25 -2 25 -5z
m1044 -1 c18 -7 10 -31 -15 -45 -13 -6 -25 -6 -38 3 -19 11 -19 14 -4 30 17
19 31 22 57 12z m-2024 -44 c0 -5 -10 -10 -22 -9 -22 0 -22 1 -3 9 11 5 21 9
23 9 1 1 2 -3 2 -9z m885 -12 c-41 -15 -41 -15 -15 -43 24 -26 23 -29 -4 -19
-9 3 -16 12 -16 20 0 19 -66 22 -100 4 -8 -4 -40 -10 -70 -14 l-55 -6 60 19
c33 10 72 23 87 29 15 6 34 9 41 6 7 -2 24 0 38 5 13 5 33 10 44 10 14 -1 11
-4 -10 -11z m481 -48 c6 -6 9 -32 6 -59 l-4 -47 76 2 c86 3 96 7 96 35 0 10 4
19 10 19 5 0 7 -13 4 -30 -4 -16 -4 -40 -1 -52 6 -22 11 -24 75 -22 38 1 79 7
91 14 12 6 32 13 44 16 12 2 23 8 25 14 2 5 8 10 14 10 6 0 7 -7 4 -16 -5 -14
-4 -15 9 -4 14 12 14 15 -1 39 -42 67 -51 71 -143 72 -47 0 -95 4 -106 9 -13
5 23 9 98 9 124 1 120 2 161 -54 10 -15 24 -19 57 -18 24 1 47 -3 52 -10 5 -7
6 0 2 17 -5 26 -4 28 9 17 9 -8 16 -19 16 -26 0 -6 10 -32 23 -56 13 -24 29
-71 36 -104 7 -33 22 -79 33 -103 23 -47 20 -66 -6 -28 -20 32 -62 43 -201 51
-168 10 -623 7 -783 -5 -151 -11 -196 -24 -207 -61 -4 -11 -9 -18 -13 -15 -5
6 4 39 39 146 37 114 70 168 87 144 10 -14 46 -14 54 -1 6 9 8 9 8 -1 0 -7 4
-11 9 -8 5 3 8 -9 7 -27 l-1 -32 153 0 152 0 0 51 0 52 -74 -5 c-55 -3 -81 -1
-103 11 -27 15 -24 15 72 16 99 0 149 12 113 25 -10 4 -62 5 -118 3 -90 -3
-101 -5 -116 -26 -8 -12 -20 -20 -25 -16 -16 9 30 52 60 57 57 9 198 6 207 -3z
m1137 -15 c-22 -17 -30 -11 -13 10 7 8 17 12 22 9 5 -3 1 -12 -9 -19z m167
-20 c0 -8 -4 -15 -10 -15 -5 0 -10 7 -10 15 0 8 5 15 10 15 6 0 10 -7 10 -15z
m-1670 -9 c0 -7 -6 -19 -14 -25 -11 -9 -12 -6 -8 14 5 26 22 35 22 11z m765 4
c4 -6 -28 -10 -90 -10 -62 0 -94 4 -90 10 3 6 44 10 90 10 46 0 87 -4 90 -10z
m825 -65 c0 -16 -6 -25 -15 -25 -28 0 -18 40 13 49 1 1 2 -10 2 -24z m237 -7
c-3 -8 -6 -5 -6 6 -1 11 2 17 5 13 3 -3 4 -12 1 -19z m-87 -48 c-6 -12 -27
-28 -46 -36 -45 -19 -43 -24 7 -19 23 2 46 11 54 21 7 11 19 15 29 11 14 -6
15 -10 5 -29 -9 -16 -9 -23 0 -26 6 -2 11 -8 11 -13 0 -6 -8 -6 -19 1 -26 14
-31 13 -31 -6 0 -8 4 -13 9 -9 5 3 12 2 14 -3 3 -4 26 -7 51 -6 26 1 49 -2 52
-7 3 -5 9 -7 14 -4 4 3 13 -2 20 -10 16 -20 34 -19 26 1 -3 8 -2 12 4 9 11 -7
13 -39 4 -71 -4 -15 -16 -23 -35 -26 -16 -3 -29 -1 -29 3 0 4 -31 10 -69 14
l-70 7 -3 36 c-3 33 -6 37 -28 35 -50 -4 -68 6 -80 44 -7 21 -16 42 -21 48
-15 16 -10 22 16 17 34 -6 67 4 95 28 28 24 36 20 20 -10z m143 3 c-7 -2 -19
-2 -25 0 -7 3 -2 5 12 5 14 0 19 -2 13 -5z m-38 -33 c3 -5 2 -10 -4 -10 -5 0
-13 5 -16 10 -3 6 -2 10 4 10 5 0 13 -4 16 -10z m42 4 c-3 -3 -12 -4 -19 -1
-8 3 -5 6 6 6 11 1 17 -2 13 -5z m-7 -34 c0 -5 -4 -10 -10 -10 -5 0 -10 5 -10
10 0 6 5 10 10 10 6 0 10 -4 10 -10z m-160 -100 c0 -5 -7 -10 -15 -10 -8 0
-15 5 -15 10 0 6 7 10 15 10 8 0 15 -4 15 -10z m-1447 -39 c5 -22 13 -31 22
-27 8 3 17 1 20 -4 4 -6 18 -4 36 5 16 9 29 12 29 7 0 -4 6 -16 13 -26 12 -16
14 -16 36 3 17 15 27 18 40 10 12 -8 40 -3 111 21 126 42 178 51 210 35 14 -7
53 -16 88 -20 64 -7 73 -14 47 -35 -8 -7 -13 -16 -10 -20 10 -16 85 -49 100
-44 14 6 21 -16 16 -53 -1 -7 8 -13 19 -13 13 0 20 -5 17 -12 -2 -8 -17 -12
-38 -10 -43 5 -48 10 -26 27 15 11 16 13 2 19 -11 4 -19 -2 -25 -19 -13 -34
-30 -31 -30 4 0 34 -13 38 -119 40 -36 1 -70 5 -75 10 -16 11 -51 -11 -51 -31
0 -29 -20 -26 -23 3 -2 17 -13 31 -30 40 l-27 13 35 4 c19 2 40 8 45 14 14 14
-94 0 -120 -16 -11 -7 -33 -16 -49 -20 -15 -4 -49 -17 -75 -29 -29 -14 -65
-22 -98 -22 -42 0 -49 -2 -40 -13 8 -10 23 -12 50 -8 41 7 94 -15 82 -34 -8
-14 -5 -13 40 10 46 23 95 26 133 6 15 -8 44 -17 65 -21 20 -4 34 -11 32 -16
-3 -4 -13 -5 -22 -2 -12 5 -15 2 -10 -10 8 -20 -9 -23 -20 -3 -7 12 -64 46
-78 46 -9 0 16 -23 48 -43 22 -14 27 -25 27 -57 0 -21 -5 -42 -12 -46 -7 -5
-8 -3 -3 7 8 12 6 12 -8 0 -15 -12 -17 -11 -17 2 0 19 -37 47 -62 47 -30 0
-61 -38 -56 -70 3 -22 0 -30 -16 -34 -28 -8 -46 18 -47 68 0 30 -3 36 -8 22
-7 -18 -8 -18 -14 -2 -4 10 -7 29 -7 43 0 19 -4 24 -16 19 -9 -4 -23 -1 -30 5
-10 8 -14 8 -14 1 0 -6 -7 -9 -15 -6 -8 4 -15 10 -15 15 0 4 7 6 15 3 19 -8
19 5 0 26 -12 14 -24 15 -63 9 -26 -4 -53 -8 -59 -8 -7 -1 -19 -16 -26 -33
-18 -42 -78 -68 -102 -44 -20 20 -19 23 10 30 32 8 53 -2 34 -16 -11 -8 -11
-9 1 -5 25 6 19 42 -7 41 -13 0 -23 5 -23 12 0 6 -7 15 -16 18 -8 3 -12 2 -9
-4 4 -6 -8 -10 -29 -10 -19 0 -38 -4 -41 -10 -3 -5 -20 -7 -37 -3 -22 4 -29 3
-24 -5 10 -16 7 -15 -39 8 -22 11 -45 20 -52 20 -7 0 -13 4 -13 9 0 14 50 51
69 51 9 1 25 15 36 32 35 54 92 85 180 99 44 7 87 18 95 26 21 19 33 12 43
-26z m792 -90 c3 -5 1 -12 -4 -15 -5 -3 -11 1 -15 9 -6 16 9 21 19 6z m3200
-7 l40 -14 -47 5 -47 5 10 -27 c11 -30 76 -110 153 -190 28 -29 46 -53 40 -53
-11 0 -101 98 -165 180 -30 39 -59 90 -59 105 0 9 34 4 75 -11z m-3607 -36
c-3 -9 -26 -13 -68 -13 -42 0 -65 4 -67 13 -4 9 14 12 67 12 53 0 71 -3 68
-12z m-193 -18 c-3 -5 -10 -10 -16 -10 -5 0 -9 5 -9 10 0 6 7 10 16 10 8 0 12
-4 9 -10z m384 -36 c2 -2 -12 -4 -33 -4 -21 0 -46 -4 -56 -10 -14 -7 -24 -5
-42 10 l-23 20 75 -7 c41 -3 77 -7 79 -9z m-959 -43 c14 -10 26 -27 28 -37 3
-17 2 -16 -13 3 -18 26 -91 51 -105 37 -5 -5 -11 -21 -15 -35 -6 -24 -2 -28
50 -53 31 -14 61 -23 67 -20 6 4 9 1 6 -7 -7 -21 -78 -58 -125 -65 -56 -8
-104 1 -131 27 -21 19 -31 46 -14 35 5 -3 34 8 66 23 49 23 61 34 71 65 l13
37 -31 -6 c-18 -4 -47 -16 -65 -26 -37 -21 -46 -24 -37 -9 9 14 63 42 100 51
42 10 105 1 135 -20z m377 23 c-3 -3 -12 -4 -19 -1 -8 3 -5 6 6 6 11 1 17 -2
13 -5z m733 -20 c0 -31 -23 -28 -28 4 -2 15 2 22 12 22 11 0 16 -9 16 -26z
m-930 -29 c0 -8 -5 -15 -10 -15 -6 0 -4 -13 5 -30 8 -16 21 -27 28 -24 7 2 13
-4 14 -16 1 -11 -4 -20 -13 -20 -8 0 -14 6 -14 14 0 17 -60 71 -92 82 -20 7
-17 9 22 15 25 3 48 7 53 7 4 1 7 -5 7 -13z m4211 -108 c31 -43 79 -103 108
-133 47 -49 58 -71 21 -41 -47 37 -221 271 -219 294 0 4 8 -3 17 -17 9 -13 42
-60 73 -103z m-2447 97 c3 -8 2 -12 -4 -9 -6 3 -10 10 -10 16 0 14 7 11 14 -7z
m-1634 1 c0 -2 -10 -10 -22 -16 -21 -11 -22 -11 -9 4 13 16 31 23 31 12z
m-1387 -28 c4 3 7 -1 7 -11 0 -9 5 -14 10 -11 6 3 10 1 10 -4 0 -6 -7 -11 -15
-11 -8 0 -15 -5 -15 -11 0 -7 12 -9 35 -5 27 5 35 4 35 -7 0 -8 7 -21 16 -28
13 -11 15 -24 10 -68 -4 -30 -11 -60 -17 -67 -12 -15 -49 -6 -49 12 0 8 -13
54 -30 104 -34 101 -38 129 -17 111 8 -6 17 -8 20 -4z m1767 -17 c-15 -3 -27
-15 -31 -30 l-7 -25 -1 27 c-1 30 23 50 48 40 12 -5 10 -8 -9 -12z m660 0 c0
-4 -28 -6 -62 -5 -91 4 -100 7 -38 14 60 7 100 3 100 -9z m-1204 -13 c10 -2
15 -27 5 -27 -13 0 -31 24 -31 40 0 12 2 12 9 2 4 -8 12 -14 17 -15z m130 -3
c-30 -21 -45 -16 -16 6 14 10 27 16 30 13 3 -2 -4 -11 -14 -19z m134 16 c13
-9 13 -10 0 -10 -8 0 -22 5 -30 10 -13 9 -13 10 0 10 8 0 22 -5 30 -10z m491
-31 c-29 -27 -38 -18 -15 16 12 18 20 23 27 16 8 -8 4 -17 -12 -32z m419 -39
c12 -8 11 -10 -7 -10 -13 0 -23 5 -23 10 0 13 11 13 30 0z m-50 -10 c0 -5 -4
-10 -10 -10 -5 0 -10 5 -10 10 0 6 5 10 10 10 6 0 10 -4 10 -10z m3409 -175
c1 -5 -6 -2 -15 7 -10 9 -13 21 -8 29 5 9 9 8 15 -7 4 -10 8 -23 8 -29z
m-4050 -35 c91 -25 101 -25 145 5 43 29 46 30 46 11 0 -7 11 -30 25 -50 14
-20 25 -41 25 -47 0 -6 -67 -8 -185 -5 -156 4 -187 2 -200 -10 -21 -22 -10
-34 31 -34 61 0 84 -44 29 -54 -32 -6 -50 -26 -24 -26 6 0 9 -7 6 -15 -4 -8
-2 -17 4 -21 6 -3 3 -11 -8 -20 -23 -17 -127 -18 -141 -1 -12 14 -5 64 11 74
6 4 8 0 4 -11 -5 -12 -3 -17 9 -14 8 2 15 6 15 11 -1 4 -1 18 -1 32 0 19 -5
25 -22 26 -13 0 -17 3 -10 6 6 2 12 14 12 24 0 11 11 30 25 42 14 12 33 38 43
57 19 39 59 65 78 49 7 -5 44 -19 83 -29z m4044 8 c11 -14 18 -30 16 -36 -2
-5 -17 8 -32 30 -31 43 -16 49 16 6z m87 -32 c0 -28 -16 -8 -24 29 -6 28 -5
29 9 11 8 -11 15 -29 15 -40z m-5666 3 c4 -20 19 -32 65 -52 32 -14 62 -30 66
-36 3 -6 13 -11 21 -11 8 0 34 -9 57 -19 23 -10 51 -21 62 -25 11 -3 1 -3 -23
0 -24 2 -51 8 -60 13 -9 5 -50 23 -90 42 -94 43 -122 74 -112 124 2 12 5 3 14
-36z m115 -8 c-6 -18 -14 -30 -17 -27 -2 3 1 19 8 36 16 40 23 33 9 -9z m5415
-6 c11 -8 16 -18 12 -22 -3 -4 -16 3 -28 15 -25 25 -13 29 16 7z m-298 -4 c5
-5 20 -11 34 -13 23 -3 20 -6 -29 -45 -59 -48 -81 -55 -58 -20 8 12 18 37 21
55 8 33 15 39 32 23z m469 -51 c10 -11 14 -20 9 -20 -5 0 -15 9 -22 20 -7 11
-11 20 -9 20 2 0 12 -9 22 -20z m-5709 -17 c-7 -7 -26 7 -26 19 0 6 6 6 15 -2
9 -7 13 -15 11 -17z m3304 18 c0 -6 -17 -7 -37 -4 -52 8 -54 13 -5 13 23 0 42
-4 42 -9z m2262 -64 c9 -4 7 -6 -4 -6 -10 -1 -24 12 -33 29 -21 41 -19 51 4
14 11 -18 25 -34 33 -37z m-3882 44 c48 -1 25 -20 -30 -25 -48 -4 -90 7 -90
24 0 7 16 9 43 6 23 -3 58 -5 77 -5z m180 -11 c10 -5 21 -21 24 -35 7 -27 39
-45 134 -75 23 -7 40 -15 38 -18 -5 -5 -103 24 -129 39 -14 8 -23 6 -35 -4
-10 -8 -27 -18 -39 -21 -11 -4 -24 -13 -27 -22 -5 -13 -9 -13 -31 2 -14 9 -32
14 -40 10 -8 -3 -15 -1 -15 4 0 6 4 10 9 10 5 0 8 8 7 18 -1 13 10 19 47 26
28 6 47 15 47 23 0 7 -7 13 -15 13 -8 0 -15 2 -15 4 0 2 -3 11 -6 20 -7 18 17
22 46 6z m-175 -40 c4 -6 -9 -10 -32 -10 -21 0 -55 -3 -75 -6 -31 -5 -38 -4
-38 10 0 13 12 16 69 16 39 0 73 -4 76 -10z m4086 -7 c13 -16 12 -17 -3 -4
-10 7 -18 15 -18 17 0 8 8 3 21 -13z m-4028 0 c-7 -2 -21 -2 -30 0 -10 3 -4 5
12 5 17 0 24 -2 18 -5z m-1416 -9 c-3 -3 -12 -4 -19 -1 -8 3 -5 6 6 6 11 1 17
-2 13 -5z m4953 -55 c0 -9 -7 -22 -15 -29 -13 -10 -17 -7 -29 21 -13 31 -13
35 2 47 14 11 19 10 29 -5 7 -9 13 -24 13 -34z m-4037 31 c10 0 16 -4 13 -9
-4 -5 -1 -11 6 -13 7 -3 9 -14 5 -30 -5 -20 -12 -25 -27 -21 -11 3 -27 14 -34
25 -10 13 -15 15 -18 7 -3 -9 -11 -6 -25 8 l-21 21 22 11 c11 5 30 8 41 6 11
-3 28 -5 38 -5z m4277 0 c0 -5 -4 -10 -10 -10 -5 0 -10 5 -10 10 0 6 5 10 10
10 6 0 10 -4 10 -10z m314 -21 c38 -22 44 -29 24 -29 -13 1 -78 50 -66 50 4 0
23 -9 42 -21z m-4184 1 c-13 -8 -12 -10 3 -10 39 0 13 -18 -35 -24 -76 -9
-108 -7 -108 4 0 6 12 10 26 10 14 0 23 4 19 10 -8 13 11 13 34 0 13 -6 24 -5
37 5 11 8 24 14 29 15 6 0 3 -5 -5 -10z m-580 -4 c0 -3 -4 -8 -10 -11 -5 -3
-10 -1 -10 4 0 6 5 11 10 11 6 0 10 -2 10 -4z m4471 -151 l-8 -80 -2 96 c0 53
2 99 7 103 11 12 13 -32 3 -119z m-3317 79 c29 -25 29 -26 6 -19 -66 20 -75
26 -60 35 20 13 18 14 54 -16z m182 -96 c-30 -57 -30 -57 -49 -37 -18 19 -18
21 8 65 14 24 30 42 35 39 6 -4 7 8 4 27 l-6 33 19 -35 20 -35 -31 -57z
m-1701 75 c-4 -21 -11 -43 -15 -49 -5 -6 -3 -37 6 -74 16 -70 30 -97 21 -40
-6 35 -5 35 7 8 17 -39 74 -95 103 -103 13 -3 22 -9 19 -13 -2 -4 8 -8 22 -9
72 -4 79 -7 73 -33 -3 -17 -6 -20 -9 -9 -3 16 -31 29 -62 28 -8 0 -1 -6 15
-14 l30 -15 -40 6 c-67 10 -121 39 -154 85 -17 23 -31 49 -32 58 0 14 -1 14
-7 -1 -4 -9 -8 24 -9 73 -2 73 1 95 15 115 23 32 25 30 17 -13z m400 17 c-10
-11 -23 -20 -29 -20 -6 1 0 10 13 20 30 26 39 26 16 0z m119 -6 c8 -22 -4 -40
-15 -23 -11 18 -11 39 0 39 5 0 12 -7 15 -16z m476 -24 c0 -11 -4 -20 -10 -20
-5 0 -10 9 -10 20 0 11 5 20 10 20 6 0 10 -9 10 -20z m150 -5 c0 -2 -13 -11
-30 -20 -43 -22 -39 -45 8 -45 37 -1 37 -1 -33 -35 -38 -19 -80 -46 -91 -59
-12 -14 -25 -22 -28 -19 -9 9 -7 43 2 43 5 0 7 14 4 30 -3 22 0 30 11 30 9 0
20 -8 25 -17 9 -16 11 -15 27 0 13 14 14 21 6 31 -14 17 -7 22 54 47 22 10 41
17 43 18 1 1 2 -1 2 -4z m3509 -23 c-9 -15 -8 -23 4 -38 68 -82 146 -206 152
-240 4 -21 11 -54 17 -72 5 -18 7 -36 4 -39 -11 -12 -87 51 -140 116 -30 36
-75 109 -100 161 l-46 94 32 18 c18 9 45 17 61 18 24 0 26 -2 16 -18z m-4189
-17 c28 -15 76 -72 68 -81 -3 -2 -11 2 -18 11 -7 8 -21 15 -31 15 -12 0 -19 7
-19 19 0 21 -17 37 -28 26 -3 -3 0 -11 8 -16 12 -8 11 -9 -5 -7 -14 2 -20 -2
-19 -14 1 -10 1 -18 0 -18 -1 0 -24 7 -50 16 -59 20 -60 45 -1 51 21 2 41 6
44 9 8 7 21 5 51 -11z m1445 -25 c3 -5 1 -10 -4 -10 -6 0 -11 5 -11 10 0 6 2
10 4 10 3 0 8 -4 11 -10z m-1250 -29 c10 -17 -12 -21 -25 -6 -10 12 -10 15 3
15 9 0 18 -4 22 -9z m215 2 c-1 -18 -18 -35 -24 -24 -4 6 -4 16 -1 21 7 12 25
13 25 3z m1100 -58 c0 -13 6 -25 13 -28 6 -3 2 -4 -9 -4 -18 1 -22 7 -22 34 0
18 4 30 9 27 5 -3 9 -16 9 -29z m-782 -8 c3 -14 -1 -18 -20 -15 -12 2 -24 11
-26 21 -3 14 1 18 20 15 12 -2 24 -11 26 -21z m-514 -12 c9 -14 12 -25 7 -25
-5 0 -18 -3 -28 -7 -16 -6 -16 -5 -4 10 12 15 11 17 -8 17 -18 0 -20 2 -9 15
18 20 23 19 42 -10z m175 8 c-18 -23 -42 -42 -53 -43 -5 0 -3 6 3 14 9 11 9
16 -1 23 -9 5 -2 10 22 14 19 4 37 7 39 8 2 0 -3 -7 -10 -16z m421 -20 c0 -25
-45 -11 -48 15 -3 20 -1 21 22 11 14 -7 26 -19 26 -26z m-992 5 c-3 -24 -35
-35 -65 -23 -14 5 -13 8 7 22 17 12 25 13 28 5 2 -7 8 -12 14 -12 6 0 8 7 4
15 -3 8 -1 15 5 15 6 0 9 -10 7 -22z m307 -16 c-3 -3 -11 0 -18 7 -9 10 -8 11
6 5 10 -3 15 -9 12 -12z m325 -2 c-36 -11 -52 -11 -45 0 3 6 21 10 38 9 31 -1
31 -1 7 -9z m1109 -34 c13 -21 21 -52 22 -82 1 -50 2 -49 15 21 l7 40 7 -30
c4 -16 9 -48 10 -70 l2 -40 10 30 c10 26 12 27 18 10 4 -10 5 -29 2 -41 -4
-22 -4 -22 -79 -15 -9 1 -13 25 -13 85 0 62 -4 87 -15 96 -14 12 -21 30 -11
30 2 0 14 -15 25 -34z m-2279 5 c0 -4 -5 -22 -11 -38 -9 -28 -15 -31 -66 -36
-31 -3 -60 -4 -65 -1 -9 6 19 65 36 76 15 11 106 10 106 -1z m-350 -46 c0 -14
-39 -35 -91 -49 -20 -6 -19 -4 6 10 17 9 41 25 54 35 29 23 31 23 31 4z m1105
-9 c7 -9 16 -12 20 -8 4 4 6 0 3 -8 -3 -8 -10 -15 -16 -14 -7 1 -43 2 -82 3
-69 1 -70 2 -70 27 l0 27 67 -6 c45 -3 71 -10 78 -21z m-490 -16 c19 -20 24
-30 14 -31 -8 -1 -36 -3 -63 -5 -53 -5 -53 -6 -7 49 19 23 22 22 56 -13z
m1142 15 c0 -11 -4 -12 -14 -4 -7 6 -13 13 -13 15 0 2 6 4 13 4 8 0 14 -7 14
-15z m-387 -21 c0 -8 -4 -12 -10 -9 -5 3 -10 13 -10 21 0 8 5 12 10 9 6 -3 10
-13 10 -21z m359 12 c9 -11 7 -15 -13 -20 -26 -6 -56 1 -56 13 0 24 51 29 69
7z m469 -20 c26 -13 81 -34 124 -46 53 -16 75 -27 71 -37 -3 -7 -20 -13 -42
-13 -20 0 -49 -7 -65 -15 -32 -17 -56 -13 -56 8 0 8 -6 14 -14 14 -9 0 -12 -7
-8 -16 3 -9 2 -13 -3 -9 -9 9 -31 -14 -92 -99 -44 -62 -65 -76 -77 -50 -5 10
-7 10 -12 0 -8 -19 -37 -16 -30 2 7 20 -4 19 -19 -1 -9 -13 -16 -14 -33 -5
-11 6 -29 8 -39 4 -14 -5 -16 -4 -7 8 20 26 99 164 100 174 1 30 19 63 47 88
27 23 38 27 70 22 21 -3 60 -16 85 -29z m-1301 18 c-3 -3 -12 -4 -19 -1 -8 3
-5 6 6 6 11 1 17 -2 13 -5z m4573 -29 c0 -8 -4 -15 -10 -15 -5 0 -10 7 -10 15
0 8 5 15 10 15 6 0 10 -7 10 -15z m-5070 -29 c0 -2 -7 -7 -16 -10 -8 -3 -12
-2 -9 4 6 10 25 14 25 6z m1570 -1 c0 -3 -7 -17 -17 -31 -12 -19 -18 -22 -25
-12 -7 9 -8 8 -4 -5 3 -11 -4 -31 -17 -50 -12 -18 -23 -34 -24 -36 -2 -2 -6
-2 -9 1 -3 4 0 17 7 30 7 12 12 26 11 31 -1 4 3 7 8 7 15 0 12 20 -5 26 -17 7
-35 -10 -53 -49 -14 -33 -82 -117 -94 -117 -5 0 -4 8 1 18 6 9 24 48 42 85 34
72 57 92 92 83 12 -2 33 2 47 9 27 15 40 18 40 10z m3656 -17 c-9 -13 -22 -35
-29 -50 -12 -30 -37 -38 -37 -12 0 22 50 84 67 84 13 0 13 -3 -1 -22z m-2756
-19 c0 -6 -4 -7 -10 -4 -5 3 -10 11 -10 16 0 6 5 7 10 4 6 -3 10 -11 10 -16z
m-400 -4 c0 -20 -37 -39 -43 -22 -2 6 3 17 12 24 21 17 31 16 31 -2z m391 -22
c13 -16 12 -17 -3 -4 -17 13 -22 21 -14 21 2 0 10 -8 17 -17z m-2611 3 c0 -3
-4 -8 -10 -11 -5 -3 -10 -1 -10 4 0 6 5 11 10 11 6 0 10 -2 10 -4z m1490 -16
c0 -5 -5 -10 -11 -10 -5 0 -7 5 -4 10 3 6 8 10 11 10 2 0 4 -4 4 -10z m-1310
-24 c-38 -14 -46 -13 -35 3 3 6 21 11 38 10 l32 -1 -35 -12z m-417 -36 c-3
-11 -9 -20 -14 -20 -5 0 -9 9 -9 20 0 11 6 20 14 20 9 0 12 -7 9 -20z m1037
10 c0 -5 -4 -10 -10 -10 -5 0 -10 5 -10 10 0 6 5 10 10 10 6 0 10 -4 10 -10z
m1175 0 c14 -23 -64 -124 -82 -107 -5 6 60 117 69 117 4 0 10 -5 13 -10z m138
-7 c22 -25 59 -114 53 -129 -7 -19 -61 2 -86 33 -26 34 -37 92 -19 104 21 13
34 11 52 -8z m233 -17 c7 -8 19 -16 26 -18 10 -4 9 -8 -2 -20 -20 -19 -40 -12
-40 14 0 18 -2 19 -17 7 -15 -13 -15 -12 -4 9 14 26 18 27 37 8z m-1129 -54
c18 -19 16 -32 -5 -32 -15 0 -19 8 -19 38 -1 20 1 30 5 22 3 -8 11 -21 19 -28z
m-1047 13 c10 -12 7 -20 -17 -44 -32 -32 -74 -46 -168 -57 -33 -3 -68 -11 -77
-16 -14 -7 -18 -5 -17 9 2 41 16 68 34 69 11 1 47 2 81 3 47 1 69 7 95 25 40
29 53 31 69 11z m880 -15 c0 -25 -4 -30 -25 -30 -14 0 -25 5 -25 10 0 6 5 10
10 10 6 0 10 7 10 16 0 8 5 12 10 9 6 -3 10 -1 10 4 0 6 2 11 5 11 3 0 5 -13
5 -30z m-30 -56 c0 -2 -60 -3 -132 -2 l-133 2 95 5 c91 6 170 3 170 -5z m270
0 c0 -2 -21 -4 -46 -4 -25 0 -43 4 -40 8 4 7 86 4 86 -4z m65 6 c16 -7 11 -9
-20 -9 -29 -1 -36 2 -25 9 17 11 19 11 45 0z m-166 -4 c-7 -8 -149 -10 -156
-3 -3 4 31 7 77 7 46 0 81 -2 79 -4z m-299 -36 c12 -8 11 -10 -7 -10 -13 0
-23 5 -23 10 0 13 11 13 30 0z m70 0 c0 -5 -7 -10 -15 -10 -8 0 -15 5 -15 10
0 6 7 10 15 10 8 0 15 -4 15 -10z m68 1 c9 -5 3 -8 -17 -9 -17 0 -31 4 -31 9
0 11 30 12 48 0z m152 -2 c0 -5 -21 -9 -46 -9 -25 0 -43 4 -39 9 7 12 85 12
85 0z m30 1 c0 -5 -4 -10 -10 -10 -5 0 -10 5 -10 10 0 6 5 10 10 10 6 0 10 -4
10 -10z m-1373 -15 c18 -19 17 -21 -20 -30 -30 -8 -32 -4 -17 26 13 23 17 23
37 4z m1973 -25 c13 -8 13 -10 -2 -10 -9 0 -20 5 -23 10 -8 13 5 13 25 0z
m367 -92 c16 -26 14 -50 -4 -46 -10 2 -17 10 -15 16 1 7 -2 12 -8 12 -5 0 -7
7 -4 15 7 18 20 19 31 3z m253 -3 c0 -9 -9 -15 -25 -15 -16 0 -25 6 -25 15 0
9 9 15 25 15 16 0 25 -6 25 -15z m-2357 -22 c3 -2 -2 -24 -11 -48 l-16 -44
-211 -3 c-117 -2 -224 -1 -238 2 l-26 5 30 48 29 48 219 -1 c121 -1 221 -4
224 -7z m2216 -2 c11 -7 9 -13 -8 -30 -11 -11 -21 -27 -21 -33 0 -8 -14 -13
-40 -13 -22 1 -40 5 -39 9 0 5 -5 13 -13 17 -14 9 -6 11 60 11 26 1 30 3 21
14 -13 16 -23 19 -14 4 3 -5 -3 -10 -14 -10 -14 0 -21 6 -21 18 0 15 8 19 38
20 20 1 43 -2 51 -7z m161 -9 c0 -9 -98 -7 -107 2 -4 3 19 6 50 6 32 0 57 -3
57 -8z m13 -54 c14 -17 16 -23 6 -27 -7 -2 -15 1 -17 8 -2 6 -15 11 -28 11
-13 0 -24 5 -24 10 0 6 -13 10 -30 10 -33 0 -43 -25 -12 -33 9 -3 -3 -5 -28
-5 -25 0 -39 2 -32 5 18 7 15 33 -5 34 -39 3 56 14 102 12 38 -2 54 -8 68 -25z
m-668 -88 l70 -8 -75 3 c-41 1 -257 -2 -480 -7 -258 -6 -414 -6 -430 0 -17 7
87 10 319 11 190 1 347 4 350 6 7 7 166 4 246 -5z m825 1 c0 -13 -39 -18 -137
-20 -50 -1 -83 2 -83 8 0 6 39 12 93 14 50 1 100 4 110 5 9 1 17 -2 17 -7z
m-1835 -11 c-3 -5 -25 -9 -48 -9 l-42 2 40 7 c22 4 44 8 48 9 5 0 5 -3 2 -9z
m1488 -7 c-62 -2 -165 -2 -230 0 -65 1 -14 3 112 3 127 0 180 -2 118 -3z
m-1900 -10 c-7 -2 -19 -2 -25 0 -7 3 -2 5 12 5 14 0 19 -2 13 -5z m-463 -23
c-8 -5 -26 -9 -40 -9 -23 1 -23 2 5 9 43 11 52 11 35 0z m147 4 c-3 -3 -12 -4
-19 -1 -8 3 -5 6 6 6 11 1 17 -2 13 -5z m4137 -136 c-78 -138 -116 -266 -134
-457 -7 -75 -13 -98 -31 -117 -25 -26 -16 -33 11 -9 12 11 24 13 41 6 23 -8
23 -9 -15 -25 -22 -9 -48 -14 -58 -10 -11 3 -20 0 -24 -10 -3 -9 -11 -16 -16
-16 -13 0 -2 167 19 304 17 114 49 220 94 309 43 85 45 87 100 87 l48 0 -35
-62z m953 56 c13 -4 20 -11 16 -17 -4 -6 0 -8 11 -4 10 4 15 3 11 -3 -5 -9 6
-23 53 -64 l21 -18 -10 33 c-6 19 -13 44 -16 57 l-5 22 251 0 c218 0 251 -2
251 -15 0 -14 3 -14 30 0 20 11 59 15 132 15 l103 -1 -29 -21 c-38 -28 -176
-112 -199 -121 -11 -4 -37 3 -65 17 -58 29 -159 60 -281 85 l-93 19 4 -54 c3
-29 1 -51 -4 -48 -5 3 -7 -10 -6 -28 1 -21 24 -66 66 -128 35 -52 53 -82 40
-66 -128 163 -210 250 -298 318 -34 27 -28 34 17 22z m1600 -36 c46 -66 49
-76 12 -41 -20 18 -58 38 -94 48 -114 33 -114 33 -29 34 l81 1 30 -42z m1241
17 c-4 -31 15 -34 22 -3 6 22 11 23 90 25 79 3 83 2 60 -12 -33 -19 -9 -19 37
0 19 8 49 15 66 15 29 0 29 -1 13 -19 -10 -11 -40 -29 -69 -41 -57 -25 -79
-24 -502 6 -110 8 -301 21 -425 30 -124 8 -227 17 -229 20 -2 2 208 4 468 4
l472 0 -3 -25z m396 16 c4 -5 3 -17 0 -26 -5 -13 -8 -14 -15 -3 -6 8 -9 9 -9
1 0 -7 -9 -9 -22 -5 -19 4 -21 3 -11 -9 9 -11 8 -18 -2 -33 -8 -10 -18 -15
-24 -11 -7 4 -8 0 -4 -11 5 -13 3 -15 -7 -9 -8 5 -11 3 -8 -5 2 -7 -6 -24 -19
-38 -13 -14 -23 -34 -23 -45 0 -13 -5 -17 -15 -14 -8 4 -17 1 -21 -5 -4 -7 -3
-8 4 -4 23 14 11 -2 -33 -47 -25 -26 -45 -51 -45 -57 0 -6 -6 -10 -12 -8 -7 1
-23 -3 -35 -10 -24 -13 -29 -9 -13 11 5 7 38 50 72 96 35 46 72 95 83 109 18
24 18 25 1 19 -16 -6 -17 -5 -6 8 7 8 18 15 26 15 7 0 29 20 50 45 35 43 74
59 88 36z m446 4 c0 -3 -8 -15 -18 -26 -11 -10 -25 -32 -33 -47 -7 -15 -28
-41 -46 -59 -18 -17 -33 -35 -33 -40 0 -4 -13 -22 -28 -39 -15 -18 -33 -40
-39 -50 -7 -11 -26 -39 -43 -64 -16 -25 -30 -51 -30 -58 0 -7 -4 -10 -10 -7
-10 6 -14 -6 -11 -35 1 -11 0 -12 -6 -3 -10 15 -26 5 -41 -24 -7 -12 -37 -55
-67 -95 -30 -40 -53 -79 -50 -86 3 -7 1 -11 -4 -8 -7 5 -144 -168 -296 -373
-10 -14 -46 -60 -79 -101 -33 -41 -61 -77 -63 -79 -2 -2 -6 -2 -9 1 -11 11 94
157 330 458 41 52 99 139 101 150 10 63 171 321 230 370 15 12 19 12 30 -3 12
-17 15 -16 35 12 12 17 18 36 14 42 -4 8 -3 9 4 5 7 -4 12 -3 12 3 0 5 -4 13
-10 16 -16 10 -12 28 5 21 8 -3 15 -1 15 5 0 5 -7 12 -16 16 -9 3 -14 13 -11
24 3 11 1 19 -4 19 -17 0 -9 20 9 21 16 1 16 2 0 6 -27 7 -21 21 10 25 55 7
152 9 152 3z m-4198 -15 c12 0 20 -15 28 -55 12 -56 7 -95 -12 -95 -5 0 -8 -7
-5 -15 8 -19 -30 -44 -125 -83 -87 -36 -110 -38 -162 -17 -50 21 -65 55 -43
100 24 49 84 113 131 137 43 22 119 38 151 32 11 -2 28 -4 37 -4z m83 -30 c3
-5 1 -10 -4 -10 -6 0 -11 5 -11 10 0 6 2 10 4 10 3 0 8 -4 11 -10z m-954 -272
c-34 -81 -46 -151 -46 -275 0 -121 -6 -128 -26 -31 -18 82 16 241 69 326 22
34 23 26 3 -20z m-337 -35 c3 -21 5 -51 5 -68 -1 -30 -1 -30 -9 5 -16 74 -19
100 -11 100 5 0 11 -17 15 -37z m1721 7 c-3 -5 -12 -10 -18 -10 -7 0 -6 4 3
10 19 12 23 12 15 0z m-795 -138 c0 -57 -6 -100 -20 -138 -21 -62 -69 -148
-77 -140 -3 2 7 33 21 68 30 75 45 165 47 274 2 74 3 77 15 49 7 -16 13 -67
14 -113z m760 120 c0 -5 -17 -16 -37 -26 -41 -19 -39 -13 4 15 34 21 33 21 33
11z m-1980 -48 c38 -26 31 -32 -10 -9 -35 20 -99 18 -136 -4 -36 -22 -79 -91
-101 -164 -23 -73 -23 -80 -24 -192 -1 -114 28 -259 67 -339 14 -27 23 -50 22
-51 -3 -3 -33 37 -72 95 -13 19 -28 34 -34 33 -29 -7 -65 140 -65 262 0 80 43
204 74 212 10 3 22 23 29 49 18 63 63 121 102 133 46 13 106 3 148 -25z m3085
6 c42 -11 1 -11 -50 -1 -34 7 -35 9 -10 9 17 0 44 -4 60 -8z m-1021 -21 c11
17 24 13 42 -14 14 -22 14 -26 1 -40 -9 -8 -20 -15 -26 -15 -6 0 -11 -5 -11
-11 0 -6 16 -1 35 11 19 12 35 17 35 11 0 -9 -60 -46 -232 -145 -84 -48 -51
-19 52 45 55 34 100 67 100 72 0 5 -7 4 -15 -3 -9 -7 -18 -10 -22 -6 -3 3 -35
-10 -70 -29 -35 -19 -67 -35 -71 -35 -4 0 17 21 46 46 29 26 51 48 49 50 -2 3
-33 -12 -68 -32 -85 -48 -159 -85 -159 -80 0 5 225 148 265 169 19 10 32 12
36 5 4 -7 9 -6 13 1z m1249 4 c-13 -2 -33 -2 -45 0 -13 2 -3 4 22 4 25 0 35
-2 23 -4z m-52 -130 c13 -15 12 -15 -11 -3 -34 17 -36 20 -18 20 9 0 22 -7 29
-17z m2069 13 c0 -2 -8 -10 -17 -17 -16 -13 -17 -12 -4 4 13 16 21 21 21 13z
m-3162 -40 c-7 -8 -15 -12 -17 -11 -5 6 10 25 20 25 5 0 4 -6 -3 -14z m-5151
-28 c-3 -8 -6 -5 -6 6 -1 11 2 17 5 13 3 -3 4 -12 1 -19z m5087 8 c-10 -8 -21
-12 -24 -10 -5 6 21 24 34 24 6 0 1 -6 -10 -14z m106 -11 c0 -8 -7 -15 -15
-15 -13 0 -14 3 -3 15 16 18 18 18 18 0z m-1460 -3 c0 -13 -50 -31 -56 -20 -4
6 -2 13 4 17 15 9 52 11 52 3z m-730 -12 c0 -6 -7 -27 -16 -48 -15 -36 -16
-36 -26 -15 -8 17 -7 28 6 48 17 25 36 33 36 15z m2156 -17 c3 -16 14 -44 25
-64 10 -20 19 -41 19 -47 0 -5 -21 -25 -46 -45 l-45 -36 25 -16 c14 -10 23
-21 20 -26 -10 -17 6 -9 40 21 36 32 39 31 50 -11 4 -18 1 -31 -9 -39 -15 -12
-11 -35 5 -25 5 3 20 0 34 -6 20 -9 29 -9 43 2 15 11 16 11 6 -1 -19 -21 -16
-26 26 -39 46 -13 120 -90 157 -163 13 -26 24 -50 24 -53 0 -3 -35 -4 -77 -3
l-78 2 67 5 67 6 -20 33 c-12 17 -24 32 -27 32 -52 3 -88 16 -109 38 -16 18
-23 21 -19 10 3 -10 9 -26 12 -35 3 -11 -4 -7 -18 10 -18 20 -27 24 -35 16 -9
-9 -10 -7 -6 10 4 16 2 20 -9 16 -17 -7 -71 19 -61 28 3 4 -1 7 -10 7 -9 0
-21 8 -27 18 -9 14 -10 13 -5 -8 l7 -25 -18 25 c-20 28 -43 50 -93 88 -35 27
-141 48 -141 28 0 -5 -15 4 -32 20 -18 17 -52 36 -74 42 -57 17 -148 15 -191
-3 -19 -8 -49 -15 -65 -15 -17 0 -39 -10 -54 -25 l-24 -24 -35 34 c-44 45 -52
44 -24 -1 26 -42 33 -85 16 -96 -19 -12 -47 -9 -64 7 -19 20 -24 16 -16 -14 5
-21 9 -22 54 -16 48 7 49 6 49 -19 0 -14 4 -26 10 -26 5 0 12 -16 16 -35 3
-19 12 -39 20 -46 8 -6 11 -15 8 -20 -10 -16 -23 -10 -27 14 -3 16 -5 13 -6
-10 -1 -21 -6 -33 -15 -33 -8 0 -21 -3 -29 -6 -10 -3 -18 5 -26 28 -13 38 -67
88 -94 88 -15 0 -17 -5 -11 -22 4 -13 17 -63 29 -113 l21 -90 35 1 c19 0 61 4
94 8 33 5 57 6 54 2 -3 -4 -50 -13 -105 -21 -54 -8 -101 -21 -105 -27 -10 -15
-15 -2 -24 62 -11 86 -75 273 -75 222 0 -7 -6 -12 -14 -12 -16 0 -29 -27 -20
-41 3 -5 1 -9 -3 -9 -17 0 -82 75 -88 101 -6 23 -1 30 40 58 25 17 51 31 57
31 6 0 21 11 33 24 12 13 48 33 81 45 32 13 61 27 65 32 10 17 143 48 243 56
113 10 213 1 300 -27 91 -30 104 -26 66 23 -23 29 -25 26 66 87 33 21 65 39
71 39 7 1 15 -11 19 -26z m242 2 c-3 -3 -9 2 -12 12 -6 14 -5 15 5 6 7 -7 10
-15 7 -18z m-5406 -31 c-2 -21 -8 -43 -12 -48 -12 -12 -24 38 -16 70 10 40 31
23 28 -22z m3208 15 c0 -5 -4 -9 -10 -9 -5 0 -10 7 -10 16 0 8 5 12 10 9 6 -3
10 -10 10 -16z m1457 15 c-3 -3 -12 -4 -19 -1 -8 3 -5 6 6 6 11 1 17 -2 13 -5z
m533 -24 c0 -5 -5 -10 -11 -10 -5 0 -7 5 -4 10 3 6 8 10 11 10 2 0 4 -4 4 -10z
m230 0 c0 -5 -2 -10 -4 -10 -3 0 -8 5 -11 10 -3 6 -1 10 4 10 6 0 11 -4 11
-10z m-3445 -19 c3 -5 1 -12 -4 -15 -5 -3 -11 1 -15 9 -6 16 9 21 19 6z m1966
-4 c-8 -10 -8 -30 0 -73 19 -105 97 -414 119 -469 35 -90 40 -139 16 -163 -14
-14 -16 -13 -21 4 -8 23 -22 53 -34 74 -5 8 -21 44 -37 80 -16 36 -43 89 -61
118 -18 29 -33 55 -33 58 0 3 -13 24 -30 47 -16 23 -31 51 -33 62 -2 11 -9 30
-15 43 -10 18 -10 22 0 22 9 0 10 2 2 8 -17 10 -33 77 -23 93 13 21 11 29 -8
29 -30 0 2 22 75 52 77 31 100 35 83 15z m1319 -32 c0 -9 -41 -47 -46 -42 -8
8 8 37 17 31 5 -3 9 0 9 5 0 6 5 11 10 11 6 0 10 -2 10 -5z m-2035 -15 c3 -5
1 -10 -4 -10 -6 0 -11 5 -11 10 0 6 2 10 4 10 3 0 8 -4 11 -10z m-222 -54 c65
-66 125 -180 134 -253 4 -37 2 -53 -6 -53 -6 0 -11 -8 -11 -17 0 -10 -11 1
-25 26 -30 52 -31 60 -5 36 25 -23 25 -13 0 59 -26 75 -70 151 -121 209 -56
65 -31 59 34 -7z m-3473 -63 c10 -3 19 -12 19 -21 1 -10 5 -53 11 -97 5 -44 7
-92 4 -107 -3 -17 -1 -28 5 -28 13 0 14 -49 3 -68 -5 -7 -16 -10 -25 -6 -12 4
-17 1 -17 -10 0 -9 -4 -16 -10 -16 -15 0 -12 57 3 63 9 4 9 7 0 14 -9 6 -14
61 -17 183 -2 96 -2 158 1 136 3 -26 10 -40 23 -43z m3365 27 c-3 -5 -11 -10
-16 -10 -6 0 -7 5 -4 10 3 6 11 10 16 10 6 0 7 -4 4 -10z m357 -143 c11 -76 3
-147 -18 -154 -18 -6 -24 34 -23 167 1 118 1 123 15 92 8 -18 19 -65 26 -105z
m-943 119 c-7 -8 -108 -10 -115 -3 -4 4 21 7 56 7 35 0 61 -2 59 -4z m-2690
-85 c1 -19 4 -31 9 -27 7 8 8 13 11 41 1 17 31 21 31 4 0 -8 5 -8 15 1 8 7 15
9 16 4 0 -5 2 -19 3 -32 2 -13 -1 -25 -6 -28 -12 -8 -10 -84 3 -84 7 0 8 11 4
32 -6 26 -5 30 9 25 13 -5 16 1 16 39 0 52 14 84 36 84 13 0 15 -9 12 -40 -2
-22 0 -40 4 -40 5 0 8 -5 8 -11 0 -5 -5 -7 -11 -4 -7 5 -9 -18 -5 -76 4 -54 2
-75 -3 -59 -5 14 -10 21 -11 15 -13 -74 -16 -79 -25 -32 -5 26 -12 35 -25 34
-10 -1 -16 -5 -14 -9 3 -5 2 -23 -2 -41 -6 -28 -8 -30 -15 -12 -6 17 -8 17 -8
3 -1 -10 -5 -18 -10 -18 -5 0 -16 -3 -24 -6 -12 -4 -17 5 -22 43 -3 26 -8 58
-11 71 -2 12 0 22 6 22 5 0 10 -7 10 -15 0 -19 16 -20 23 -1 7 17 -2 56 -13
56 -5 0 -10 -5 -12 -12 -2 -6 -10 -8 -16 -4 -13 8 -17 128 -5 140 10 10 21
-22 22 -63z m3331 59 c-8 -5 -19 -10 -25 -10 -5 0 -3 5 5 10 8 5 20 10 25 10
6 0 3 -5 -5 -10z m-3131 -169 c1 -118 -6 -98 -12 34 -3 64 -2 98 2 80 5 -16 9
-68 10 -114z m3175 121 c2 -4 -4 -13 -14 -20 -20 -12 -36 0 -25 18 7 12 32 13
39 2z m1983 -22 c-30 -24 -37 -25 -37 -6 0 16 15 24 44 25 16 1 15 -2 -7 -19z
m-2197 -11 c0 -6 -4 -7 -10 -4 -5 3 -10 11 -10 16 0 6 5 7 10 4 6 -3 10 -11
10 -16z m70 -40 c0 -5 -7 -9 -15 -9 -15 0 -20 12 -9 23 8 8 24 -1 24 -14z
m-42 -4 c1 -1 0 -10 -4 -19 -9 -24 -38 -15 -42 13 -3 20 -1 22 20 16 13 -4 24
-9 26 -10z m2328 -30 c22 -54 16 -64 -11 -16 -28 49 -29 51 -14 51 5 0 17 -16
25 -35z m-4172 10 c204 -53 363 -227 396 -431 21 -126 -10 -255 -86 -366 -31
-45 -52 -67 -61 -64 -8 3 -11 1 -8 -5 4 -5 -6 -20 -21 -32 -48 -39 -133 -86
-139 -77 -3 5 3 13 12 19 10 5 15 13 11 17 -4 4 -14 1 -23 -6 -8 -7 -15 -10
-15 -7 0 3 -26 -2 -57 -10 -122 -32 -268 -15 -370 42 -25 14 -50 22 -57 18 -6
-3 -8 -3 -4 1 4 5 -14 26 -40 48 -26 23 -48 47 -50 54 -3 11 -7 11 -19 -2 -12
-11 -13 -18 -4 -27 6 -6 11 -16 11 -22 -1 -17 -30 28 -30 47 0 12 -5 15 -17
11 -13 -5 -15 -2 -10 11 4 9 3 15 -2 12 -11 -7 -56 93 -70 154 -64 276 128
562 414 620 67 13 177 11 239 -5z m4541 -45 c10 -11 15 -23 12 -27 -8 -7 -47
25 -47 39 0 14 16 9 35 -12z m-2495 -10 c0 -5 -4 -10 -10 -10 -5 0 -10 5 -10
10 0 6 5 10 10 10 6 0 10 -4 10 -10z m60 -10 c0 -13 -9 -22 -25 -26 -24 -6
-24 -7 -8 -20 25 -19 2 -17 -25 2 -29 20 -28 34 2 34 13 0 29 7 36 15 16 20
20 19 20 -5z m1297 -2 c11 -13 24 -33 28 -45 5 -18 2 -23 -12 -23 -13 0 -24
14 -35 45 -19 50 -12 57 19 23z m620 -36 c9 -20 20 -45 24 -54 6 -12 4 -15 -5
-12 -16 6 -56 76 -56 98 0 25 18 9 37 -32z m-2077 -44 c0 -6 -7 -5 -15 2 -8 7
-15 17 -15 22 0 6 7 5 15 -2 8 -7 15 -17 15 -22z m500 -4 c-5 -16 -14 -60 -19
-97 -7 -52 -15 -74 -33 -89 -45 -40 -65 -49 -92 -42 -26 6 -26 7 15 27 48 23
93 88 103 145 8 41 27 95 32 89 2 -2 0 -17 -6 -33z m840 14 c0 -4 -4 -8 -9 -8
-6 0 -12 4 -15 8 -3 5 1 9 9 9 8 0 15 -4 15 -9z m-1893 -54 c-9 -9 -28 6 -21
18 4 6 10 6 17 -1 6 -6 8 -13 4 -17z m474 -6 c8 -15 8 -18 0 -14 -6 4 -16 16
-22 28 -8 15 -8 18 0 14 6 -4 16 -16 22 -28z m1656 -4 c-9 -9 -28 6 -21 18 4
6 10 6 17 -1 6 -6 8 -13 4 -17z m678 -14 c-10 -11 -25 -20 -33 -20 -9 0 -6 7
9 20 31 25 47 26 24 0z m-1969 -50 c-31 -47 -95 -83 -139 -78 l-32 4 40 12
c60 18 103 48 127 89 12 20 24 31 26 24 2 -7 -8 -30 -22 -51z m1952 3 c-10 -2
-26 -2 -35 0 -10 3 -2 5 17 5 19 0 27 -2 18 -5z m272 -13 c0 -16 -23 -60 -32
-60 -12 0 -10 44 4 58 14 14 28 16 28 2z m-1778 -43 c-23 -25 -20 -37 9 -37
24 0 33 -18 18 -36 -6 -8 -9 -17 -6 -21 10 -9 -93 -44 -128 -44 -26 0 -27 -1
-10 -8 11 -5 34 -32 49 -62 l29 -52 -27 -24 c-38 -33 -57 -29 -94 19 -36 46
-41 81 -14 98 14 9 13 10 -8 5 -21 -5 -19 -3 10 17 19 12 37 26 38 30 2 5 9 5
14 2 7 -4 8 -2 4 4 -3 6 2 15 11 21 17 10 16 10 -3 11 -11 0 -29 -7 -40 -15
-31 -23 -40 -17 -14 10 13 14 33 25 45 25 23 0 53 19 90 56 31 31 56 32 27 1z
m-55 -13 c-3 -3 -12 -4 -19 -1 -8 3 -5 6 6 6 11 1 17 -2 13 -5z m-1129 -35
c-1 -22 -3 -27 -10 -16 -4 8 -5 22 -2 31 9 24 13 19 12 -15z m716 -29 c-7 -7
-19 -7 -35 -1 -23 9 -22 10 11 10 23 1 31 -2 24 -9z m-772 -20 c-17 -17 -47
-16 -58 2 -3 5 5 6 20 2 14 -3 26 -2 26 3 0 5 7 10 15 10 12 0 12 -3 -3 -17z
m35 -7 c-4 -3 1 -12 11 -20 15 -13 14 -14 -13 -8 -38 8 -43 14 -25 25 17 11
37 13 27 3z m-43 -43 c42 -19 64 -35 60 -42 -5 -8 -10 -7 -18 3 -6 8 -19 13
-30 11 -12 -3 -16 0 -11 8 5 9 1 10 -16 5 -15 -4 -19 -3 -11 3 9 6 6 12 -13
20 -15 7 -31 9 -37 6 -7 -4 -8 -2 -4 4 9 15 3 17 80 -18z m-956 -7 c-10 -2
-26 -2 -35 0 -10 3 -2 5 17 5 19 0 27 -2 18 -5z m6480 -23 c83 -47 105 -132
48 -185 -31 -29 -71 -32 -451 -40 -312 -5 -558 -21 -563 -36 -2 -5 -10 -9 -18
-9 -9 0 -13 -4 -9 -9 8 -15 -30 -23 -71 -15 -27 5 -41 15 -57 41 l-20 35 -76
-5 -76 -4 -22 -39 c-12 -21 -24 -57 -28 -79 l-6 -40 16 28 c15 26 18 27 105
27 50 0 93 -1 98 -2 4 -2 6 -29 4 -60 -2 -32 1 -65 7 -75 8 -15 11 -11 11 22
1 34 2 37 12 21 6 -11 14 -35 19 -55 9 -41 0 -51 -48 -51 -36 0 -53 21 -63 80
-7 45 -35 48 -71 7 l-26 -30 -203 9 c-147 7 -205 13 -208 22 -2 6 -10 12 -18
12 -29 0 -8 104 34 160 25 35 25 35 1 13 -20 -18 -30 -21 -59 -14 -19 4 -44
12 -55 18 -11 6 -33 15 -49 19 -34 10 -47 34 -19 35 14 0 12 3 -7 12 -14 6
-26 12 -28 13 -7 4 11 33 23 37 9 4 11 -1 8 -14 -5 -16 0 -19 31 -19 20 0 36
-4 36 -10 0 -13 54 -35 106 -43 28 -5 46 -2 62 9 12 8 56 19 98 24 42 4 80 13
83 19 4 7 12 3 21 -9 13 -18 26 -20 156 -20 l142 0 7 37 c23 124 81 153 340
173 217 16 244 17 500 16 236 -1 241 -1 283 -26z m-5781 -40 c10 0 28 -6 39
-14 21 -15 83 -19 104 -6 9 6 -1 12 -30 20 -32 9 -40 14 -29 21 34 21 115 6
122 -23 4 -15 11 -19 26 -15 12 3 21 1 21 -3 0 -5 -18 -11 -40 -15 -22 -4 -42
-11 -45 -15 -3 -5 -18 -4 -33 2 -38 15 -95 10 -106 -9 -6 -11 -10 -12 -15 -4
-6 9 -15 9 -35 1 -48 -18 -66 -13 -66 18 0 15 3 37 6 49 6 21 8 22 35 8 15 -8
36 -15 46 -15z m278 0 c7 -11 -9 -11 -45 0 -24 8 -24 8 7 9 17 1 35 -3 38 -9z
m-2190 -30 c4 -6 -6 -10 -22 -10 -22 0 -25 2 -13 10 19 12 27 12 35 0z m5583
-18 c12 -8 21 -20 19 -26 -4 -13 -45 -15 -70 -3 -11 5 -24 4 -33 -4 -15 -12
-18 -7 -14 26 4 38 46 41 98 7z m-6125 11 c-7 -2 -21 -2 -30 0 -10 3 -4 5 12
5 17 0 24 -2 18 -5z m6897 -103 c0 -5 -4 -10 -10 -10 -5 0 -10 5 -10 10 0 6 5
10 10 10 6 0 10 -4 10 -10z m-1753 -72 c-3 -8 -6 -5 -6 6 -1 11 2 17 5 13 3
-3 4 -12 1 -19z m-2269 -5 c5 -17 -26 -29 -40 -15 -6 6 -7 15 -3 22 9 14 37 9
43 -7z m2517 -23 c-3 -5 -11 -10 -16 -10 -6 0 -7 5 -4 10 3 6 11 10 16 10 6 0
7 -4 4 -10z m-2615 -48 c0 -4 -9 -8 -20 -8 -11 0 -20 4 -20 8 0 4 9 8 20 8 11
0 20 -4 20 -8z m2865 -12 c3 -5 -3 -17 -15 -27 -11 -10 -20 -21 -20 -26 0 -12
-103 -136 -114 -136 -5 -1 -18 -9 -29 -18 -23 -20 -22 -18 31 67 34 54 119
150 134 150 4 0 10 -4 13 -10z m406 -52 c0 -18 2 -43 3 -55 2 -20 -2 -23 -31
-23 -36 0 -40 12 -27 79 5 24 12 31 30 31 20 0 24 -5 25 -32z m254 7 c71 -9
134 -20 139 -25 6 -6 5 -24 -2 -48 -15 -50 -15 -85 0 -100 9 -9 9 -18 0 -37
-7 -15 -10 -30 -8 -34 14 -22 -451 17 -478 41 -20 17 5 19 101 9 54 -6 139
-13 188 -16 l90 -6 -40 19 c-26 13 -90 25 -179 35 -76 9 -140 18 -143 21 -15
15 12 22 54 15 85 -14 150 -11 157 7 4 12 2 15 -9 11 -8 -4 -17 -2 -20 3 -4 6
-18 10 -33 11 -15 0 -21 3 -13 6 7 3 23 15 34 26 18 18 19 21 4 32 -10 7 -17
22 -17 34 0 17 5 20 23 16 12 -3 80 -12 152 -20z m-785 11 c0 -2 -8 -10 -17
-17 -16 -13 -17 -12 -4 4 13 16 21 21 21 13z m3520 -3 c0 -5 -16 -18 -35 -31
-44 -28 -46 -15 -2 15 37 25 37 25 37 16z m-6698 -45 c-2 -21 -8 -38 -12 -38
-12 0 -7 52 5 66 13 15 13 15 7 -28z m-1662 22 c-12 -8 -11 -10 8 -10 12 0 24
1 25 3 2 1 11 -4 20 -11 9 -8 22 -10 28 -6 7 4 9 3 6 -2 -3 -5 -34 -11 -69
-12 -44 -1 -59 1 -48 8 8 5 11 10 6 10 -5 0 -3 7 4 15 7 8 18 15 24 15 6 0 4
-5 -4 -10z m3595 0 c4 -6 -5 -10 -20 -10 -15 0 -24 4 -20 10 3 6 12 10 20 10
8 0 17 -4 20 -10z m1422 -12 c-3 -8 -6 -5 -6 6 -1 11 2 17 5 13 3 -3 4 -12 1
-19z m-3107 2 c0 -5 -4 -10 -10 -10 -5 0 -10 5 -10 10 0 6 5 10 10 10 6 0 10
-4 10 -10z m65 -18 l20 -11 -20 -1 c-28 0 -49 16 -40 30 4 7 10 8 14 3 3 -5
15 -15 26 -21z m55 11 c0 -12 -3 -14 -8 -7 -4 7 -16 14 -27 17 -15 4 -14 5 8
6 20 1 27 -4 27 -16z m67 -20 c-3 -10 -5 -4 -5 12 0 17 2 24 5 18 2 -7 2 -21
0 -30z m2703 27 c0 -5 -5 -10 -11 -10 -5 0 -7 5 -4 10 3 6 8 10 11 10 2 0 4
-4 4 -10z m-5150 -32 c0 -4 -6 -8 -14 -8 -25 0 -46 12 -46 25 0 11 6 11 30 2
17 -6 30 -15 30 -19z m2140 -19 c0 -4 -12 -9 -27 -12 -49 -9 -70 13 -36 38 14
10 21 10 40 -4 12 -9 23 -19 23 -22z m-196 7 c-7 -19 -50 -29 -72 -17 -14 8
-15 10 -2 15 8 2 22 7 30 9 30 10 49 7 44 -7z m6656 0 c0 -2 -8 -10 -17 -17
-16 -13 -17 -12 -4 4 13 16 21 21 21 13z m-8165 -17 c-30 -11 -135 -11 -135 1
0 6 30 10 78 9 49 -1 70 -5 57 -10z m1749 2 c3 -5 23 -7 43 -4 58 7 86 4 95
-9 6 -10 10 -10 20 0 6 6 19 12 28 12 13 0 13 -1 0 -10 -8 -5 -10 -10 -5 -10
6 0 16 5 23 12 9 9 12 7 12 -12 0 -20 2 -22 10 -10 7 12 10 8 10 -15 0 -23 -3
-27 -10 -15 -9 13 -10 13 -10 0 0 -9 -3 -11 -8 -5 -4 6 -25 12 -47 14 -22 2
-48 7 -57 12 -9 5 -35 9 -57 9 -23 0 -41 5 -41 11 0 6 -9 8 -20 4 -14 -5 -20
-2 -20 9 0 17 25 22 34 7z m1739 3 c10 -11 -17 -31 -51 -39 -45 -9 -44 21 1
34 42 12 43 12 50 5z m-3937 -13 c-17 -3 -30 -10 -30 -16 1 -19 98 -27 307
-27 117 0 207 -4 207 -9 0 -5 -34 -9 -75 -9 -62 0 -75 -3 -75 -16 0 -13 15
-15 108 -13 l107 3 3 -32 c4 -35 0 -36 -77 -33 -19 0 -38 -4 -41 -10 -5 -7
-24 -7 -61 -1 -39 8 -58 7 -68 -1 -11 -9 -15 -9 -18 1 -3 8 -32 12 -94 12 -50
0 -88 -4 -85 -8 2 -4 1 -14 -5 -22 -6 -11 -9 -12 -9 -2 0 10 -15 12 -54 10
-38 -2 -52 -6 -49 -15 6 -14 -6 -17 -32 -7 -13 5 -14 8 -3 15 9 6 5 9 -12 9
-25 0 -68 23 -82 44 -16 23 -7 59 24 97 30 37 34 39 87 38 42 -1 49 -3 27 -8z
m1625 -7 c10 -12 -13 -14 -152 -14 -90 1 -202 7 -249 15 -84 13 -84 13 152 13
191 0 239 -3 249 -14z m838 -36 l-1 -53 -8 40 c-7 36 -4 65 6 65 2 0 3 -24 3
-52z m-420 17 c6 3 9 0 5 -8 -3 -10 4 -14 25 -15 16 0 40 -6 52 -12 17 -10 23
-9 30 1 7 11 9 10 9 -3 0 -21 16 -24 23 -5 8 19 26 -11 20 -34 -3 -11 1 -21
11 -25 9 -3 16 -12 16 -20 0 -8 5 -14 11 -14 6 0 8 7 5 15 -10 26 25 31 45 7
9 -12 21 -22 26 -22 4 0 13 -10 18 -22 8 -17 17 -22 38 -20 22 2 27 -1 27 -20
0 -19 2 -20 10 -8 6 9 10 10 10 3 0 -17 -23 -29 -28 -15 -5 17 -31 15 -28 -2
3 -20 34 -48 46 -41 6 3 14 -4 19 -17 6 -13 10 -17 10 -10 1 14 21 17 21 2 0
-5 -11 -12 -25 -16 -26 -6 -32 -18 -15 -29 6 -3 10 -15 10 -27 0 -17 -2 -18
-15 -8 -8 7 -15 20 -15 28 0 12 -3 13 -12 4 -9 -9 -5 -17 15 -35 15 -12 27
-28 27 -35 0 -7 7 -12 15 -12 8 0 15 -9 15 -20 0 -11 -4 -20 -10 -20 -5 0 -6
8 -3 17 5 12 2 15 -10 10 -10 -4 -17 -1 -17 6 0 8 -25 12 -83 14 -45 0 -76 -1
-69 -4 21 -8 13 -21 -19 -32 -42 -15 -52 -14 -46 4 4 8 2 17 -3 20 -5 3 -64 7
-132 10 -68 2 -136 6 -151 9 -25 4 -27 2 -22 -17 5 -18 4 -19 -4 -6 -8 12 -6
39 7 93 15 67 20 76 39 76 25 0 46 31 37 55 -5 12 -14 14 -35 10 -18 -4 -29
-2 -29 4 0 6 -9 11 -20 11 -12 0 -20 7 -20 16 0 12 -5 14 -17 8 -10 -4 -27 -6
-38 -5 -138 13 -177 12 -196 -5 -15 -14 -19 -14 -19 -2 0 12 -11 13 -62 7 -42
-5 -67 -4 -76 4 -9 7 -16 7 -20 1 -4 -6 -22 -7 -48 -2 -40 8 -42 11 -42 44 0
20 -8 44 -18 55 -18 20 -18 20 -31 -3 -14 -25 -15 -118 -1 -118 5 0 6 -4 3
-10 -3 -5 -40 -10 -81 -10 -56 0 -80 -4 -92 -16 -14 -14 -33 -16 -125 -11 -60
2 -114 10 -120 16 -6 6 -16 11 -22 11 -5 0 -3 -5 5 -10 12 -8 10 -10 -8 -10
-13 0 -20 4 -17 10 3 6 1 10 -4 10 -6 0 -11 -4 -11 -10 0 -5 -16 -10 -35 -10
l-35 0 0 53 c0 28 5 59 10 67 8 12 10 11 8 -5 0 -11 0 -35 0 -52 2 -31 4 -33
42 -33 25 0 40 5 41 13 0 10 2 10 6 0 6 -18 32 -16 39 1 6 16 44 18 41 2 -1
-5 6 -12 16 -14 13 -3 17 4 19 30 l1 33 4 -32 c4 -30 7 -32 44 -31 36 0 39 2
39 30 0 20 4 28 13 25 13 -5 13 -11 2 -39 -5 -12 -2 -18 7 -18 8 0 15 6 15 13
0 6 4 24 7 38 l7 26 -83 0 c-65 0 -86 -3 -95 -16 -7 -9 -13 -12 -13 -7 0 5 -8
2 -17 -5 -15 -12 -16 -12 -10 5 4 10 3 24 -2 30 -7 8 9 11 57 11 62 0 67 1 66
22 0 12 2 22 5 21 3 0 17 1 31 2 l25 2 -25 7 c-75 23 276 24 660 3 69 -4 127
-4 128 0 2 5 19 8 38 8 43 0 45 20 2 21 l-33 1 30 9 c17 5 44 8 62 7 18 -1 35
1 39 5 4 4 15 0 25 -9 10 -9 22 -13 28 -9z m111 15 c0 -5 -2 -10 -4 -10 -3 0
-8 5 -11 10 -3 6 -1 10 4 10 6 0 11 -4 11 -10z m-1113 -6 c-3 -3 -12 -4 -19
-1 -8 3 -5 6 6 6 11 1 17 -2 13 -5z m4078 -14 c-3 -5 -11 -10 -16 -10 -6 0 -7
5 -4 10 3 6 11 10 16 10 6 0 7 -4 4 -10z m-4605 -14 c0 -3 -4 -8 -10 -11 -5
-3 -10 -1 -10 4 0 6 5 11 10 11 6 0 10 -2 10 -4z m364 -69 c3 3 6 1 6 -5 0 -6
-4 -14 -10 -17 -5 -3 -10 -1 -10 6 0 7 -10 9 -25 7 -20 -4 -23 -3 -14 8 8 9
16 11 29 4 9 -5 20 -6 24 -3z m1840 -25 c43 -87 15 -216 -69 -307 -41 -45 -37
-33 12 39 63 92 77 200 37 277 -8 17 -11 28 -5 24 6 -3 17 -18 25 -33z m3886
24 c0 -9 -18 -15 -52 -19 -63 -8 -71 -3 -27 17 44 19 79 20 79 2z m-5880 -30
c0 -6 5 -4 10 4 7 11 8 6 5 -17 -2 -18 1 -33 6 -33 6 0 7 -4 4 -10 -3 -5 -39
-10 -80 -10 -50 0 -75 -4 -78 -12 -3 -10 -7 -10 -17 -1 -10 9 -9 15 4 28 9 9
16 24 17 33 0 14 2 13 9 -3 5 -11 9 -14 9 -7 1 7 5 10 11 7 5 -3 7 0 4 8 -3
10 4 18 22 24 34 11 74 5 74 -11z m1737 2 c-3 -8 -6 -5 -6 6 -1 11 2 17 5 13
3 -3 4 -12 1 -19z m-1640 -45 c-3 -10 -5 -4 -5 12 0 17 2 24 5 18 2 -7 2 -21
0 -30z m1723 -1 c0 -5 -11 -14 -25 -20 -30 -14 -30 -7 -5 -123 22 -105 24
-129 11 -129 -4 0 -14 28 -20 63 -7 34 -19 81 -27 105 -20 61 -18 75 19 94 37
19 47 21 47 10z m60 -73 c0 -42 -19 -65 -21 -25 -3 48 -4 51 -13 57 -5 4 -5
12 -1 18 13 22 35 -9 35 -50z m2836 37 c12 -13 8 -19 -28 -51 -23 -19 -54 -38
-68 -41 -14 -3 -35 -10 -48 -15 -28 -11 -132 -24 -132 -16 0 3 24 11 54 17 53
11 156 69 185 103 16 21 19 21 37 3z m-4719 -2 c-3 -3 -12 -4 -19 -1 -8 3 -5
6 6 6 11 1 17 -2 13 -5z m-469 -11 c-21 -2 -57 -2 -80 0 -24 2 -7 4 37 4 44 0
63 -2 43 -4z m4612 -13 c0 -5 -2 -10 -4 -10 -3 0 -8 5 -11 10 -3 6 -1 10 4 10
6 0 11 -4 11 -10z m-3132 -7 c-15 -2 -42 -2 -60 0 -18 2 -6 4 27 4 33 0 48 -2
33 -4z m3927 -103 c13 -5 14 -9 5 -9 -8 0 -24 4 -35 9 -13 5 -14 9 -5 9 8 0
24 -4 35 -9z m-3188 -42 c-3 -8 -6 -5 -6 6 -1 11 2 17 5 13 3 -3 4 -12 1 -19z
m-57 -63 c0 -8 -4 -15 -10 -15 -5 0 -7 7 -4 15 4 8 8 15 10 15 2 0 4 -7 4 -15z
m4060 -149 c0 -10 -7 -12 -22 -8 -21 5 -21 6 -2 13 10 4 20 8 22 8 1 1 2 -5 2
-13z m230 -36 c0 -6 -11 -8 -27 -4 -40 10 -41 14 -5 14 18 0 32 -5 32 -10z
m-320 -9 c0 -12 -20 -25 -27 -18 -7 7 6 27 18 27 5 0 9 -4 9 -9z m600 -21 c0
-5 -4 -10 -10 -10 -5 0 -10 5 -10 10 0 6 5 10 10 10 6 0 10 -4 10 -10z m713
-54 c-4 -18 -13 -25 -41 -30 -21 -3 -51 -8 -69 -12 -27 -5 -31 -3 -29 12 2 13
15 22 42 27 37 8 98 24 100 26 1 1 -1 -10 -3 -23z m37 -6 c0 -5 -5 -10 -11
-10 -5 0 -7 5 -4 10 3 6 8 10 11 10 2 0 4 -4 4 -10z m-190 -34 c0 -3 -4 -8
-10 -11 -5 -3 -10 -1 -10 4 0 6 5 11 10 11 6 0 10 -2 10 -4z m-4409 -223 c29
-49 59 -98 67 -110 8 -13 12 -23 10 -23 -3 0 -24 30 -48 68 -23 37 -53 83 -66
103 -22 33 -29 49 -20 49 2 0 27 -39 57 -87z m99 -163 c6 -11 8 -20 6 -20 -3
0 -10 9 -16 20 -6 11 -8 20 -6 20 3 0 10 -9 16 -20z"/>
<path d="M1518 8563 c7 -3 16 -2 19 1 4 3 -2 6 -13 5 -11 0 -14 -3 -6 -6z"/>
<path d="M656 8391 c-3 -4 -1 -13 4 -21 7 -12 11 -12 27 2 10 8 25 18 33 20 8
3 -2 6 -23 6 -20 0 -39 -3 -41 -7z"/>
<path d="M2568 8373 c7 -3 16 -2 19 1 4 3 -2 6 -13 5 -11 0 -14 -3 -6 -6z"/>
<path d="M2590 8360 c-12 -8 -12 -10 2 -15 20 -8 41 2 33 16 -8 11 -16 11 -35
-1z"/>
<path d="M2298 8293 c7 -3 16 -2 19 1 4 3 -2 6 -13 5 -11 0 -14 -3 -6 -6z"/>
<path d="M1783 7903 c20 -2 54 -2 75 0 20 2 3 4 -38 4 -41 0 -58 -2 -37 -4z"/>
<path d="M240 7265 c0 -8 5 -15 10 -15 6 0 10 7 10 15 0 8 -4 15 -10 15 -5 0
-10 -7 -10 -15z"/>
<path d="M400 7190 c0 -5 4 -10 9 -10 6 0 13 5 16 10 3 6 -1 10 -9 10 -9 0
-16 -4 -16 -10z"/>
<path d="M466 7161 c-4 -7 -5 -15 -2 -18 9 -9 19 4 14 18 -4 11 -6 11 -12 0z"/>
<path d="M490 7163 c0 -6 -2 -18 -5 -25 -4 -9 2 -14 15 -15 11 -1 20 2 20 6 0
12 -29 47 -30 34z"/>
<path d="M320 7070 c0 -5 14 -10 30 -10 17 0 30 5 30 10 0 6 -13 10 -30 10
-16 0 -30 -4 -30 -10z"/>
<path d="M2358 5903 c6 -2 18 -2 25 0 6 3 1 5 -13 5 -14 0 -19 -2 -12 -5z"/>
<path d="M125 5630 c-3 -5 1 -10 10 -10 9 0 13 5 10 10 -3 6 -8 10 -10 10 -2
0 -7 -4 -10 -10z"/>
<path d="M1990 5160 c-13 -9 -13 -10 0 -9 8 0 24 4 35 9 l20 9 -20 0 c-11 0
-27 -4 -35 -9z"/>
<path d="M1306 5133 c-8 -19 39 -17 54 2 11 13 9 15 -18 13 -17 -1 -34 -8 -36
-15z"/>
<path d="M1455 5110 c-3 -5 -1 -10 4 -10 6 0 11 5 11 10 0 6 -2 10 -4 10 -3 0
-8 -4 -11 -10z"/>
<path d="M963 4873 c-29 -9 -53 -19 -53 -23 0 -13 51 -30 89 -30 39 0 99 16
115 31 10 9 -20 23 -69 31 -16 3 -54 -1 -82 -9z"/>
<path d="M2170 4099 c0 -5 5 -7 10 -4 6 3 10 8 10 11 0 2 -4 4 -10 4 -5 0 -10
-5 -10 -11z"/>
<path d="M2410 3779 c0 -5 5 -7 10 -4 6 3 10 8 10 11 0 2 -4 4 -10 4 -5 0 -10
-5 -10 -11z"/>
<path d="M2385 3750 c-3 -5 -2 -10 4 -10 5 0 13 5 16 10 3 6 2 10 -4 10 -5 0
-13 -4 -16 -10z"/>
<path d="M2257 3736 c-6 -15 1 -26 16 -26 6 0 7 3 4 7 -4 3 -2 12 4 20 9 10 8
13 -4 13 -8 0 -17 -6 -20 -14z"/>
<path d="M390 3460 c-13 -8 -12 -10 3 -10 9 0 17 5 17 10 0 12 -1 12 -20 0z"/>
<path d="M8890 3130 c-9 -6 -10 -10 -3 -10 6 0 15 5 18 10 8 12 4 12 -15 0z"/>
<path d="M3441 2604 c0 -11 3 -14 6 -6 3 7 2 16 -1 19 -3 4 -6 -2 -5 -13z"/>
<path d="M5841 2504 c0 -11 3 -14 6 -6 3 7 2 16 -1 19 -3 4 -6 -2 -5 -13z"/>
<path d="M5790 2475 c0 -5 5 -17 10 -25 5 -8 10 -10 10 -5 0 6 -5 17 -10 25
-5 8 -10 11 -10 5z"/>
<path d="M5988 2223 c7 -3 16 -2 19 1 4 3 -2 6 -13 5 -11 0 -14 -3 -6 -6z"/>
<path d="M5200 2126 c0 -9 5 -16 10 -16 6 0 10 4 10 9 0 6 -4 13 -10 16 -5 3
-10 -1 -10 -9z"/>
<path d="M480 2294 c0 -8 5 -12 10 -9 6 4 8 11 5 16 -9 14 -15 11 -15 -7z"/>
<path d="M472 2240 c0 -19 2 -27 5 -17 2 9 2 25 0 35 -3 9 -5 1 -5 -18z"/>
<path d="M403 2195 c0 -22 2 -30 4 -17 2 12 2 30 0 40 -3 9 -5 -1 -4 -23z"/>
<path d="M477 2174 c-4 -4 -7 -17 -7 -28 1 -19 1 -20 11 -3 11 19 8 43 -4 31z"/>
<path d="M360 2059 c0 -11 4 -18 10 -14 5 3 7 12 3 20 -7 21 -13 19 -13 -6z"/>
<path d="M1519 1715 c-30 -16 -54 -65 -45 -93 4 -10 18 -30 32 -43 25 -24 28
-24 259 -27 l233 -3 7 53 c4 30 5 67 3 83 l-3 30 -95 6 c-179 12 -363 9 -391
-6z m74 -82 c3 -5 -10 -8 -28 -8 -18 0 -31 3 -28 8 2 4 15 7 28 7 13 0 26 -3
28 -7z"/>
<path d="M7195 1490 c-3 -5 -1 -10 4 -10 6 0 11 5 11 10 0 6 -2 10 -4 10 -3 0
-8 -4 -11 -10z"/>
<path d="M7006 1395 c8 -61 13 -73 35 -80 10 -4 17 -11 14 -16 -4 -5 0 -9 9
-9 8 0 16 5 18 11 2 5 23 11 47 13 55 3 74 26 65 76 -4 19 -8 36 -9 38 -5 6
-69 -35 -73 -47 -3 -9 0 -11 8 -6 9 5 11 4 6 -3 -10 -17 -46 -15 -46 2 0 8
-15 20 -34 26 -19 6 -37 16 -40 23 -3 7 -4 -6 0 -28z"/>
<path d="M7358 1308 c3 -14 15 -18 47 -18 36 0 42 3 39 18 -4 13 -15 17 -48
17 -36 0 -42 -3 -38 -17z"/>
<path d="M3030 1610 c-8 -5 -10 -10 -5 -10 6 0 17 5 25 10 8 5 11 10 5 10 -5
0 -17 -5 -25 -10z"/>
<path d="M6587 1244 c-4 -4 -7 -14 -7 -23 0 -11 3 -12 11 -4 6 6 10 16 7 23
-2 6 -7 8 -11 4z"/>
<path d="M1098 1253 c7 -3 16 -2 19 1 4 3 -2 6 -13 5 -11 0 -14 -3 -6 -6z"/>
<path d="M1785 1110 c3 -5 8 -10 11 -10 2 0 4 5 4 10 0 6 -5 10 -11 10 -5 0
-7 -4 -4 -10z"/>
<path d="M2120 1110 c0 -6 33 -10 80 -10 44 0 83 0 87 -1 4 0 9 4 11 10 2 7
-27 11 -87 11 -54 0 -91 -4 -91 -10z"/>
<path d="M1638 973 c7 -3 16 -2 19 1 4 3 -2 6 -13 5 -11 0 -14 -3 -6 -6z"/>
<path d="M1685 972 c9 -9 75 -12 75 -4 0 4 -18 8 -41 8 -22 1 -37 -1 -34 -4z"/>
<path d="M2905 950 c3 -5 10 -10 16 -10 5 0 9 5 9 10 0 6 -7 10 -16 10 -8 0
-12 -4 -9 -10z"/>
<path d="M3018 933 c7 -3 16 -2 19 1 4 3 -2 6 -13 5 -11 0 -14 -3 -6 -6z"/>
<path d="M3081 848 c-1 -16 4 -28 9 -28 12 0 12 8 0 35 -8 18 -9 17 -9 -7z"/>
<path d="M2632 805 c0 -16 2 -22 5 -12 2 9 2 23 0 30 -3 6 -5 -1 -5 -18z"/>
<path d="M2682 9513 c4 -24 48 -25 48 -1 0 13 -7 18 -26 18 -18 0 -25 -5 -22
-17z"/>
<path d="M4962 9490 c0 -19 2 -27 5 -17 2 9 2 25 0 35 -3 9 -5 1 -5 -18z"/>
<path d="M4311 9484 c0 -11 3 -14 6 -6 3 7 2 16 -1 19 -3 4 -6 -2 -5 -13z"/>
<path d="M4180 9483 c1 -19 40 -52 70 -60 38 -10 50 -29 23 -36 -12 -3 -8 -5
10 -6 23 -1 27 3 27 28 0 25 -5 30 -44 40 -24 6 -49 17 -56 26 -13 16 -30 20
-30 8z"/>
<path d="M3810 9450 c8 -5 24 -10 34 -10 26 0 18 6 -19 14 -22 5 -26 4 -15 -4z"/>
<path d="M3985 9420 c-4 -6 7 -10 27 -9 27 0 30 2 13 9 -27 12 -33 12 -40 0z"/>
<path d="M2973 9385 c7 -13 14 -20 15 -14 5 14 -6 39 -17 39 -5 0 -4 -11 2
-25z"/>
<path d="M4181 9402 c0 -7 -8 -20 -16 -29 -9 -8 -13 -18 -10 -21 10 -11 37 26
32 44 -3 11 -5 13 -6 6z"/>
<path d="M2929 9383 c-13 -16 -12 -17 4 -4 9 7 17 15 17 17 0 8 -8 3 -21 -13z"/>
<path d="M48 9353 c6 -2 12 -16 12 -29 0 -13 5 -24 10 -24 6 0 10 14 10 30 0
25 -4 30 -22 29 -13 0 -17 -3 -10 -6z"/>
<path d="M4470 9320 c30 -23 56 -26 63 -6 8 21 -2 26 -47 26 l-41 0 25 -20z"/>
<path d="M2890 9322 c0 -7 -8 -12 -17 -12 -15 0 -16 -2 -3 -10 10 -6 17 -4 23
6 5 9 6 18 3 21 -3 4 -6 1 -6 -5z"/>
<path d="M2524 9308 c-2 -3 30 -8 71 -10 41 -2 75 0 75 4 0 9 -141 15 -146 6z"/>
<path d="M1230 9236 c0 -62 3 -76 15 -76 13 0 15 12 13 72 -2 46 -7 73 -15 76
-10 3 -13 -16 -13 -72z"/>
<path d="M2816 9290 c-19 -6 -19 -7 -1 -13 20 -8 29 -4 24 11 -2 5 -13 6 -23
2z"/>
<path d="M2972 9280 c0 -14 2 -19 5 -12 2 6 2 18 0 25 -3 6 -5 1 -5 -13z"/>
<path d="M1303 9265 c-9 -25 4 -29 17 -6 7 15 7 21 0 21 -6 0 -13 -7 -17 -15z"/>
<path d="M2840 9263 c-24 -12 -24 -13 -3 -13 12 0 25 5 28 11 11 16 2 17 -25
2z"/>
<path d="M4960 9265 c0 -9 6 -12 15 -9 8 4 15 10 15 15 0 5 -7 9 -15 9 -8 0
-15 -7 -15 -15z"/>
<path d="M2711 9259 c-13 -5 -22 -12 -19 -15 3 -3 21 2 39 10 37 16 19 21 -20
5z"/>
<path d="M2591 9230 c-9 -10 -31 -21 -49 -25 -18 -4 -31 -9 -28 -12 6 -6 137
27 149 37 5 4 -6 10 -23 12 -22 3 -37 -1 -49 -12z"/>
<path d="M2448 9173 c7 -3 16 -2 19 1 4 3 -2 6 -13 5 -11 0 -14 -3 -6 -6z"/>
<path d="M3435 9155 c-55 -13 -130 -29 -167 -36 l-68 -12 0 -98 c0 -54 4 -101
10 -104 6 -3 10 -30 10 -59 0 -56 5 -67 23 -60 8 3 11 30 9 83 -4 88 5 114 46
135 26 13 162 44 215 48 26 2 27 5 27 55 0 39 4 55 18 62 16 10 15 10 -3 10
-11 0 -65 -11 -120 -24z"/>
<path d="M2660 9151 c0 -6 14 -11 31 -11 17 0 28 -4 24 -10 -3 -5 -1 -10 5
-10 6 0 10 8 8 18 -4 19 -68 31 -68 13z"/>
<path d="M4620 9141 c0 -5 6 -14 14 -20 10 -8 16 -8 25 2 6 8 8 17 4 20 -9 10
-43 8 -43 -2z"/>
<path d="M2670 9115 c-17 -21 -9 -27 13 -10 10 7 14 16 9 19 -5 3 -15 -1 -22
-9z"/>
<path d="M2776 9121 c-3 -5 1 -11 9 -15 15 -6 29 7 18 18 -9 9 -21 8 -27 -3z"/>
<path d="M4492 9121 c-16 -10 3 -33 23 -29 10 1 20 8 22 14 4 13 -30 25 -45
15z"/>
<path d="M2618 9113 c6 -2 18 -2 25 0 6 3 1 5 -13 5 -14 0 -19 -2 -12 -5z"/>
<path d="M2830 9029 c0 -5 5 -7 10 -4 6 3 10 8 10 11 0 2 -4 4 -10 4 -5 0 -10
-5 -10 -11z"/>
<path d="M2785 9010 c3 -5 8 -10 11 -10 2 0 4 5 4 10 0 6 -5 10 -11 10 -5 0
-7 -4 -4 -10z"/>
<path d="M50 9002 c0 -12 19 -26 26 -19 2 2 -2 10 -11 17 -9 8 -15 8 -15 2z"/>
<path d="M488 8960 c5 -36 7 -35 16 3 4 19 3 27 -7 27 -9 0 -12 -9 -9 -30z"/>
<path d="M4130 8956 c0 -14 5 -26 10 -26 6 0 10 9 10 19 0 11 -4 23 -10 26 -6
4 -10 -5 -10 -19z"/>
<path d="M2690 8850 c0 -5 5 -10 10 -10 6 0 10 5 10 10 0 6 -4 10 -10 10 -5 0
-10 -4 -10 -10z"/>
<path d="M495 8810 c3 -5 8 -10 11 -10 2 0 4 5 4 10 0 6 -5 10 -11 10 -5 0 -7
-4 -4 -10z"/>
<path d="M2543 8643 c9 -2 23 -2 30 0 6 3 -1 5 -18 5 -16 0 -22 -2 -12 -5z"/>
<path d="M4993 8633 c-12 -2 -34 -18 -48 -34 -32 -39 -32 -71 0 -236 14 -70
52 -273 85 -449 61 -336 75 -381 129 -427 58 -48 73 -49 469 -38 202 6 383 7
402 2 19 -4 73 -26 120 -48 47 -23 103 -47 125 -55 22 -7 46 -19 53 -25 20
-20 36 -16 67 17 35 37 29 46 -67 91 l-73 34 130 7 c72 4 231 9 355 12 l225 4
60 -35 c33 -20 85 -45 115 -56 30 -12 61 -27 68 -34 7 -7 16 -13 18 -13 12 0
64 45 64 56 0 7 -30 30 -67 51 l-68 38 210 8 c116 4 220 9 232 12 28 6 42 50
31 97 -13 59 -284 727 -312 769 -14 21 -40 46 -58 55 -22 11 -141 28 -382 55
-555 62 -849 86 -1561 129 -93 5 -199 12 -235 14 -36 2 -75 2 -87 -1z m2113
-271 c13 -8 54 -86 54 -103 0 -8 -70 -9 -269 -4 -148 4 -280 8 -293 9 -19 1
-23 6 -21 30 1 15 9 39 18 52 l15 24 243 0 c133 0 247 -4 253 -8z m-1016 -122
c0 -5 -4 -10 -9 -10 -6 0 -13 5 -16 10 -3 6 1 10 9 10 9 0 16 -4 16 -10z
m1408 -592 c7 -29 6 -34 -12 -40 -48 -14 -76 -9 -86 18 -19 48 -14 54 40 54
47 0 50 -1 58 -32z m-2078 -14 c15 -38 13 -44 -17 -44 -16 -1 -55 -7 -88 -15
-97 -24 -99 -23 -119 58 l-6 27 110 0 c109 0 111 0 120 -26z"/>
<path d="M2520 8620 c0 -5 14 -10 30 -10 17 0 30 5 30 10 0 6 -13 10 -30 10
-16 0 -30 -4 -30 -10z"/>
<path d="M4443 8550 c-122 -3 -223 -7 -226 -10 -30 -34 -32 -60 -35 -522 -3
-465 0 -520 30 -502 8 5 9 -3 5 -24 -5 -24 -2 -32 11 -36 32 -10 406 -26 415
-17 4 4 -77 13 -180 20 -103 7 -190 14 -192 17 -3 2 1 10 7 16 7 7 66 14 159
17 189 6 150 19 -59 20 l-158 1 0 26 c0 42 35 81 88 98 84 28 283 58 347 53
89 -6 159 -47 191 -110 8 -15 17 -63 21 -108 8 -104 23 -82 23 34 0 113 -53
482 -68 473 -4 -2 -7 21 -8 53 -1 49 -50 331 -76 434 -10 41 -40 78 -60 75 -7
-1 -113 -5 -235 -8z m-153 -100 c0 -5 7 -10 15 -10 8 0 15 -4 15 -9 0 -17 -41
-7 -51 11 -7 14 -6 18 6 18 8 0 15 -4 15 -10z m129 -118 c1 -48 -3 -99 -8
-112 -5 -14 -10 -19 -10 -12 -1 6 -8 12 -16 12 -9 0 -12 6 -8 16 5 13 0 14
-28 10 -19 -4 -51 0 -74 8 l-40 14 -1 69 c-1 43 1 61 6 48 8 -19 11 -18 14 7
0 7 10 14 21 17 17 3 18 1 6 -13 -17 -21 -12 -26 33 -32 28 -3 38 0 43 13 11
28 35 52 48 47 7 -3 12 -36 14 -92z m-95 72 c9 -3 14 -10 11 -15 -7 -10 -35 0
-35 12 0 11 3 11 24 3z m243 -14 c13 0 23 -4 23 -10 0 -5 19 -15 43 -22 23 -6
45 -18 50 -25 4 -7 15 -10 25 -6 13 4 13 2 -3 -10 -19 -16 -45 -24 -32 -11 3
4 -5 15 -19 26 -19 15 -36 19 -73 16 -49 -3 -49 -3 -53 29 -3 22 -1 30 6 23 6
-6 20 -10 33 -10z m77 -81 l26 -21 -20 -28 c-11 -15 -20 -38 -20 -50 0 -11 -4
-18 -10 -15 -5 3 -10 16 -10 29 0 12 -9 32 -20 44 -16 17 -25 20 -45 12 -20
-8 -23 -6 -18 7 5 12 15 14 47 10 35 -5 39 -4 24 7 -10 7 -18 16 -18 20 0 14
39 5 64 -15z m90 -33 c-3 -8 -1 -17 5 -21 6 -3 11 1 11 10 0 9 5 13 11 10 7
-5 5 -13 -5 -24 -9 -10 -12 -22 -7 -30 7 -11 10 -10 14 5 2 10 5 0 6 -23 1
-41 -11 -63 -24 -43 -3 5 0 10 7 11 10 0 10 2 1 6 -7 2 -13 11 -13 18 0 7 -7
26 -15 41 -19 37 -19 54 0 54 8 0 12 -6 9 -14z m-161 -23 c2 -5 7 -20 11 -35
5 -21 3 -26 -8 -22 -8 3 -12 13 -9 25 3 10 0 19 -6 19 -6 0 -11 5 -11 10 0 12
17 13 23 3z m123 -5 c4 -6 8 -21 10 -32 1 -12 4 -28 6 -36 3 -8 3 -11 0 -7 -2
4 -10 0 -17 -10 -13 -17 -14 -17 -28 1 -10 14 -11 27 -3 57 10 40 19 48 32 27z
m-149 -14 c8 -21 -13 -42 -28 -27 -13 13 -5 43 11 43 6 0 13 -7 17 -16z m-263
-3 c3 -5 -1 -12 -10 -15 -8 -3 -12 -10 -9 -16 9 -14 -8 -13 -23 2 -20 20 -14
38 12 38 14 0 27 -4 30 -9z m36 -30 c0 -5 -7 -11 -15 -15 -15 -5 -20 5 -8 17
9 10 23 9 23 -2z m-65 -78 c4 -14 2 -23 -4 -23 -6 0 -11 3 -11 8 0 4 -3 18 -6
32 -8 31 11 16 21 -17z m41 22 c-8 -8 -17 -15 -20 -15 -3 0 -6 7 -6 15 0 9 9
15 21 15 18 0 19 -2 5 -15z m464 -19 c0 -3 -4 -8 -10 -11 -5 -3 -10 -1 -10 4
0 6 5 11 10 11 6 0 10 -2 10 -4z m-95 -46 c-3 -5 -15 -10 -26 -10 -11 0 -17 5
-14 10 3 6 15 10 26 10 11 0 17 -4 14 -10z m95 -20 c0 -5 -5 -10 -11 -10 -5 0
-7 5 -4 10 3 6 8 10 11 10 2 0 4 -4 4 -10z m26 -17 c-10 -10 -19 5 -10 18 6
11 8 11 12 0 2 -7 1 -15 -2 -18z"/>
<path d="M4252 8351 c-11 -6 -10 -10 5 -16 10 -5 24 -7 31 -6 8 1 24 -5 37
-13 12 -8 32 -12 44 -9 13 3 21 1 21 -6 0 -7 5 -9 10 -6 20 12 10 25 -19 25
-17 0 -33 5 -36 10 -3 6 -17 10 -30 10 -13 0 -27 5 -30 10 -7 12 -16 12 -33 1z"/>
<path d="M4370 8345 c0 -8 7 -15 15 -15 8 0 15 7 15 15 0 8 -7 15 -15 15 -8 0
-15 -7 -15 -15z"/>
<path d="M4298 8293 c7 -3 16 -2 19 1 4 3 -2 6 -13 5 -11 0 -14 -3 -6 -6z"/>
<path d="M3596 8535 c-8 -9 -18 -30 -21 -48 -7 -47 -23 -725 -17 -770 3 -24
12 -43 26 -52 20 -13 340 -95 371 -95 21 0 32 79 50 345 34 528 35 606 4 626
-8 5 -100 9 -206 9 -159 0 -194 -3 -207 -15z m211 -177 c-3 -7 -5 -2 -5 12 0
14 2 19 5 13 2 -7 2 -19 0 -25z m-32 -22 c0 -15 -4 -21 -9 -16 -5 5 -6 16 -3
24 9 22 12 20 12 -8z m135 -17 c0 -13 -28 -18 -33 -6 -3 7 3 13 14 13 11 0 19
-3 19 -7z m87 -5 c-3 -3 -12 -4 -19 -1 -8 3 -5 6 6 6 11 1 17 -2 13 -5z m-57
-58 c0 -3 -4 -8 -10 -11 -5 -3 -10 -1 -10 4 0 6 5 11 10 11 6 0 10 -2 10 -4z"/>
<path d="M431 8124 c0 -11 3 -14 6 -6 3 7 2 16 -1 19 -3 4 -6 -2 -5 -13z"/>
<path d="M574 7905 c9 -51 27 -108 32 -102 5 5 -26 130 -33 137 -3 3 -3 -13 1
-35z"/>
<path d="M2696 7908 c-2 -7 -9 -31 -14 -53 -5 -22 -13 -48 -17 -57 -4 -10 -3
-18 3 -18 8 0 21 38 37 113 5 27 -2 39 -9 15z"/>
<path d="M620 7893 c0 -15 2 -16 10 -3 8 12 12 12 18 2 7 -11 11 -10 20 0 9
11 5 14 -19 16 -22 2 -29 -2 -29 -15z"/>
<path d="M708 7893 c7 -3 16 -2 19 1 4 3 -2 6 -13 5 -11 0 -14 -3 -6 -6z"/>
<path d="M755 7890 c3 -5 11 -10 16 -10 6 0 7 5 4 10 -3 6 -11 10 -16 10 -6 0
-7 -4 -4 -10z"/>
<path d="M811 7874 c0 -11 3 -14 6 -6 3 7 2 16 -1 19 -3 4 -6 -2 -5 -13z"/>
<path d="M860 7880 c0 -5 7 -10 15 -10 8 0 15 5 15 10 0 6 -7 10 -15 10 -8 0
-15 -4 -15 -10z"/>
<path d="M2635 7885 c-5 -2 -67 -7 -137 -10 -117 -6 -128 -9 -128 -26 0 -14 7
-19 25 -19 17 0 25 6 25 17 0 14 2 14 20 -2 18 -16 20 -16 26 -1 3 9 13 16 21
16 8 0 11 -4 8 -10 -3 -5 0 -10 9 -10 8 0 16 4 18 9 2 5 17 10 33 11 46 3 57
1 50 -10 -3 -5 -2 -10 3 -10 6 0 13 7 16 16 3 8 10 12 16 9 5 -3 10 1 10 9 0
9 -1 16 -2 15 -2 0 -7 -2 -13 -4z"/>
<path d="M645 7850 c3 -5 8 -10 11 -10 2 0 4 5 4 10 0 6 -5 10 -11 10 -5 0 -7
-4 -4 -10z"/>
<path d="M2558 7843 c7 -3 16 -2 19 1 4 3 -2 6 -13 5 -11 0 -14 -3 -6 -6z"/>
<path d="M865 7830 c-3 -5 -1 -10 4 -10 6 0 11 5 11 10 0 6 -2 10 -4 10 -3 0
-8 -4 -11 -10z"/>
<path d="M2610 7820 c0 -5 5 -10 10 -10 6 0 10 5 10 10 0 6 -4 10 -10 10 -5 0
-10 -4 -10 -10z"/>
<path d="M2726 7805 c-3 -9 0 -15 9 -15 9 0 12 6 9 15 -4 8 -7 15 -9 15 -2 0
-5 -7 -9 -15z"/>
<path d="M1158 7733 c6 -2 18 -2 25 0 6 3 1 5 -13 5 -14 0 -19 -2 -12 -5z"/>
<path d="M520 7587 c0 -69 4 -99 14 -110 9 -8 64 -21 138 -30 225 -30 248 -31
249 -16 4 49 -4 186 -11 200 -7 12 -40 18 -147 28 -76 6 -162 14 -190 18 l-53
6 0 -96z"/>
<path d="M140 7643 c-8 -3 -19 -12 -23 -19 -5 -9 -27 -14 -62 -14 -42 0 -55
-4 -55 -15 0 -8 9 -15 20 -15 16 0 20 -7 20 -35 0 -31 3 -35 26 -35 15 0 32 8
39 17 10 13 16 14 26 6 8 -5 33 -13 56 -17 36 -5 46 -3 64 15 20 20 20 22 5
31 -14 8 -15 12 -4 26 11 14 10 15 -7 8 -40 -16 -54 -18 -72 -7 -10 6 -12 11
-5 11 6 0 12 11 12 25 0 25 -10 29 -40 18z"/>
<path d="M2513 7636 c-73 -6 -136 -15 -142 -21 -5 -5 -12 -54 -16 -107 -6 -85
-5 -99 9 -104 28 -11 356 27 372 43 8 8 14 26 14 41 0 15 3 57 7 95 l6 67 -59
-1 c-32 -1 -118 -7 -191 -13z"/>
<path d="M1065 7600 c4 -6 10 -50 13 -98 l7 -87 105 -6 c58 -4 306 -7 552 -8
l448 -1 4 23 c3 12 7 56 8 98 l3 76 -395 6 c-572 10 -752 9 -745 -3z"/>
<path d="M205 7460 c3 -5 13 -10 21 -10 8 0 14 5 14 10 0 6 -9 10 -21 10 -11
0 -17 -4 -14 -10z"/>
<path d="M7040 7314 c-30 -2 -188 -11 -350 -19 -359 -18 -434 -25 -423 -35 4
-5 55 -18 112 -29 l104 -21 271 19 c149 11 351 23 449 27 97 3 177 10 177 13
0 22 -226 52 -340 45z"/>
<path d="M4048 6999 c-9 -5 -13 -19 -10 -43 3 -30 10 -38 46 -55 22 -10 57
-22 76 -26 19 -4 56 -18 81 -31 38 -19 526 -217 699 -284 25 -9 97 -38 160
-63 63 -25 169 -67 235 -93 66 -26 154 -63 195 -83 l75 -35 -57 -6 c-68 -6
-88 -20 -29 -20 50 0 277 -79 490 -170 394 -168 530 -266 624 -447 64 -123
131 -287 146 -353 12 -55 125 -295 158 -337 14 -18 24 -21 45 -15 l27 7 -45
70 c-49 76 -104 187 -124 250 -60 193 -158 406 -229 500 -51 67 -93 103 -206
172 -49 31 -81 52 -70 48 11 -4 71 -27 133 -51 174 -67 644 -216 664 -211 10
3 18 0 18 -6 0 -7 -7 -117 -15 -245 -16 -257 -13 -294 33 -375 85 -150 187
-300 228 -334 56 -47 147 -83 239 -93 60 -7 105 -2 305 32 129 22 285 48 345
58 l110 18 48 -37 c26 -19 51 -47 54 -61 10 -38 -11 -178 -51 -345 -20 -82
-39 -158 -42 -167 -8 -27 40 -22 106 10 43 22 56 33 62 58 6 25 17 35 50 48
37 15 83 36 308 138 140 64 333 156 495 238 l170 85 3 143 c1 87 -1 142 -7
142 -5 0 -49 -18 -96 -40 -47 -22 -88 -40 -90 -40 -3 0 -34 -13 -69 -30 -93
-42 -115 -51 -376 -156 -129 -52 -243 -99 -253 -105 -11 -6 -20 -9 -21 -7 -3
4 13 268 22 356 l7 74 235 89 c129 49 328 124 442 166 l208 78 0 38 c0 20 -2
37 -5 37 -12 0 -191 -74 -200 -82 -5 -6 7 -3 29 6 21 9 44 16 50 16 17 0 -32
-23 -104 -50 -36 -12 -141 -52 -235 -88 -190 -72 -392 -142 -412 -142 -7 0
-13 9 -13 20 0 22 28 39 110 65 30 10 60 22 67 27 7 5 21 7 33 3 19 -6 79 26
88 47 2 4 17 8 33 8 16 0 57 12 92 26 34 14 121 45 192 70 272 92 270 92 273
114 l3 20 -53 -21 c-50 -20 -184 -68 -257 -92 -18 -6 -35 -17 -38 -23 -3 -7
-10 -11 -17 -8 -7 3 -62 -13 -121 -36 -60 -23 -147 -54 -194 -70 -47 -15 -110
-38 -139 -49 -59 -23 -72 -21 -72 13 0 76 5 81 108 108 142 38 277 81 356 112
85 34 315 135 377 166 l47 23 1 70 c1 52 -2 68 -11 64 -96 -40 -246 -97 -255
-97 -7 0 -26 -27 -43 -59 -16 -33 -34 -62 -40 -66 -5 -3 -10 -10 -10 -14 0 -5
75 22 166 60 168 70 186 76 169 60 -15 -14 -349 -151 -367 -151 -6 0 -20 -8
-31 -17 -19 -17 -20 -17 -8 5 6 12 22 29 34 37 22 14 94 122 86 129 -2 2 -22
11 -43 20 -38 16 -40 16 -65 -7 -14 -13 -52 -43 -83 -66 -32 -24 -58 -49 -58
-56 0 -16 77 -74 99 -76 9 -1 0 -5 -19 -9 -19 -4 -112 -28 -207 -54 -176 -47
-204 -53 -188 -37 6 5 73 25 150 46 77 21 144 40 148 42 4 3 3 11 -4 19 -17
20 -74 61 -65 46 9 -14 -15 -25 -104 -48 -115 -29 -130 -32 -130 -24 0 4 48
20 108 35 113 30 118 32 110 40 -5 5 -155 -25 -204 -40 -18 -6 -18 -6 -1 5 10
7 60 22 110 34 l92 22 -3 34 c-1 19 -5 36 -8 39 -2 3 -47 -6 -100 -18 -52 -13
-98 -21 -101 -18 -6 6 20 14 160 47 84 21 97 27 97 44 0 44 -11 45 -115 15
-100 -29 -145 -36 -145 -21 0 4 40 17 88 29 109 27 154 44 130 50 -19 5 -25
23 -8 23 6 0 10 8 10 18 0 18 33 52 50 52 6 0 10 5 10 11 0 10 -11 10 -110 -6
-19 -2 3 6 50 19 47 13 92 27 102 30 15 7 34 53 25 62 -1 2 -73 -15 -157 -38
-85 -22 -164 -43 -175 -46 -13 -3 -17 -1 -10 5 6 6 39 18 75 27 413 107 422
108 381 77 -14 -10 -25 -25 -27 -33 -1 -7 -15 -34 -31 -58 -17 -25 -36 -62
-42 -83 -7 -20 -21 -42 -32 -47 -16 -9 -19 -22 -19 -90 0 -43 4 -81 9 -85 5
-3 42 31 82 75 40 44 78 80 83 80 6 0 26 -16 45 -35 40 -41 46 -43 56 -12 6
19 8 19 12 5 2 -10 8 -18 13 -18 5 0 68 23 140 52 124 49 130 53 130 80 0 15
-2 28 -4 28 -2 0 -58 -20 -125 -44 -66 -24 -121 -40 -121 -36 0 4 56 27 125
50 l125 43 -1 168 c0 93 -2 169 -4 169 -3 0 -67 -16 -142 -36 -188 -49 -269
-79 -133 -49 14 3 9 -1 -10 -8 -19 -7 -159 -44 -311 -82 l-276 -69 -37 38 -36
39 -71 -7 c-39 -3 -79 -11 -90 -17 -26 -13 -24 -42 3 -54 32 -14 33 -31 4 -51
-26 -16 -88 -26 -371 -58 -245 -29 -390 -47 -440 -58 -27 -5 -81 -7 -120 -4
-38 3 -107 8 -151 12 -91 7 -173 -12 -208 -49 -13 -14 -21 -16 -24 -8 -3 9 -7
9 -18 0 -12 -10 -14 -5 -9 33 4 32 1 49 -8 57 -8 6 -77 29 -153 50 -266 74
-380 109 -469 143 -252 97 -607 235 -932 364 -199 79 -370 144 -380 144 -11 0
-23 4 -28 9 -15 14 -196 83 -203 77 -3 -3 -10 0 -16 8 -6 7 -65 33 -131 56
-165 58 -586 218 -607 230 -10 5 -24 7 -33 4 -21 -8 -73 14 -85 36 -11 21 -42
30 -62 19z m5529 -925 c-3 -3 -12 -4 -19 -1 -8 3 -5 6 6 6 11 1 17 -2 13 -5z
m-289 -26 c20 -20 14 -27 -13 -15 -14 7 -25 15 -25 20 0 11 25 8 38 -5z m207
2 c-27 -12 -43 -12 -25 0 8 5 22 9 30 9 10 0 8 -3 -5 -9z m-95 -30 c-30 -11
-64 -19 -75 -19 -22 1 91 37 115 37 8 0 -10 -8 -40 -18z m-171 -82 c1 -21 -3
-38 -9 -38 -6 0 -10 25 -9 58 0 41 3 51 9 37 5 -11 9 -37 9 -57z m-394 -68
c-11 -5 -29 -8 -40 -8 -16 0 -15 2 5 8 34 11 60 11 35 0z m-65 -14 c0 -2 -11
-6 -25 -8 -13 -3 -22 -1 -19 3 5 9 44 13 44 5z m-512 -61 c-4 -19 -1 -25 12
-25 19 0 34 26 24 41 -3 5 8 9 23 9 20 0 29 -5 30 -17 1 -10 4 -65 7 -123 3
-58 8 -129 11 -157 3 -29 1 -53 -4 -53 -5 0 -11 -9 -14 -19 -3 -13 0 -18 8
-15 8 3 12 -3 11 -18 -2 -29 14 -81 28 -90 6 -5 1 -8 -12 -8 -21 0 -22 -3 -17
-45 4 -36 2 -45 -10 -45 -8 0 -15 -4 -15 -10 0 -16 10 -12 42 15 17 14 33 24
35 21 3 -2 -1 -45 -7 -95 -13 -90 -13 -91 -41 -92 -37 -2 -34 -1 -103 -32 -32
-15 -60 -27 -62 -27 -2 0 1 12 6 26 22 58 -1 61 -30 4 -14 -28 -29 -41 -48
-45 -15 -4 -74 -17 -132 -30 -85 -20 -319 -58 -475 -78 -16 -2 -37 -6 -45 -8
-9 -3 -32 23 -63 69 -57 86 -73 91 -23 7 46 -75 66 -96 85 -91 9 3 72 12 141
21 129 16 460 67 565 87 33 6 91 24 129 40 38 15 71 28 74 28 9 0 -5 -101 -15
-111 -6 -6 -48 -19 -93 -29 -147 -33 -113 -37 120 -14 l65 7 -32 -30 c-31 -28
-45 -32 -300 -72 -148 -23 -304 -49 -349 -57 -74 -14 -198 -15 -220 -1 -5 3
-28 10 -51 16 -43 12 -103 54 -103 74 0 6 -8 20 -19 31 -28 31 -181 285 -181
300 0 24 28 25 57 3 15 -12 23 -15 17 -7 -31 39 -34 92 -17 309 9 119 20 219
25 222 5 3 9 9 9 13 -4 26 3 37 29 51 24 13 29 13 24 1 -3 -8 -14 -16 -25 -19
-10 -3 -19 -11 -19 -17 0 -10 4 -10 15 0 9 7 19 10 22 6 4 -4 1 -11 -7 -16 -8
-5 -12 -11 -9 -14 3 -3 21 5 39 19 19 14 40 25 47 25 17 0 17 17 1 24 -7 3 3
3 22 -1 36 -6 114 -6 186 1 l41 4 -26 -30 c-14 -17 -33 -38 -41 -47 -14 -14
-13 -18 5 -34 20 -17 20 -17 -10 -15 -36 4 -45 31 -18 56 10 9 24 25 32 35 12
15 10 17 -24 17 -29 0 -36 -3 -31 -15 3 -8 2 -15 -3 -15 -15 0 -41 -133 -41
-205 1 -122 60 -208 143 -208 44 0 110 30 101 45 -3 4 -2 8 3 8 15 0 100 85
124 125 14 22 31 60 39 85 7 25 17 50 22 56 12 17 17 147 6 161 -7 8 9 13 59
18 37 3 97 10 133 14 118 15 123 14 118 -14z m-428 -26 c-91 -13 -119 -26
-135 -65 -8 -19 -19 -34 -24 -34 -16 0 -13 22 5 48 8 12 13 26 10 31 -7 11 97
28 164 28 38 1 35 -1 -20 -8z m60 -18 c0 -12 -28 -22 -34 -12 -3 5 -3 11 1 15
9 9 33 7 33 -3z m-7 -94 c4 3 7 -5 7 -19 0 -35 -12 -43 -26 -17 l-11 22 -12
-21 c-10 -20 -9 -23 14 -32 31 -12 31 -31 1 -95 -28 -60 -65 -96 -130 -129
-53 -27 -106 -26 -139 3 -24 20 -49 81 -43 103 2 10 1 20 -3 23 -14 8 -4 50
10 46 8 -2 31 -6 52 -9 55 -6 53 -17 -4 -15 -27 1 -49 -2 -49 -7 0 -6 10 -10
23 -10 29 0 51 -15 43 -29 -4 -6 -12 -9 -17 -6 -13 9 -11 -7 6 -49 18 -42 30
-47 22 -10 -3 18 -1 22 6 15 15 -15 27 -14 27 4 0 8 5 15 10 15 6 0 10 5 10
10 0 6 -9 10 -19 10 -22 0 -36 16 -22 24 5 4 12 2 16 -4 3 -5 14 -10 23 -10
15 1 15 2 -2 15 -19 14 -18 15 10 15 16 0 40 6 54 13 27 14 72 75 65 88 -3 4
2 23 11 43 16 32 18 34 39 20 12 -8 25 -11 28 -7z m-103 -37 c-7 -17 -22 -35
-34 -41 -19 -9 -20 -9 -3 4 9 8 22 29 28 46 6 18 14 30 17 27 2 -3 -1 -19 -8
-36z m677 24 c-3 -3 -12 -4 -19 -1 -8 3 -5 6 6 6 11 1 17 -2 13 -5z m-778 -13
c7 -5 12 -14 9 -21 -2 -7 -10 -4 -22 9 -19 21 -12 28 13 12z m756 -211 c-3 -5
-16 -10 -28 -9 -21 0 -21 1 -2 9 28 12 37 12 30 0z m-5 -90 c0 -5 -5 -10 -11
-10 -5 0 -7 5 -4 10 3 6 8 10 11 10 2 0 4 -4 4 -10z"/>
<path d="M7520 5729 c0 -5 5 -7 10 -4 6 3 10 8 10 11 0 2 -4 4 -10 4 -5 0 -10
-5 -10 -11z"/>
<path d="M8137 5642 c-22 -24 -21 -45 1 -65 24 -22 55 -22 74 1 19 21 9 56
-21 71 -27 15 -35 14 -54 -7z"/>
<path d="M8340 5380 c0 -5 5 -10 11 -10 5 0 7 5 4 10 -3 6 -8 10 -11 10 -2 0
-4 -4 -4 -10z"/>
<path d="M8140 5173 c-81 -12 -90 -15 -90 -28 0 -8 -7 -15 -15 -15 -9 0 -12
-6 -9 -15 5 -12 -3 -15 -35 -15 -40 0 -40 0 -24 20 10 11 28 20 40 20 13 0 23
3 23 8 0 4 -20 6 -45 4 -36 -3 -45 -8 -45 -23 0 -10 -6 -19 -14 -19 -9 0 -13
-8 -10 -22 2 -13 2 -18 -2 -11 -4 9 -20 11 -52 6 l-47 -6 27 22 c14 11 37 25
50 30 22 9 21 10 -9 10 -17 1 -39 -2 -49 -6 -16 -6 -16 -7 2 -13 16 -6 13 -8
-14 -15 -22 -4 -32 -12 -28 -20 6 -15 -48 -24 -85 -14 -19 5 -20 7 -5 8 11 1
17 4 13 7 -10 11 -46 -7 -41 -20 4 -10 -9 -14 -51 -15 -42 -1 -54 2 -49 12 4
6 -1 5 -12 -4 -10 -9 -26 -19 -34 -23 -24 -10 234 4 365 20 226 26 266 35 276
62 11 28 12 62 2 61 -5 -1 -19 -3 -33 -6z m-10 -38 c0 -7 -7 -16 -16 -19 -25
-9 -54 -7 -54 5 0 5 4 8 8 5 5 -3 16 4 25 15 18 21 37 18 37 -6z m-103 -51
c-3 -3 -12 -4 -19 -1 -8 3 -5 6 6 6 11 1 17 -2 13 -5z"/>
<path d="M7700 5120 c-8 -5 -12 -10 -7 -11 22 -4 45 -1 67 9 24 10 24 11 -10
11 -19 0 -42 -4 -50 -9z"/>
<path d="M7527 5099 c-3 -10 -1 -19 4 -19 5 0 9 5 9 11 0 7 10 9 25 7 14 -3
25 -1 25 4 0 5 3 7 8 4 4 -2 23 -1 42 4 29 6 22 8 -37 8 -62 0 -72 -2 -76 -19z"/>
<path d="M8108 5053 c6 -2 18 -2 25 0 6 3 1 5 -13 5 -14 0 -19 -2 -12 -5z"/>
<path d="M7958 5033 c7 -3 16 -2 19 1 4 3 -2 6 -13 5 -11 0 -14 -3 -6 -6z"/>
<path d="M7455 4999 c-10 -15 1 -23 20 -15 9 3 13 10 10 16 -8 13 -22 13 -30
-1z"/>
<path d="M8100 4870 c-11 -7 -1 -9 32 -8 27 1 42 6 35 10 -17 11 -49 10 -67
-2z"/>
<path d="M7745 4810 c-11 -5 -40 -9 -65 -10 -25 -1 -36 -5 -26 -7 28 -7 146 7
146 18 0 11 -28 11 -55 -1z"/>
<path d="M7716 5474 c-9 -22 -8 -24 9 -18 8 4 15 12 15 20 0 19 -16 18 -24 -2z"/>
<path d="M7742 5426 c7 -8 15 -12 17 -11 5 6 -10 25 -20 25 -5 0 -4 -6 3 -14z"/>
<path d="M4975 6961 c-3 -5 -1 -12 5 -16 5 -3 10 1 10 9 0 18 -6 21 -15 7z"/>
<path d="M5631 6865 c4 -4 350 -106 414 -122 11 -3 72 -20 135 -39 184 -53
311 -89 525 -149 110 -31 246 -69 301 -86 100 -29 153 -38 104 -17 -14 5 -106
32 -205 60 -181 49 -918 259 -1137 324 -111 32 -147 40 -137 29z"/>
<path d="M4975 6761 c-3 -5 -1 -12 5 -16 5 -3 10 1 10 9 0 18 -6 21 -15 7z"/>
<path d="M9585 6660 c3 -5 8 -10 11 -10 2 0 4 5 4 10 0 6 -5 10 -11 10 -5 0
-7 -4 -4 -10z"/>
<path d="M5987 6526 c-7 -18 32 -198 47 -212 18 -17 427 -155 450 -152 24 3
25 28 5 115 -13 56 -9 53 -135 103 -40 16 -135 58 -212 94 -77 37 -143 66
-145 66 -3 0 -7 -6 -10 -14z"/>
<path d="M7185 6420 c3 -5 13 -10 21 -10 8 0 12 5 9 10 -3 6 -13 10 -21 10 -8
0 -12 -4 -9 -10z"/>
<path d="M7325 6385 c17 -8 75 -26 130 -41 55 -15 155 -42 223 -61 68 -19 125
-33 128 -31 2 3 -81 28 -184 57 -103 29 -215 62 -249 72 -72 22 -91 24 -48 4z"/>
<path d="M280 6375 c0 -8 5 -15 10 -15 6 0 10 7 10 15 0 8 -4 15 -10 15 -5 0
-10 -7 -10 -15z"/>
<path d="M7208 6366 c-67 -14 -77 -22 -107 -80 l-22 -45 -52 20 c-83 33 -84
33 -103 4 -17 -27 -17 -28 2 -42 10 -8 70 -40 133 -70 107 -53 116 -55 170
-50 31 4 79 14 106 22 101 33 102 34 97 62 -3 14 -13 28 -24 31 -14 3 -16 7
-7 13 8 5 0 10 -23 14 -48 9 -74 3 -70 -17 4 -23 -30 -31 -60 -15 -21 11 -23
15 -11 26 8 7 23 11 34 8 16 -4 19 -2 14 10 -3 9 0 20 7 24 11 7 10 13 -1 31
-7 13 -10 20 -6 16 4 -4 13 -2 20 5 9 9 9 16 1 29 -12 21 -20 21 -98 4z m32
-40 c0 -3 -4 -8 -10 -11 -5 -3 -10 -1 -10 4 0 6 5 11 10 11 6 0 10 -2 10 -4z
m-90 -47 c0 -5 -4 -9 -10 -9 -5 0 -10 7 -10 16 0 8 5 12 10 9 6 -3 10 -10 10
-16z m50 -64 c0 -8 5 -15 12 -15 6 0 8 -3 5 -6 -8 -8 -37 14 -37 27 0 5 5 9
10 9 6 0 10 -7 10 -15z m180 -5 c0 -5 -5 -10 -11 -10 -5 0 -7 5 -4 10 3 6 8
10 11 10 2 0 4 -4 4 -10z"/>
<path d="M32 6352 c-29 -3 -32 -6 -32 -38 l0 -34 85 0 c47 0 85 3 85 8 0 4 -9
21 -19 38 -19 32 -31 34 -119 26z"/>
<path d="M957 6344 c-3 -3 -3 -13 0 -22 6 -13 8 -13 13 4 5 14 11 5 24 -38 18
-64 20 -78 7 -78 -4 0 -6 -11 -3 -25 4 -21 10 -25 41 -24 32 0 33 1 14 9 -13
5 -23 14 -23 21 0 8 64 10 225 7 177 -2 224 0 220 10 -7 18 6 15 21 -5 13 -17
13 -17 14 2 0 17 2 17 10 5 5 -8 19 -16 30 -16 11 -1 54 -7 94 -14 55 -9 86
-10 125 -1 29 6 68 11 86 11 21 0 35 5 35 13 0 9 2 9 8 -1 5 -7 32 -14 62 -15
51 -2 55 0 64 24 17 48 3 60 -61 57 -49 -3 -58 -6 -55 -20 2 -10 -2 -18 -8
-18 -5 0 -10 9 -10 20 0 11 -4 20 -10 20 -5 0 -10 -11 -10 -25 0 -14 -5 -25
-11 -25 -7 0 -9 10 -7 25 4 21 1 25 -17 25 -23 0 -35 -17 -35 -51 0 -35 -19
-20 -23 19 l-4 37 -1 -36 c-2 -32 -5 -36 -31 -36 -27 0 -30 4 -34 36 l-4 36
-1 -37 c-1 -21 -6 -38 -11 -38 -6 0 -12 17 -14 38 l-4 37 -1 -37 c-1 -26 -7
-38 -17 -38 -10 0 -15 11 -16 38 l-2 37 -7 -40 c-6 -40 -15 -35 -23 15 -4 24
-4 24 -6 -2 0 -18 -7 -28 -16 -28 -9 0 -16 10 -16 28 -2 23 -2 24 -6 5 -2 -13
-9 -23 -14 -23 -5 0 -10 10 -10 23 -1 16 -2 18 -6 5 -6 -26 -31 -22 -36 5 l-4
22 -2 -22 c-1 -28 -21 -31 -21 -3 0 19 -7 20 -115 20 -105 0 -120 2 -165 26
-27 14 -56 27 -64 28 -9 1 -19 5 -22 9 -9 9 -138 9 -147 1z m81 -86 c6 -21 7
-40 2 -43 -12 -7 -17 3 -25 55 -8 54 8 45 23 -12z m37 -15 c4 -19 3 -33 -3
-33 -11 0 -22 34 -22 70 1 32 14 10 25 -37z m35 -11 c0 -13 -4 -20 -10 -17 -5
3 -10 21 -10 38 0 24 3 28 10 17 5 -8 10 -25 10 -38z m40 -9 c0 -7 -4 -13 -10
-13 -5 0 -10 12 -10 28 0 21 2 24 10 12 5 -8 10 -21 10 -27z m690 18 c0 -22
-16 -36 -24 -22 -8 12 3 41 15 41 5 0 9 -9 9 -19z m-660 -17 c0 -8 -4 -12 -10
-9 -5 3 -10 10 -10 16 0 5 5 9 10 9 6 0 10 -7 10 -16z"/>
<path d="M5070 6285 c0 -8 -5 -15 -12 -15 -9 0 -9 -3 0 -12 14 -14 17 -11 26
20 5 13 3 22 -3 22 -6 0 -11 -7 -11 -15z"/>
<path d="M5101 6268 c1 -19 2 -20 6 -4 4 15 7 16 15 5 8 -12 9 -12 6 0 -7 25
-28 24 -27 -1z"/>
<path d="M1737 6257 c-3 -8 -1 -20 4 -28 6 -10 9 -7 9 14 0 29 -5 35 -13 14z"/>
<path d="M5120 6234 c0 -8 5 -12 10 -9 6 4 8 11 5 16 -9 14 -15 11 -15 -7z"/>
<path d="M7821 6246 c2 -2 18 -6 34 -10 22 -5 26 -4 15 4 -14 9 -59 15 -49 6z"/>
<path d="M7898 6223 c7 -3 16 -2 19 1 4 3 -2 6 -13 5 -11 0 -14 -3 -6 -6z"/>
<path d="M7 6213 c7 -2 19 -2 26 0 6 3 1 5 -13 5 -14 0 -19 -2 -13 -5z"/>
<path d="M300 6199 c0 -5 5 -7 10 -4 6 3 10 8 10 11 0 2 -4 4 -10 4 -5 0 -10
-5 -10 -11z"/>
<path d="M333 6195 c-19 -21 -16 -27 10 -23 12 2 22 9 22 17 0 20 -18 23 -32
6z"/>
<path d="M7998 6193 c7 -3 16 -2 19 1 4 3 -2 6 -13 5 -11 0 -14 -3 -6 -6z"/>
<path d="M8045 6180 c11 -5 31 -8 45 -8 l25 0 -25 8 c-14 4 -34 8 -45 8 l-20
1 20 -9z"/>
<path d="M8131 6181 c-8 -6 -9 -11 -3 -15 6 -3 14 -1 17 5 9 14 2 20 -14 10z"/>
<path d="M2991 6161 c-11 -7 -10 -11 5 -19 23 -12 44 -5 44 14 0 16 -27 18
-49 5z m36 -7 c-3 -3 -12 -4 -19 -1 -8 3 -5 6 6 6 11 1 17 -2 13 -5z"/>
<path d="M360 6099 c0 -17 19 -29 46 -29 17 0 19 26 3 36 -6 3 -15 0 -20 -7
-8 -12 -11 -12 -19 1 -8 13 -10 13 -10 -1z"/>
<path d="M4981 6094 c0 -11 3 -14 6 -6 3 7 2 16 -1 19 -3 4 -6 -2 -5 -13z"/>
<path d="M2970 6059 c0 -6 -9 -8 -20 -4 -11 4 -20 2 -20 -4 0 -12 20 -14 44
-5 18 7 22 24 6 24 -5 0 -10 -5 -10 -11z"/>
<path d="M8808 6053 c7 -3 16 -2 19 1 4 3 -2 6 -13 5 -11 0 -14 -3 -6 -6z"/>
<path d="M408 6043 c7 -3 16 -2 19 1 4 3 -2 6 -13 5 -11 0 -14 -3 -6 -6z"/>
<path d="M488 6043 c7 -3 16 -2 19 1 4 3 -2 6 -13 5 -11 0 -14 -3 -6 -6z"/>
<path d="M2536 6031 c-3 -5 9 -11 27 -14 36 -5 50 0 42 14 -8 12 -62 12 -69 0z"/>
<path d="M4990 5894 c0 -8 5 -12 10 -9 6 3 10 10 10 16 0 5 -4 9 -10 9 -5 0
-10 -7 -10 -16z"/>
<path d="M6759 5733 c-6 -56 -5 -94 3 -99 6 -4 8 2 3 16 -5 15 -4 20 4 16 6
-4 11 -15 11 -25 0 -15 24 -26 118 -55 64 -21 123 -39 130 -41 14 -5 19 4 26
48 8 45 -9 74 -46 82 -28 5 -166 42 -230 61 -10 3 -18 2 -19 -3z"/>
<path d="M8335 4605 c-20 -8 -476 -75 -639 -94 -135 -16 -173 -24 -188 -39
-13 -13 -31 -76 -59 -216 -22 -109 -38 -204 -35 -212 7 -19 43 -18 263 11 243
32 571 93 601 112 13 8 32 33 42 56 21 48 69 257 77 335 l6 52 -29 -1 c-16 0
-33 -2 -39 -4z"/>
<path d="M1746 3134 c-3 -26 -5 -104 -5 -173 2 -114 3 -120 10 -61 9 73 13
269 6 276 -2 3 -7 -16 -11 -42z"/>
<path d="M1260 3023 c9 -19 8 -23 -4 -23 -8 0 -17 6 -20 13 -3 9 -9 7 -19 -5
-15 -18 -33 -25 -23 -9 3 5 -1 11 -9 15 -9 3 -15 0 -15 -9 0 -9 -10 -15 -22
-16 -22 0 -22 -1 -3 -9 17 -7 17 -9 3 -9 -10 -1 -18 -6 -18 -12 0 -6 9 -8 20
-4 11 4 20 2 20 -4 0 -6 -8 -11 -17 -11 -15 0 -16 -2 -3 -10 9 -6 10 -10 3
-10 -6 0 -15 5 -19 11 -11 19 -20 -7 -16 -46 l4 -35 177 0 c124 0 181 4 189
12 9 9 12 9 12 -1 0 -7 5 -9 10 -6 6 4 1 15 -14 26 -14 11 -22 26 -20 36 7 32
-21 54 -80 62 -44 6 -56 5 -56 -6 0 -20 -18 -15 -25 7 -4 11 -10 18 -15 15 -4
-3 -18 7 -30 22 -16 21 -19 23 -10 6z"/>
<path d="M1090 2890 c0 -5 5 -10 10 -10 6 0 10 5 10 10 0 6 -4 10 -10 10 -5 0
-10 -4 -10 -10z"/>
<path d="M701 2861 c-10 -6 -9 -10 5 -15 20 -8 25 -4 16 11 -4 7 -13 9 -21 4z"/>
<path d="M1020 2860 c0 -5 5 -10 10 -10 6 0 10 5 10 10 0 6 -4 10 -10 10 -5 0
-10 -4 -10 -10z"/>
<path d="M1044 2550 c0 -102 2 -143 3 -92 2 50 2 134 0 185 -1 50 -3 9 -3 -93z"/>
<path d="M1690 2719 c0 -5 -4 -7 -10 -4 -13 8 -13 -11 0 -36 21 -38 71 -17 62
27 -3 17 -11 24 -28 24 -13 0 -24 -5 -24 -11z"/>
<path d="M205 2709 c-4 -6 -5 -13 -2 -16 7 -7 27 6 27 18 0 12 -17 12 -25 -2z"/>
<path d="M83 2660 c0 -30 2 -43 4 -27 2 15 2 39 0 55 -2 15 -4 2 -4 -28z"/>
<path d="M1785 2664 c-94 -22 -117 -24 -362 -21 -261 2 -262 2 -285 -21 -22
-22 -23 -31 -32 -286 -5 -145 -6 -275 -2 -290 l7 -27 61 51 c127 106 242 152
383 153 184 1 337 -72 452 -215 l46 -58 77 0 c93 0 136 14 154 49 10 18 15
101 21 287 6 226 5 266 -9 292 -8 16 -23 33 -33 38 -10 5 -97 11 -193 14 -172
5 -175 5 -172 27 2 12 -1 23 -5 26 -4 2 -53 -6 -108 -19z"/>
<path d="M303 2610 c1 -22 23 -35 33 -19 9 15 -3 39 -20 39 -9 0 -14 -8 -13
-20z"/>
<path d="M2760 2611 c0 -5 5 -13 10 -16 6 -3 10 -2 10 4 0 5 -4 13 -10 16 -5
3 -10 2 -10 -4z"/>
<path d="M394 2579 c-3 -5 -1 -9 5 -9 6 0 8 -7 5 -15 -4 -9 0 -15 10 -15 9 0
16 2 16 4 0 2 3 11 6 19 6 16 -32 31 -42 16z"/>
<path d="M210 2542 c0 -48 6 -53 21 -15 8 21 6 30 -6 42 -13 14 -15 11 -15
-27z"/>
<path d="M71 2554 c0 -11 3 -14 6 -6 3 7 2 16 -1 19 -3 4 -6 -2 -5 -13z"/>
<path d="M967 2536 c-6 -15 1 -26 15 -26 4 0 8 9 8 20 0 23 -15 27 -23 6z"/>
<path d="M445 2521 c-3 -5 -1 -12 4 -15 12 -8 41 3 41 15 0 12 -37 12 -45 0z"/>
<path d="M52 2420 c0 -14 2 -19 5 -12 2 6 2 18 0 25 -3 6 -5 1 -5 -13z"/>
<path d="M2364 2115 c0 -159 2 -223 3 -142 2 82 2 212 0 290 -1 78 -3 12 -3
-148z"/>
<path d="M955 1946 c-11 -56 -3 -81 25 -82 14 0 30 -3 36 -7 6 -3 14 -4 18 0
14 15 4 23 -29 23 -34 0 -35 1 -35 40 0 22 5 40 10 40 6 0 10 5 10 10 0 6 -7
10 -15 10 -8 0 -17 -14 -20 -34z"/>
<path d="M1060 1970 c0 -5 4 -10 9 -10 6 0 13 5 16 10 3 6 -1 10 -9 10 -9 0
-16 -4 -16 -10z"/>
<path d="M2298 1753 c7 -3 16 -2 19 1 4 3 -2 6 -13 5 -11 0 -14 -3 -6 -6z"/>
<path d="M776 1641 c-7 -11 7 -27 23 -26 23 0 24 22 1 28 -11 3 -22 2 -24 -2z"/>
<path d="M837 1644 c-3 -3 -3 -12 0 -20 6 -16 43 -19 43 -4 0 12 -35 31 -43
24z"/>
<path d="M2731 1622 c1 -20 17 -62 18 -47 1 6 4 20 7 31 4 14 0 23 -10 27 -11
4 -16 1 -15 -11z"/>
<path d="M2865 1470 c11 -5 29 -8 40 -8 16 0 15 2 -5 8 -34 11 -60 11 -35 0z"/>
<path d="M3018 1473 c7 -3 16 -2 19 1 4 3 -2 6 -13 5 -11 0 -14 -3 -6 -6z"/>
<path d="M750 1429 c-15 -26 -10 -30 38 -36 31 -4 41 -1 46 13 8 21 4 26 -28
28 -14 0 -26 4 -26 9 0 15 -20 6 -30 -14z"/>
<path d="M6728 573 c7 -3 16 -2 19 1 4 3 -2 6 -13 5 -11 0 -14 -3 -6 -6z"/>
<path d="M6505 90 c-3 -5 3 -10 14 -10 12 0 21 5 21 10 0 6 -6 10 -14 10 -8 0
-18 -4 -21 -10z"/>
</g>
</svg>
