<?xml version="1.0" standalone="no"?>
<!DOCTYPE svg PUBLIC "-//W3C//DTD SVG 20010904//EN"
 "http://www.w3.org/TR/2001/REC-SVG-20010904/DTD/svg10.dtd">
<svg version="1.0" xmlns="http://www.w3.org/2000/svg"
 width="300.000000pt" height="168.000000pt" viewBox="0 0 300.000000 168.000000"
 preserveAspectRatio="xMidYMid meet">

<g transform="translate(0.000000,168.000000) scale(0.100000,-0.100000)"
fill="#000000" stroke="none">
<path d="M0 840 l0 -840 1500 0 1500 0 0 615 c0 614 0 615 -21 615 -24 0 -99
41 -99 55 0 6 -8 20 -18 32 -15 20 -28 23 -119 28 -58 3 -119 11 -139 20 -20
8 -48 15 -63 15 -30 0 -71 25 -71 43 0 7 -7 25 -15 41 -9 16 -19 52 -23 80 -8
50 -8 49 -21 -56 -7 -62 -10 -133 -6 -167 6 -55 5 -60 -15 -66 -12 -4 -43 -4
-71 0 l-49 7 6 68 7 68 -41 7 c-38 6 -41 9 -37 33 2 15 7 75 10 135 l6 107
-100 0 -101 0 11 -27 c11 -28 16 -259 6 -269 -24 -24 -326 -26 -354 -2 -19 16
-16 -3 7 -37 11 -16 20 -37 20 -45 0 -13 -1 -13 -10 0 -5 8 -13 11 -17 6 -4
-5 1 -13 11 -20 29 -16 66 -57 66 -72 0 -7 -24 -18 -57 -26 -77 -17 -75 -18
-79 21 -2 19 -8 39 -13 45 -6 6 -17 32 -25 58 -18 52 -11 86 23 110 20 14 20
16 4 34 -56 61 -129 99 -218 113 -191 31 -433 34 -763 10 -164 -12 -176 -8
-161 44 17 60 29 57 -231 57 l-240 0 0 -840z m1506 656 c3 -8 14 -16 25 -19
22 -6 26 -27 5 -27 -11 0 -7 -23 20 -102 35 -104 44 -173 22 -166 -16 6 -22
21 -48 113 -12 44 -32 107 -45 140 -18 45 -21 61 -12 67 18 11 27 10 33 -6z
m74 -52 c0 -8 -4 -12 -10 -9 -5 3 -10 10 -10 16 0 5 5 9 10 9 6 0 10 -7 10
-16z m-190 -83 c0 -13 -172 -151 -182 -145 -4 3 9 19 30 37 20 18 39 34 42 37
3 3 25 22 49 43 45 37 61 45 61 28z m600 -41 c12 -8 11 -10 -7 -10 -12 0 -25
5 -28 10 -8 13 15 13 35 0z m-573 -32 c-3 -8 -6 -5 -6 6 -1 11 2 17 5 13 3 -3
4 -12 1 -19z m797 -5 c8 -21 -10 -41 -24 -27 -11 11 -3 44 10 44 4 0 11 -8 14
-17z m-788 -38 c0 -14 -4 -25 -8 -25 -4 0 -8 11 -8 25 0 14 4 25 8 25 4 0 8
-11 8 -25z m574 -78 c0 -7 -16 -21 -35 -31 -29 -16 -37 -17 -50 -6 -23 19 -13
34 26 41 54 10 59 10 59 -4z m-210 -11 c0 -14 -29 -31 -38 -21 -6 6 18 35 29
35 5 0 9 -6 9 -14z m-17 -52 c38 -13 47 -20 42 -33 -4 -9 -10 -24 -12 -34 -4
-14 -12 -17 -29 -13 -15 4 -34 0 -49 -10 -18 -12 -38 -15 -66 -11 -43 6 -54
-1 -154 -95 -67 -63 -92 -81 -144 -108 -142 -72 -633 -141 -991 -139 -125 0
-266 12 -220 18 8 2 -3 11 -25 20 l-40 18 99 8 c100 8 264 1 346 -15 25 -5 89
-7 143 -6 90 3 104 6 170 40 40 20 86 39 104 42 18 4 31 11 30 18 -1 6 16 20
38 31 88 45 181 99 208 122 16 12 33 23 38 23 6 0 31 9 56 21 26 12 71 25 102
30 31 5 68 12 84 15 15 4 27 4 27 1 0 -4 -19 -24 -42 -46 -37 -34 -44 -37 -50
-22 -10 29 -61 15 -102 -29 -25 -28 -41 -37 -56 -33 -11 3 -20 0 -20 -6 0 -5
-7 -8 -16 -4 -12 4 -15 2 -12 -8 3 -8 10 -13 16 -12 5 1 13 -4 16 -12 5 -13
-81 -38 -229 -64 -27 -5 -39 -9 -25 -10 14 0 61 5 105 13 180 33 264 59 315
101 33 26 115 125 123 148 4 9 11 17 17 17 5 0 10 9 10 19 0 11 6 21 13 24 24
8 133 -3 180 -19z m97 -14 c0 -13 -7 -13 -31 1 -11 5 -17 14 -14 20 7 11 45
-7 45 -21z m-616 11 c4 -5 -3 -7 -14 -4 -23 6 -26 13 -6 13 8 0 17 -4 20 -9z
m-9 -57 c-26 -20 -55 -36 -55 -30 0 5 63 46 70 46 3 -1 -4 -8 -15 -16z m-418
-20 c-3 -3 -12 -4 -19 -1 -8 3 -5 6 6 6 11 1 17 -2 13 -5z m181 -10 c21 -6 32
-34 12 -34 -5 0 -10 4 -10 9 0 5 -12 14 -27 19 -31 11 -12 15 25 6z m-255 -11
c-7 -2 -19 -2 -25 0 -7 3 -2 5 12 5 14 0 19 -2 13 -5z m170 0 c-13 -2 -33 -2
-45 0 -13 2 -3 4 22 4 25 0 35 -2 23 -4z m-346 -9 c-3 -3 -12 -4 -19 -1 -8 3
-5 6 6 6 11 1 17 -2 13 -5z m46 -1 c-7 -2 -19 -2 -25 0 -7 3 -2 5 12 5 14 0
19 -2 13 -5z m1207 -63 c8 -5 11 -10 5 -10 -5 0 -17 5 -25 10 -8 5 -10 10 -5
10 6 0 17 -5 25 -10z m55 -20 c10 -11 16 -20 13 -20 -3 0 -13 9 -23 20 -10 11
-16 20 -13 20 3 0 13 -9 23 -20z m9 -135 c-9 -14 -18 -25 -21 -25 -5 0 5 18
20 38 17 22 18 13 1 -13z m-74 -69 c-14 -13 -27 -21 -30 -19 -4 4 40 42 50 43
2 0 -7 -11 -20 -24z m-1743 8 c-3 -3 -12 -4 -19 -1 -8 3 -5 6 6 6 11 1 17 -2
13 -5z m1543 -14 c-6 -11 -27 -27 -47 -35 -53 -22 -65 -17 -13 6 25 11 49 27
53 35 12 22 19 17 7 -6z m-440 0 c-8 -5 -19 -10 -25 -10 -5 0 -3 5 5 10 8 5
20 10 25 10 6 0 3 -5 -5 -10z m-185 -10 c-3 -5 -18 -10 -33 -9 l-27 1 25 8
c35 11 42 11 35 0z m322 -16 c2 -7 -16 -14 -44 -18 -44 -6 -323 -68 -366 -82
-14 -4 -18 -2 -15 7 3 8 13 14 24 15 10 0 36 8 57 18 21 9 43 16 50 14 7 -1
21 3 32 9 11 6 42 14 68 17 26 4 65 14 85 21 42 16 104 15 109 -1z m667 -44
c10 -63 -6 -173 -33 -235 -26 -60 -77 -113 -118 -124 -20 -6 -40 -8 -45 -5
-15 10 -8 24 16 34 23 8 24 12 15 42 -11 40 -11 41 0 34 5 -4 11 -1 13 6 4 12
38 21 38 9 0 -3 -7 -17 -16 -29 -8 -12 -14 -28 -11 -35 2 -6 16 8 32 33 15 25
32 47 36 48 5 2 9 9 9 14 0 13 -63 72 -102 96 -22 12 -28 24 -28 49 0 39 3 40
88 45 75 5 61 -7 -20 -17 -71 -8 -76 -27 -19 -73 28 -23 41 -28 50 -19 8 8 11
7 12 -4 3 -34 5 -39 14 -39 15 -1 37 106 36 173 -1 75 20 73 33 -3z m-481 13
c-7 -2 -19 -2 -25 0 -7 3 -2 5 12 5 14 0 19 -2 13 -5z m-768 -13 c-3 -5 -2
-10 3 -10 6 0 13 -7 16 -16 5 -14 4 -15 -9 -4 -13 11 -14 10 -9 -4 5 -14 2
-17 -17 -14 -35 5 -40 19 -16 39 24 20 42 25 32 9z m1708 -7 c-4 -10 -12 -27
-20 -39 -7 -11 -10 -24 -6 -27 3 -4 38 -7 77 -7 73 0 176 -19 176 -32 0 -4
-10 -7 -22 -6 -13 0 -41 -4 -63 -10 -22 -6 -89 -14 -150 -18 -89 -6 -113 -11
-126 -25 -9 -11 -21 -19 -26 -19 -11 0 -10 61 2 143 6 38 10 45 21 36 8 -6 14
-22 14 -35 0 -13 5 -24 10 -24 6 0 10 11 10 24 0 48 9 56 61 56 42 0 48 -2 42
-17z m-1568 -53 c-3 -5 -12 -10 -18 -10 -7 0 -6 4 3 10 19 12 23 12 15 0z
m1156 -32 c-9 -25 -31 -36 -31 -16 0 15 19 38 32 38 4 0 4 -10 -1 -22z m-222
-143 c0 -5 -4 -3 -9 5 -5 8 -9 22 -9 30 0 16 17 -16 18 -35z m223 -262 c-73
-2 -190 -2 -260 0 -70 1 -10 3 133 3 143 0 200 -2 127 -3z m216 0 c-16 -2 -40
-2 -55 0 -16 2 -3 4 27 4 30 0 43 -2 28 -4z"/>
<path d="M1190 905 c-12 -14 -12 -18 1 -26 10 -8 9 -9 -8 -4 -12 3 -24 1 -28
-5 -9 -15 40 -13 53 3 5 6 6 20 3 30 -6 18 -8 18 -21 2z"/>
<path d="M2400 1671 c0 -6 5 -13 10 -16 6 -3 11 -16 11 -28 1 -20 2 -20 6 -2
3 11 9 24 14 30 16 16 10 25 -16 25 -14 0 -25 -4 -25 -9z"/>
<path d="M1610 1308 c0 -10 4 -18 8 -18 4 0 9 -12 10 -27 3 -37 15 -46 30 -23
10 17 8 24 -18 52 -22 25 -29 29 -30 16z"/>
</g>
</svg>
